<?xml version="1.0" encoding="UTF-8"?>
<svg xmlns="http://www.w3.org/2000/svg" version="1.1" xmlns:xlink="http://www.w3.org/1999/xlink" viewBox="0 0 1920 1080">
  <defs>
    <style>
      .cls-1 {
        font-size: 13px;
      }

      .cls-1, .cls-2, .cls-3 {
        fill: #231f20;
      }

      .cls-1, .cls-4, .cls-3, .cls-5 {
        font-family: ArialMT, Arial;
      }

      .cls-6 {
        fill: url(#USGS_20_Scrub);
      }

      .cls-7, .cls-8, .cls-9, .cls-10, .cls-11, .cls-12, .cls-13, .cls-14 {
        fill: none;
      }

      .cls-7, .cls-9, .cls-10, .cls-11, .cls-13 {
        stroke-width: .5px;
      }

      .cls-7, .cls-9, .cls-14 {
        stroke: #000;
      }

      .cls-7, .cls-11, .cls-13, .cls-14 {
        stroke-linejoin: round;
      }

      .cls-15 {
        fill: #fff;
      }

      .cls-16 {
        font-size: 19px;
      }

      .cls-16, .cls-17 {
        font-family: MyriadPro-Regular, 'Myriad Pro';
      }

      .cls-9, .cls-10 {
        stroke-miterlimit: 10;
      }

      .cls-10, .cls-11, .cls-13 {
        stroke: #262626;
      }

      .cls-11, .cls-12 {
        stroke-linecap: square;
      }

      .cls-18 {
        fill: url(#Diamond);
      }

      .cls-12 {
        stroke: #231f20;
        stroke-linejoin: bevel;
        stroke-width: .3px;
      }

      .cls-4 {
        font-size: 11px;
      }

      .cls-4, .cls-5 {
        fill: #4d4d4f;
      }

      .cls-17 {
        font-size: 12px;
      }

      .cls-3 {
        font-size: 9px;
      }

      .cls-14 {
        stroke-width: 2px;
      }

      .cls-5 {
        font-size: 10px;
      }
    </style>
    <pattern id="Diamond" x="0" y="0" width="72" height="72" patternTransform="translate(0 1080)" patternUnits="userSpaceOnUse" viewBox="0 0 72 72">
      <g>
        <rect class="cls-8" x="0" y="0" width="72" height="72"/>
        <g>
          <line class="cls-12" x1="72" y1="72" x2="144" y2="144"/>
          <line class="cls-12" x1="144" y1="72" x2="72" y2="144"/>
          <line class="cls-12" x1="138" y1="72" x2="69" y2="141"/>
          <line class="cls-12" x1="132" y1="72" x2="69" y2="135"/>
          <line class="cls-12" x1="126" y1="72" x2="69" y2="129"/>
          <line class="cls-12" x1="120" y1="72" x2="69" y2="123"/>
          <line class="cls-12" x1="114" y1="72" x2="69" y2="117"/>
          <line class="cls-12" x1="108" y1="72" x2="69" y2="111"/>
          <line class="cls-12" x1="102" y1="72" x2="69" y2="105"/>
          <line class="cls-12" x1="96" y1="72" x2="69" y2="99"/>
          <line class="cls-12" x1="90" y1="72" x2="69" y2="93"/>
          <line class="cls-12" x1="84" y1="72" x2="69" y2="87"/>
          <line class="cls-12" x1="78" y1="72" x2="69" y2="81"/>
          <line class="cls-12" x1="72" y1="72" x2="69" y2="75"/>
        </g>
        <g>
          <line class="cls-12" y1="72" x2="72" y2="144"/>
          <line class="cls-12" x1="6" y1="72" x2="75" y2="141"/>
          <line class="cls-12" x1="12" y1="72" x2="75" y2="135"/>
          <line class="cls-12" x1="18" y1="72" x2="75" y2="129"/>
          <line class="cls-12" x1="24" y1="72" x2="75" y2="123"/>
          <line class="cls-12" x1="30" y1="72" x2="75" y2="117"/>
          <line class="cls-12" x1="36" y1="72" x2="75" y2="111"/>
          <line class="cls-12" x1="42" y1="72" x2="75" y2="105"/>
          <line class="cls-12" x1="48" y1="72" x2="75" y2="99"/>
          <line class="cls-12" x1="54" y1="72" x2="75" y2="93"/>
          <line class="cls-12" x1="60" y1="72" x2="75" y2="87"/>
          <line class="cls-12" x1="66" y1="72" x2="75" y2="81"/>
          <line class="cls-12" x1="72" y1="72" x2="75" y2="75"/>
          <line class="cls-12" x1="72" y1="72" y2="144"/>
          <line class="cls-12" x1="66" y1="72" x2="-3" y2="141"/>
          <line class="cls-12" x1="60" y1="72" x2="-3" y2="135"/>
          <line class="cls-12" x1="54" y1="72" x2="-3" y2="129"/>
          <line class="cls-12" x1="48" y1="72" x2="-3" y2="123"/>
          <line class="cls-12" x1="42" y1="72" x2="-3" y2="117"/>
          <line class="cls-12" x1="36" y1="72" x2="-3" y2="111"/>
          <line class="cls-12" x1="30" y1="72" x2="-3" y2="105"/>
          <line class="cls-12" x1="24" y1="72" x2="-3" y2="99"/>
          <line class="cls-12" x1="18" y1="72" x2="-3" y2="93"/>
          <line class="cls-12" x1="12" y1="72" x2="-3" y2="87"/>
          <line class="cls-12" x1="6" y1="72" x2="-3" y2="81"/>
          <line class="cls-12" y1="72" x2="-3" y2="75"/>
        </g>
        <g>
          <line class="cls-12" x1="-72" y1="72" y2="144"/>
          <line class="cls-12" x1="-66" y1="72" x2="3" y2="141"/>
          <line class="cls-12" x1="-60" y1="72" x2="3" y2="135"/>
          <line class="cls-12" x1="-54" y1="72" x2="3" y2="129"/>
          <line class="cls-12" x1="-48" y1="72" x2="3" y2="123"/>
          <line class="cls-12" x1="-42" y1="72" x2="3" y2="117"/>
          <line class="cls-12" x1="-36" y1="72" x2="3" y2="111"/>
          <line class="cls-12" x1="-30" y1="72" x2="3" y2="105"/>
          <line class="cls-12" x1="-24" y1="72" x2="3" y2="99"/>
          <line class="cls-12" x1="-18" y1="72" x2="3" y2="93"/>
          <line class="cls-12" x1="-12" y1="72" x2="3" y2="87"/>
          <line class="cls-12" x1="-6" y1="72" x2="3" y2="81"/>
          <line class="cls-12" y1="72" x2="3" y2="75"/>
          <line class="cls-12" y1="72" x2="-72" y2="144"/>
        </g>
        <g>
          <line class="cls-12" x1="72" x2="144" y2="72"/>
          <line class="cls-12" x1="69" y1="3" x2="138" y2="72"/>
          <line class="cls-12" x1="69" y1="9" x2="132" y2="72"/>
          <line class="cls-12" x1="69" y1="15" x2="126" y2="72"/>
          <line class="cls-12" x1="69" y1="21" x2="120" y2="72"/>
          <line class="cls-12" x1="69" y1="27" x2="114" y2="72"/>
          <line class="cls-12" x1="69" y1="33" x2="108" y2="72"/>
          <line class="cls-12" x1="69" y1="39" x2="102" y2="72"/>
          <line class="cls-12" x1="69" y1="45" x2="96" y2="72"/>
          <line class="cls-12" x1="69" y1="51" x2="90" y2="72"/>
          <line class="cls-12" x1="69" y1="57" x2="84" y2="72"/>
          <line class="cls-12" x1="69" y1="63" x2="78" y2="72"/>
          <line class="cls-12" x1="69" y1="69" x2="72" y2="72"/>
          <line class="cls-12" x1="144" x2="72" y2="72"/>
          <line class="cls-12" x1="138" x2="69" y2="69"/>
          <line class="cls-12" x1="132" x2="69" y2="63"/>
          <line class="cls-12" x1="126" x2="69" y2="57"/>
          <line class="cls-12" x1="120" x2="69" y2="51"/>
          <line class="cls-12" x1="114" x2="69" y2="45"/>
          <line class="cls-12" x1="108" x2="69" y2="39"/>
          <line class="cls-12" x1="102" x2="69" y2="33"/>
          <line class="cls-12" x1="96" x2="69" y2="27"/>
          <line class="cls-12" x1="90" x2="69" y2="21"/>
          <line class="cls-12" x1="84" x2="69" y2="15"/>
          <line class="cls-12" x1="78" x2="69" y2="9"/>
          <line class="cls-12" x1="72" x2="69" y2="3"/>
        </g>
        <g>
          <line class="cls-12" x2="72" y2="72"/>
          <line class="cls-12" x1="-3" y1="3" x2="66" y2="72"/>
          <line class="cls-12" x1="-3" y1="9" x2="60" y2="72"/>
          <line class="cls-12" x1="-3" y1="15" x2="54" y2="72"/>
          <line class="cls-12" x1="-3" y1="21" x2="48" y2="72"/>
          <line class="cls-12" x1="-3" y1="27" x2="42" y2="72"/>
          <line class="cls-12" x1="-3" y1="33" x2="36" y2="72"/>
          <line class="cls-12" x1="-3" y1="39" x2="30" y2="72"/>
          <line class="cls-12" x1="-3" y1="45" x2="24" y2="72"/>
          <line class="cls-12" x1="-3" y1="51" x2="18" y2="72"/>
          <line class="cls-12" x1="-3" y1="57" x2="12" y2="72"/>
          <line class="cls-12" x1="-3" y1="63" x2="6" y2="72"/>
          <line class="cls-12" x1="-3" y1="69" y2="72"/>
          <line class="cls-12" x1="6" x2="75" y2="69"/>
          <line class="cls-12" x1="12" x2="75" y2="63"/>
          <line class="cls-12" x1="18" x2="75" y2="57"/>
          <line class="cls-12" x1="24" x2="75" y2="51"/>
          <line class="cls-12" x1="30" x2="75" y2="45"/>
          <line class="cls-12" x1="36" x2="75" y2="39"/>
          <line class="cls-12" x1="42" x2="75" y2="33"/>
          <line class="cls-12" x1="48" x2="75" y2="27"/>
          <line class="cls-12" x1="54" x2="75" y2="21"/>
          <line class="cls-12" x1="60" x2="75" y2="15"/>
          <line class="cls-12" x1="66" x2="75" y2="9"/>
          <line class="cls-12" x1="72" x2="75" y2="3"/>
          <line class="cls-12" x1="72" y2="72"/>
          <line class="cls-12" x1="66" x2="-3" y2="69"/>
          <line class="cls-12" x1="60" x2="-3" y2="63"/>
          <line class="cls-12" x1="54" x2="-3" y2="57"/>
          <line class="cls-12" x1="48" x2="-3" y2="51"/>
          <line class="cls-12" x1="42" x2="-3" y2="45"/>
          <line class="cls-12" x1="36" x2="-3" y2="39"/>
          <line class="cls-12" x1="30" x2="-3" y2="33"/>
          <line class="cls-12" x1="24" x2="-3" y2="27"/>
          <line class="cls-12" x1="18" x2="-3" y2="21"/>
          <line class="cls-12" x1="12" x2="-3" y2="15"/>
          <line class="cls-12" x1="6" x2="-3" y2="9"/>
          <line class="cls-12" x2="-3" y2="3"/>
          <line class="cls-12" x1="75" y1="3" x2="6" y2="72"/>
          <line class="cls-12" x1="75" y1="9" x2="12" y2="72"/>
          <line class="cls-12" x1="75" y1="15" x2="18" y2="72"/>
          <line class="cls-12" x1="75" y1="21" x2="24" y2="72"/>
          <line class="cls-12" x1="75" y1="27" x2="30" y2="72"/>
          <line class="cls-12" x1="75" y1="33" x2="36" y2="72"/>
          <line class="cls-12" x1="75" y1="39" x2="42" y2="72"/>
          <line class="cls-12" x1="75" y1="45" x2="48" y2="72"/>
          <line class="cls-12" x1="75" y1="51" x2="54" y2="72"/>
          <line class="cls-12" x1="75" y1="57" x2="60" y2="72"/>
          <line class="cls-12" x1="75" y1="63" x2="66" y2="72"/>
          <line class="cls-12" x1="75" y1="69" x2="72" y2="72"/>
        </g>
        <g>
          <line class="cls-12" x1="-72" y2="72"/>
          <line class="cls-12" x1="-66" x2="3" y2="69"/>
          <line class="cls-12" x1="-60" x2="3" y2="63"/>
          <line class="cls-12" x1="-54" x2="3" y2="57"/>
          <line class="cls-12" x1="-48" x2="3" y2="51"/>
          <line class="cls-12" x1="-42" x2="3" y2="45"/>
          <line class="cls-12" x1="-36" x2="3" y2="39"/>
          <line class="cls-12" x1="-30" x2="3" y2="33"/>
          <line class="cls-12" x1="-24" x2="3" y2="27"/>
          <line class="cls-12" x1="-18" x2="3" y2="21"/>
          <line class="cls-12" x1="-12" x2="3" y2="15"/>
          <line class="cls-12" x1="-6" x2="3" y2="9"/>
          <line class="cls-12" x2="3" y2="3"/>
          <line class="cls-12" x2="-72" y2="72"/>
          <line class="cls-12" x1="3" y1="3" x2="-66" y2="72"/>
          <line class="cls-12" x1="3" y1="9" x2="-60" y2="72"/>
          <line class="cls-12" x1="3" y1="15" x2="-54" y2="72"/>
          <line class="cls-12" x1="3" y1="21" x2="-48" y2="72"/>
          <line class="cls-12" x1="3" y1="27" x2="-42" y2="72"/>
          <line class="cls-12" x1="3" y1="33" x2="-36" y2="72"/>
          <line class="cls-12" x1="3" y1="39" x2="-30" y2="72"/>
          <line class="cls-12" x1="3" y1="45" x2="-24" y2="72"/>
          <line class="cls-12" x1="3" y1="51" x2="-18" y2="72"/>
          <line class="cls-12" x1="3" y1="57" x2="-12" y2="72"/>
          <line class="cls-12" x1="3" y1="63" x2="-6" y2="72"/>
          <line class="cls-12" x1="3" y1="69" y2="72"/>
        </g>
        <g>
          <line class="cls-12" x1="72" y1="-72" x2="144"/>
          <line class="cls-12" x1="69" y1="-69" x2="138"/>
          <line class="cls-12" x1="69" y1="-63" x2="132"/>
          <line class="cls-12" x1="69" y1="-57" x2="126"/>
          <line class="cls-12" x1="69" y1="-51" x2="120"/>
          <line class="cls-12" x1="69" y1="-45" x2="114"/>
          <line class="cls-12" x1="69" y1="-39" x2="108"/>
          <line class="cls-12" x1="69" y1="-33" x2="102"/>
          <line class="cls-12" x1="69" y1="-27" x2="96"/>
          <line class="cls-12" x1="69" y1="-21" x2="90"/>
          <line class="cls-12" x1="69" y1="-15" x2="84"/>
          <line class="cls-12" x1="69" y1="-9" x2="78"/>
          <line class="cls-12" x1="69" y1="-3" x2="72"/>
          <line class="cls-12" x1="144" y1="-72" x2="72"/>
        </g>
        <g>
          <line class="cls-12" y1="-72" x2="72"/>
          <line class="cls-12" x1="-3" y1="-69" x2="66"/>
          <line class="cls-12" x1="-3" y1="-63" x2="60"/>
          <line class="cls-12" x1="-3" y1="-57" x2="54"/>
          <line class="cls-12" x1="-3" y1="-51" x2="48"/>
          <line class="cls-12" x1="-3" y1="-45" x2="42"/>
          <line class="cls-12" x1="-3" y1="-39" x2="36"/>
          <line class="cls-12" x1="-3" y1="-33" x2="30"/>
          <line class="cls-12" x1="-3" y1="-27" x2="24"/>
          <line class="cls-12" x1="-3" y1="-21" x2="18"/>
          <line class="cls-12" x1="-3" y1="-15" x2="12"/>
          <line class="cls-12" x1="-3" y1="-9" x2="6"/>
          <line class="cls-12" x1="-3" y1="-3"/>
          <line class="cls-12" x1="72" y1="-72"/>
          <line class="cls-12" x1="75" y1="-69" x2="6"/>
          <line class="cls-12" x1="75" y1="-63" x2="12"/>
          <line class="cls-12" x1="75" y1="-57" x2="18"/>
          <line class="cls-12" x1="75" y1="-51" x2="24"/>
          <line class="cls-12" x1="75" y1="-45" x2="30"/>
          <line class="cls-12" x1="75" y1="-39" x2="36"/>
          <line class="cls-12" x1="75" y1="-33" x2="42"/>
          <line class="cls-12" x1="75" y1="-27" x2="48"/>
          <line class="cls-12" x1="75" y1="-21" x2="54"/>
          <line class="cls-12" x1="75" y1="-15" x2="60"/>
          <line class="cls-12" x1="75" y1="-9" x2="66"/>
          <line class="cls-12" x1="75" y1="-3" x2="72"/>
        </g>
        <g>
          <line class="cls-12" x1="-72" y1="-72"/>
          <line class="cls-12" y1="-72" x2="-72"/>
          <line class="cls-12" x1="3" y1="-69" x2="-66"/>
          <line class="cls-12" x1="3" y1="-63" x2="-60"/>
          <line class="cls-12" x1="3" y1="-57" x2="-54"/>
          <line class="cls-12" x1="3" y1="-51" x2="-48"/>
          <line class="cls-12" x1="3" y1="-45" x2="-42"/>
          <line class="cls-12" x1="3" y1="-39" x2="-36"/>
          <line class="cls-12" x1="3" y1="-33" x2="-30"/>
          <line class="cls-12" x1="3" y1="-27" x2="-24"/>
          <line class="cls-12" x1="3" y1="-21" x2="-18"/>
          <line class="cls-12" x1="3" y1="-15" x2="-12"/>
          <line class="cls-12" x1="3" y1="-9" x2="-6"/>
          <line class="cls-12" x1="3" y1="-3"/>
        </g>
      </g>
    </pattern>
    <pattern id="USGS_20_Scrub" data-name="USGS 20 Scrub" x="0" y="0" width="72" height="72" patternTransform="translate(0 1080)" patternUnits="userSpaceOnUse" viewBox="0 0 72 72">
      <g>
        <rect class="cls-8" x="0" width="72" height="72"/>
        <g>
          <path class="cls-2" d="M15.5,73.3c-.3,0-.7-.1-.9-.4-.2-.2-.4-.6-.4-.9s.1-.7.4-.9c.5-.5,1.4-.5,1.8,0,.2.2.4.6.4.9s-.1.7-.4.9c-.2.2-.6.4-.9.4Z"/>
          <path class="cls-2" d="M26.2,73.3c-.3,0-.7-.1-.9-.4-.2-.2-.4-.6-.4-.9s.1-.7.4-.9c.5-.5,1.4-.5,1.8,0,.2.2.4.6.4.9s-.1.7-.4.9c-.2.2-.6.4-.9.4Z"/>
          <path class="cls-2" d="M30.2,74.3c-.3,0-.7-.1-.9-.4-.2-.2-.4-.6-.4-.9s.1-.7.4-.9c.5-.5,1.4-.5,1.8,0,.2.2.4.6.4.9s-.1.7-.4.9c-.2.2-.6.4-.9.4Z"/>
          <path class="cls-2" d="M35.2,74c-.3,0-.7-.1-.9-.4-.2-.2-.4-.6-.4-.9s.1-.7.4-.9c.5-.5,1.4-.5,1.8,0,.2.2.4.6.4.9s-.1.7-.4.9c-.2.2-.6.4-.9.4Z"/>
          <path class="cls-2" d="M43.2,74.5c-.3,0-.7-.1-.9-.4-.2-.2-.4-.6-.4-.9s.1-.7.4-.9c.5-.5,1.4-.5,1.8,0,.2.2.4.6.4.9s-.1.7-.4.9c-.2.2-.6.4-.9.4Z"/>
          <path class="cls-2" d="M48.2,73.5c-.3,0-.7-.1-.9-.4-.2-.2-.4-.6-.4-.9s.1-.7.4-.9c.5-.5,1.4-.5,1.8,0,.2.2.4.6.4.9s-.1.7-.4.9c-.2.2-.6.4-.9.4Z"/>
          <path class="cls-2" d="M56.5,74.5c-.3,0-.7-.1-.9-.4-.2-.2-.4-.6-.4-.9s.1-.7.4-.9c.5-.5,1.4-.5,1.8,0,.2.2.4.6.4.9s-.1.7-.4.9c-.2.2-.6.4-.9.4Z"/>
          <path class="cls-2" d="M63.5,73.8c-.3,0-.7-.1-.9-.4-.2-.2-.4-.6-.4-.9s.1-.7.4-.9c.5-.5,1.4-.5,1.8,0,.2.2.4.6.4.9s-.1.7-.4.9c-.2.2-.6.4-.9.4Z"/>
          <path class="cls-2" d="M69.2,74c-.3,0-.7-.1-.9-.4-.2-.2-.4-.6-.4-.9s.1-.7.4-.9c.5-.5,1.4-.5,1.8,0,.2.2.4.6.4.9s-.1.7-.4.9c-.2.2-.6.4-.9.4Z"/>
          <path class="cls-2" d="M56.5,74.5c-.3,0-.7-.1-.9-.4-.2-.2-.4-.6-.4-.9s.1-.7.4-.9c.5-.5,1.4-.5,1.8,0,.2.2.4.6.4.9s-.1.7-.4.9c-.2.2-.6.4-.9.4Z"/>
          <path class="cls-2" d="M2.2,74.3c-.3,0-.7-.1-.9-.4-.2-.2-.4-.6-.4-.9s.1-.7.4-.9c.5-.5,1.4-.5,1.8,0,.2.2.4.6.4.9s-.1.7-.4.9c-.2.2-.6.4-.9.4Z"/>
        </g>
        <g>
          <path class="cls-2" d="M72.5,5.8c-.3,0-.7-.1-.9-.4-.2-.2-.4-.6-.4-.9s.1-.7.4-.9c.5-.5,1.4-.5,1.8,0,.2.2.4.6.4.9s-.1.7-.4.9c-.2.2-.6.4-.9.4Z"/>
          <path class="cls-2" d="M73,30.8c-.3,0-.7-.1-.9-.4-.2-.2-.4-.6-.4-.9s.1-.7.4-.9c.5-.5,1.4-.5,1.8,0,.2.2.4.6.4.9s-.1.7-.4.9c-.2.2-.6.4-.9.4Z"/>
          <path class="cls-2" d="M72.2,34.8c-.3,0-.7-.1-.9-.4-.2-.2-.4-.6-.4-.9s.1-.7.4-.9c.5-.5,1.4-.5,1.8,0,.2.2.4.6.4.9s-.1.7-.4.9c-.2.2-.6.4-.9.4Z"/>
          <path class="cls-2" d="M72.2,26.3c-.3,0-.7-.1-.9-.4-.2-.2-.4-.6-.4-.9s.1-.7.4-.9c.5-.5,1.4-.5,1.8,0,.2.2.4.6.4.9s-.1.7-.4.9c-.2.2-.6.4-.9.4Z"/>
          <path class="cls-2" d="M73.2,48c-.3,0-.7-.1-.9-.4-.2-.2-.4-.6-.4-.9s.1-.7.4-.9c.5-.5,1.4-.5,1.8,0,.2.2.4.6.4.9s-.1.7-.4.9c-.2.2-.6.4-.9.4Z"/>
          <path class="cls-2" d="M73,68c-.3,0-.7-.1-.9-.4-.2-.2-.4-.6-.4-.9s.1-.7.4-.9c.5-.5,1.4-.5,1.8,0,.2.2.4.6.4.9s-.1.7-.4.9c-.2.2-.6.4-.9.4Z"/>
        </g>
        <g>
          <path class="cls-2" d="M21.7,5.8c-.3,0-.7-.1-.9-.4-.2-.2-.4-.6-.4-.9s.1-.7.4-.9c.5-.5,1.4-.5,1.8,0,.2.2.4.6.4.9s-.1.7-.4.9c-.2.2-.6.4-.9.4Z"/>
          <path class="cls-2" d="M13,7.8c-.3,0-.7-.1-.9-.4-.2-.2-.4-.6-.4-.9s.1-.7.4-.9c.5-.5,1.4-.5,1.8,0,.2.2.4.6.4.9s-.1.7-.4.9c-.2.2-.6.4-.9.4Z"/>
          <path class="cls-2" d="M13.2,3.5c-.3,0-.7-.1-.9-.4-.2-.2-.4-.6-.4-.9s.1-.7.4-.9c.5-.5,1.4-.5,1.8,0,.2.2.4.6.4.9s-.1.7-.4.9c-.2.2-.6.4-.9.4Z"/>
          <path class="cls-2" d="M16.2,7.5c-.3,0-.7-.1-.9-.4-.2-.2-.4-.6-.4-.9s.1-.7.4-.9c.5-.5,1.4-.5,1.8,0,.2.2.4.6.4.9s-.1.7-.4.9c-.2.2-.6.4-.9.4Z"/>
          <path class="cls-2" d="M18.5,4c-.3,0-.7-.1-.9-.4-.2-.2-.4-.6-.4-.9s.1-.7.4-.9c.5-.5,1.4-.5,1.8,0,.2.2.4.6.4.9s-.1.7-.4.9c-.2.2-.6.4-.9.4Z"/>
          <path class="cls-2" d="M27.5,5c-.3,0-.7-.1-.9-.4-.2-.2-.4-.6-.4-.9s.1-.7.4-.9c.5-.5,1.4-.5,1.8,0,.2.2.4.6.4.9s-.1.7-.4.9c-.2.2-.6.4-.9.4Z"/>
          <path class="cls-2" d="M23.5,3.3c-.3,0-.7-.1-.9-.4-.2-.2-.4-.6-.4-.9s.1-.7.4-.9c.5-.5,1.4-.5,1.8,0,.2.2.4.6.4.9s-.1.7-.4.9c-.2.2-.6.4-.9.4Z"/>
          <path class="cls-2" d="M15.5,1.3c-.3,0-.7-.1-.9-.4-.2-.2-.4-.6-.4-.9s.1-.7.4-.9c.5-.5,1.4-.5,1.8,0,.2.2.4.6.4.9s-.1.7-.4.9c-.2.2-.6.4-.9.4Z"/>
          <path class="cls-2" d="M26.2,1.3c-.3,0-.7-.1-.9-.4-.2-.2-.4-.6-.4-.9s.1-.7.4-.9c.5-.5,1.4-.5,1.8,0,.2.2.4.6.4.9s-.1.7-.4.9c-.2.2-.6.4-.9.4Z"/>
          <path class="cls-2" d="M30.2,2.3c-.3,0-.7-.1-.9-.4-.2-.2-.4-.6-.4-.9s.1-.7.4-.9c.5-.5,1.4-.5,1.8,0,.2.2.4.6.4.9s-.1.7-.4.9c-.2.2-.6.4-.9.4Z"/>
          <path class="cls-2" d="M27.5,5c-.3,0-.7-.1-.9-.4-.2-.2-.4-.6-.4-.9s.1-.7.4-.9c.5-.5,1.4-.5,1.8,0,.2.2.4.6.4.9s-.1.7-.4.9c-.2.2-.6.4-.9.4Z"/>
          <path class="cls-2" d="M26.7,7.8c-.3,0-.7-.1-.9-.4-.2-.2-.4-.6-.4-.9s.1-.7.4-.9c.5-.5,1.4-.5,1.8,0,.2.2.4.6.4.9s-.1.7-.4.9c-.2.2-.6.4-.9.4Z"/>
          <path class="cls-2" d="M24.7,10.8c-.3,0-.7-.1-.9-.4-.2-.2-.4-.6-.4-.9s.1-.7.4-.9c.5-.5,1.4-.5,1.8,0,.2.2.4.6.4.9s-.1.7-.4.9c-.2.2-.6.4-.9.4Z"/>
          <path class="cls-2" d="M20.7,9c-.3,0-.7-.1-.9-.4-.2-.2-.4-.6-.4-.9s.1-.7.4-.9c.5-.5,1.4-.5,1.8,0,.2.2.4.6.4.9s-.1.7-.4.9c-.2.2-.6.4-.9.4Z"/>
          <path class="cls-2" d="M20.5,12.5c-.3,0-.7-.1-.9-.4-.2-.2-.4-.6-.4-.9s.1-.7.4-.9c.5-.5,1.4-.5,1.8,0,.2.2.4.6.4.9s-.1.7-.4.9c-.2.2-.6.4-.9.4Z"/>
          <path class="cls-2" d="M15.5,11.5c-.3,0-.7-.1-.9-.4-.2-.2-.4-.6-.4-.9s.1-.7.4-.9c.5-.5,1.4-.5,1.8,0,.2.2.4.6.4.9s-.1.7-.4.9c-.2.2-.6.4-.9.4Z"/>
          <path class="cls-2" d="M18.7,14.8c-.3,0-.7-.1-.9-.4-.2-.2-.4-.6-.4-.9s.1-.7.4-.9c.5-.5,1.4-.5,1.8,0,.2.2.4.6.4.9s-.1.7-.4.9c-.2.2-.6.4-.9.4Z"/>
          <path class="cls-2" d="M21.2,18.5c-.3,0-.7-.1-.9-.4-.2-.2-.4-.6-.4-.9s.1-.7.4-.9c.5-.5,1.4-.5,1.8,0,.2.2.4.6.4.9s-.1.7-.4.9c-.2.2-.6.4-.9.4Z"/>
          <path class="cls-2" d="M24,19.3c-.3,0-.7-.1-.9-.4-.2-.2-.4-.6-.4-.9s.1-.7.4-.9c.5-.5,1.4-.5,1.8,0,.2.2.4.6.4.9s-.1.7-.4.9c-.2.2-.6.4-.9.4Z"/>
          <path class="cls-2" d="M27,17.5c-.3,0-.7-.1-.9-.4-.2-.2-.4-.6-.4-.9s.1-.7.4-.9c.5-.5,1.4-.5,1.8,0,.2.2.4.6.4.9s-.1.7-.4.9c-.2.2-.6.4-.9.4Z"/>
          <path class="cls-2" d="M26.5,14.3c-.3,0-.7-.1-.9-.4-.2-.2-.4-.6-.4-.9s.1-.7.4-.9c.5-.5,1.4-.5,1.8,0,.2.2.4.6.4.9s-.1.7-.4.9c-.2.2-.6.4-.9.4Z"/>
          <path class="cls-2" d="M28.5,12c-.3,0-.7-.1-.9-.4-.2-.2-.4-.6-.4-.9s.1-.7.4-.9c.5-.5,1.4-.5,1.8,0,.2.2.4.6.4.9s-.1.7-.4.9c-.2.2-.6.4-.9.4Z"/>
          <path class="cls-2" d="M32.7,12c-.3,0-.7-.1-.9-.4-.2-.2-.4-.6-.4-.9s.1-.7.4-.9c.5-.5,1.4-.5,1.8,0,.2.2.4.6.4.9s-.1.7-.4.9c-.2.2-.6.4-.9.4Z"/>
          <path class="cls-2" d="M31,16.8c-.3,0-.7-.1-.9-.4-.2-.2-.4-.6-.4-.9s.1-.7.4-.9c.5-.5,1.4-.5,1.8,0,.2.2.4.6.4.9s-.1.7-.4.9c-.2.2-.6.4-.9.4Z"/>
          <path class="cls-2" d="M33.2,20.3c-.3,0-.7-.1-.9-.4-.2-.2-.4-.6-.4-.9s.1-.7.4-.9c.5-.5,1.4-.5,1.8,0,.2.2.4.6.4.9s-.1.7-.4.9c-.2.2-.6.4-.9.4Z"/>
          <path class="cls-2" d="M29.7,20.5c-.3,0-.7-.1-.9-.4-.2-.2-.4-.6-.4-.9s.1-.7.4-.9c.5-.5,1.4-.5,1.8,0,.2.2.4.6.4.9s-.1.7-.4.9c-.2.2-.6.4-.9.4Z"/>
          <path class="cls-2" d="M26.2,21.3c-.3,0-.7-.1-.9-.4-.2-.2-.4-.6-.4-.9s.1-.7.4-.9c.5-.5,1.4-.5,1.8,0,.2.2.4.6.4.9s-.1.7-.4.9c-.2.2-.6.4-.9.4Z"/>
          <path class="cls-2" d="M35.7,15.8c-.3,0-.7-.1-.9-.4-.2-.2-.4-.6-.4-.9s.1-.7.4-.9c.5-.5,1.4-.5,1.8,0,.2.2.4.6.4.9s-.1.7-.4.9c-.2.2-.6.4-.9.4Z"/>
          <path class="cls-2" d="M30.5,8.5c-.3,0-.7-.1-.9-.4-.2-.2-.4-.6-.4-.9s.1-.7.4-.9c.5-.5,1.4-.5,1.8,0,.2.2.4.6.4.9s-.1.7-.4.9c-.2.2-.6.4-.9.4Z"/>
          <path class="cls-2" d="M32.5,5.5c-.3,0-.7-.1-.9-.4-.2-.2-.4-.6-.4-.9s.1-.7.4-.9c.5-.5,1.4-.5,1.8,0,.2.2.4.6.4.9s-.1.7-.4.9c-.2.2-.6.4-.9.4Z"/>
          <path class="cls-2" d="M35.2,2c-.3,0-.7-.1-.9-.4-.2-.2-.4-.6-.4-.9s.1-.7.4-.9c.5-.5,1.4-.5,1.8,0,.2.2.4.6.4.9s-.1.7-.4.9c-.2.2-.6.4-.9.4Z"/>
          <path class="cls-2" d="M36,5.3c-.3,0-.7-.1-.9-.4-.2-.2-.4-.6-.4-.9s.1-.7.4-.9c.5-.5,1.4-.5,1.8,0,.2.2.4.6.4.9s-.1.7-.4.9c-.2.2-.6.4-.9.4Z"/>
          <path class="cls-2" d="M35.7,8.3c-.3,0-.7-.1-.9-.4-.2-.2-.4-.6-.4-.9s.1-.7.4-.9c.5-.5,1.4-.5,1.8,0,.2.2.4.6.4.9s-.1.7-.4.9c-.2.2-.6.4-.9.4Z"/>
          <path class="cls-2" d="M36,12c-.3,0-.7-.1-.9-.4-.2-.2-.4-.6-.4-.9s.1-.7.4-.9c.5-.5,1.4-.5,1.8,0,.2.2.4.6.4.9s-.1.7-.4.9c-.2.2-.6.4-.9.4Z"/>
          <path class="cls-2" d="M39.5,3.8c-.3,0-.7-.1-.9-.4-.2-.2-.4-.6-.4-.9s.1-.7.4-.9c.5-.5,1.4-.5,1.8,0,.2.2.4.6.4.9s-.1.7-.4.9c-.2.2-.6.4-.9.4Z"/>
          <path class="cls-2" d="M40.2,7.5c-.3,0-.7-.1-.9-.4-.2-.2-.4-.6-.4-.9s.1-.7.4-.9c.5-.5,1.4-.5,1.8,0,.2.2.4.6.4.9s-.1.7-.4.9c-.2.2-.6.4-.9.4Z"/>
          <path class="cls-2" d="M39.7,11.5c-.3,0-.7-.1-.9-.4-.2-.2-.4-.6-.4-.9s.1-.7.4-.9c.5-.5,1.4-.5,1.8,0,.2.2.4.6.4.9s-.1.7-.4.9c-.2.2-.6.4-.9.4Z"/>
          <path class="cls-2" d="M40,16c-.3,0-.7-.1-.9-.4-.2-.2-.4-.6-.4-.9s.1-.7.4-.9c.5-.5,1.4-.5,1.8,0,.2.2.4.6.4.9s-.1.7-.4.9c-.2.2-.6.4-.9.4Z"/>
          <path class="cls-2" d="M41.5,19.5c-.3,0-.7-.1-.9-.4-.2-.2-.4-.6-.4-.9s.1-.7.4-.9c.5-.5,1.4-.5,1.8,0,.2.2.4.6.4.9s-.1.7-.4.9c-.2.2-.6.4-.9.4Z"/>
          <path class="cls-2" d="M36.7,19.3c-.3,0-.7-.1-.9-.4-.2-.2-.4-.6-.4-.9s.1-.7.4-.9c.5-.5,1.4-.5,1.8,0,.2.2.4.6.4.9s-.1.7-.4.9c-.2.2-.6.4-.9.4Z"/>
          <path class="cls-2" d="M38,23.8c-.3,0-.7-.1-.9-.4-.2-.2-.4-.6-.4-.9s.1-.7.4-.9c.5-.5,1.4-.5,1.8,0,.2.2.4.6.4.9s-.1.7-.4.9c-.2.2-.6.4-.9.4Z"/>
          <path class="cls-2" d="M33.7,23.5c-.3,0-.7-.1-.9-.4-.2-.2-.4-.6-.4-.9s.1-.7.4-.9c.5-.5,1.4-.5,1.8,0,.2.2.4.6.4.9s-.1.7-.4.9c-.2.2-.6.4-.9.4Z"/>
          <path class="cls-2" d="M45.5,21c-.3,0-.7-.1-.9-.4-.2-.2-.4-.6-.4-.9s.1-.7.4-.9c.5-.5,1.4-.5,1.8,0,.2.2.4.6.4.9s-.1.7-.4.9c-.2.2-.6.4-.9.4Z"/>
          <path class="cls-2" d="M44.5,17.5c-.3,0-.7-.1-.9-.4-.2-.2-.4-.6-.4-.9s.1-.7.4-.9c.5-.5,1.4-.5,1.8,0,.2.2.4.6.4.9s-.1.7-.4.9c-.2.2-.6.4-.9.4Z"/>
          <path class="cls-2" d="M43.5,14c-.3,0-.7-.1-.9-.4-.2-.2-.4-.6-.4-.9s.1-.7.4-.9c.5-.5,1.4-.5,1.8,0,.2.2.4.6.4.9s-.1.7-.4.9c-.2.2-.6.4-.9.4Z"/>
          <path class="cls-2" d="M43.7,10c-.3,0-.7-.1-.9-.4-.2-.2-.4-.6-.4-.9s.1-.7.4-.9c.5-.5,1.4-.5,1.8,0,.2.2.4.6.4.9s-.1.7-.4.9c-.2.2-.6.4-.9.4Z"/>
          <path class="cls-2" d="M43.5,5.8c-.3,0-.7-.1-.9-.4-.2-.2-.4-.6-.4-.9s.1-.7.4-.9c.5-.5,1.4-.5,1.8,0,.2.2.4.6.4.9s-.1.7-.4.9c-.2.2-.6.4-.9.4Z"/>
          <path class="cls-2" d="M43.2,2.5c-.3,0-.7-.1-.9-.4-.2-.2-.4-.6-.4-.9s.1-.7.4-.9c.5-.5,1.4-.5,1.8,0,.2.2.4.6.4.9s-.1.7-.4.9c-.2.2-.6.4-.9.4Z"/>
          <path class="cls-2" d="M48.2,1.5c-.3,0-.7-.1-.9-.4-.2-.2-.4-.6-.4-.9s.1-.7.4-.9c.5-.5,1.4-.5,1.8,0,.2.2.4.6.4.9s-.1.7-.4.9c-.2.2-.6.4-.9.4Z"/>
          <path class="cls-2" d="M47.5,5.8c-.3,0-.7-.1-.9-.4-.2-.2-.4-.6-.4-.9s.1-.7.4-.9c.5-.5,1.4-.5,1.8,0,.2.2.4.6.4.9s-.1.7-.4.9c-.2.2-.6.4-.9.4Z"/>
          <path class="cls-2" d="M51,5.8c-.3,0-.7-.1-.9-.4-.2-.2-.4-.6-.4-.9s.1-.7.4-.9c.5-.5,1.4-.5,1.8,0,.2.2.4.6.4.9s-.1.7-.4.9c-.2.2-.6.4-.9.4Z"/>
          <path class="cls-2" d="M50.7,9.3c-.3,0-.7-.1-.9-.4-.2-.2-.4-.6-.4-.9s.1-.7.4-.9c.5-.5,1.4-.5,1.8,0,.2.2.4.6.4.9s-.1.7-.4.9c-.2.2-.6.4-.9.4Z"/>
          <path class="cls-2" d="M47,9c-.3,0-.7-.1-.9-.4-.2-.2-.4-.6-.4-.9s.1-.7.4-.9c.5-.5,1.4-.5,1.8,0,.2.2.4.6.4.9s-.1.7-.4.9c-.2.2-.6.4-.9.4Z"/>
          <path class="cls-2" d="M47.2,13.5c-.3,0-.7-.1-.9-.4-.2-.2-.4-.6-.4-.9s.1-.7.4-.9c.5-.5,1.4-.5,1.8,0,.2.2.4.6.4.9s-.1.7-.4.9c-.2.2-.6.4-.9.4Z"/>
          <path class="cls-2" d="M50.7,13.5c-.3,0-.7-.1-.9-.4-.2-.2-.4-.6-.4-.9s.1-.7.4-.9c.5-.5,1.4-.5,1.8,0,.2.2.4.6.4.9s-.1.7-.4.9c-.2.2-.6.4-.9.4Z"/>
          <path class="cls-2" d="M48,17c-.3,0-.7-.1-.9-.4-.2-.2-.4-.6-.4-.9s.1-.7.4-.9c.5-.5,1.4-.5,1.8,0,.2.2.4.6.4.9s-.1.7-.4.9c-.2.2-.6.4-.9.4Z"/>
          <path class="cls-2" d="M49.5,21.3c-.3,0-.7-.1-.9-.4-.2-.2-.4-.6-.4-.9s.1-.7.4-.9c.5-.5,1.4-.5,1.8,0,.2.2.4.6.4.9s-.1.7-.4.9c-.2.2-.6.4-.9.4Z"/>
          <path class="cls-2" d="M51.2,24.5c-.3,0-.7-.1-.9-.4-.2-.2-.4-.6-.4-.9s.1-.7.4-.9c.5-.5,1.4-.5,1.8,0,.2.2.4.6.4.9s-.1.7-.4.9c-.2.2-.6.4-.9.4Z"/>
          <path class="cls-2" d="M53.7,21.8c-.3,0-.7-.1-.9-.4-.2-.2-.4-.6-.4-.9s.1-.7.4-.9c.5-.5,1.4-.5,1.8,0,.2.2.4.6.4.9s-.1.7-.4.9c-.2.2-.6.4-.9.4Z"/>
          <path class="cls-2" d="M52.2,18.3c-.3,0-.7-.1-.9-.4-.2-.2-.4-.6-.4-.9s.1-.7.4-.9c.5-.5,1.4-.5,1.8,0,.2.2.4.6.4.9s-.1.7-.4.9c-.2.2-.6.4-.9.4Z"/>
          <path class="cls-2" d="M54.5,15.3c-.3,0-.7-.1-.9-.4-.2-.2-.4-.6-.4-.9s.1-.7.4-.9c.5-.5,1.4-.5,1.8,0,.2.2.4.6.4.9s-.1.7-.4.9c-.2.2-.6.4-.9.4Z"/>
          <path class="cls-2" d="M54.7,11c-.3,0-.7-.1-.9-.4-.2-.2-.4-.6-.4-.9s.1-.7.4-.9c.5-.5,1.4-.5,1.8,0,.2.2.4.6.4.9s-.1.7-.4.9c-.2.2-.6.4-.9.4Z"/>
          <path class="cls-2" d="M55,6c-.3,0-.7-.1-.9-.4-.2-.2-.4-.6-.4-.9s.1-.7.4-.9c.5-.5,1.4-.5,1.8,0,.2.2.4.6.4.9s-.1.7-.4.9c-.2.2-.6.4-.9.4Z"/>
          <path class="cls-2" d="M58.2,7c-.3,0-.7-.1-.9-.4-.2-.2-.4-.6-.4-.9s.1-.7.4-.9c.5-.5,1.4-.5,1.8,0,.2.2.4.6.4.9s-.1.7-.4.9c-.2.2-.6.4-.9.4Z"/>
          <path class="cls-2" d="M56.5,2.5c-.3,0-.7-.1-.9-.4-.2-.2-.4-.6-.4-.9s.1-.7.4-.9c.5-.5,1.4-.5,1.8,0,.2.2.4.6.4.9s-.1.7-.4.9c-.2.2-.6.4-.9.4Z"/>
          <path class="cls-2" d="M60.2,3.5c-.3,0-.7-.1-.9-.4-.2-.2-.4-.6-.4-.9s.1-.7.4-.9c.5-.5,1.4-.5,1.8,0,.2.2.4.6.4.9s-.1.7-.4.9c-.2.2-.6.4-.9.4Z"/>
          <path class="cls-2" d="M63.5,1.8c-.3,0-.7-.1-.9-.4-.2-.2-.4-.6-.4-.9s.1-.7.4-.9c.5-.5,1.4-.5,1.8,0,.2.2.4.6.4.9s-.1.7-.4.9c-.2.2-.6.4-.9.4Z"/>
          <path class="cls-2" d="M65.5,3.8c-.3,0-.7-.1-.9-.4-.2-.2-.4-.6-.4-.9s.1-.7.4-.9c.5-.5,1.4-.5,1.8,0,.2.2.4.6.4.9s-.1.7-.4.9c-.2.2-.6.4-.9.4Z"/>
          <path class="cls-2" d="M62,6.8c-.3,0-.7-.1-.9-.4-.2-.2-.4-.6-.4-.9s.1-.7.4-.9c.5-.5,1.4-.5,1.8,0,.2.2.4.6.4.9s-.1.7-.4.9c-.2.2-.6.4-.9.4Z"/>
          <path class="cls-2" d="M61.2,10.5c-.3,0-.7-.1-.9-.4-.2-.2-.4-.6-.4-.9s.1-.7.4-.9c.5-.5,1.4-.5,1.8,0,.2.2.4.6.4.9s-.1.7-.4.9c-.2.2-.6.4-.9.4Z"/>
          <path class="cls-2" d="M58.5,12.8c-.3,0-.7-.1-.9-.4-.2-.2-.4-.6-.4-.9s.1-.7.4-.9c.5-.5,1.4-.5,1.8,0,.2.2.4.6.4.9s-.1.7-.4.9c-.2.2-.6.4-.9.4Z"/>
          <path class="cls-2" d="M61,15.5c-.3,0-.7-.1-.9-.4-.2-.2-.4-.6-.4-.9s.1-.7.4-.9c.5-.5,1.4-.5,1.8,0,.2.2.4.6.4.9s-.1.7-.4.9c-.2.2-.6.4-.9.4Z"/>
          <path class="cls-2" d="M64.7,16.5c-.3,0-.7-.1-.9-.4-.2-.2-.4-.6-.4-.9s.1-.7.4-.9c.5-.5,1.4-.5,1.8,0,.2.2.4.6.4.9s-.1.7-.4.9c-.2.2-.6.4-.9.4Z"/>
          <path class="cls-2" d="M62.7,18.8c-.3,0-.7-.1-.9-.4-.2-.2-.4-.6-.4-.9s.1-.7.4-.9c.5-.5,1.4-.5,1.8,0,.2.2.4.6.4.9s-.1.7-.4.9c-.2.2-.6.4-.9.4Z"/>
          <path class="cls-2" d="M59.2,19.3c-.3,0-.7-.1-.9-.4-.2-.2-.4-.6-.4-.9s.1-.7.4-.9c.5-.5,1.4-.5,1.8,0,.2.2.4.6.4.9s-.1.7-.4.9c-.2.2-.6.4-.9.4Z"/>
          <path class="cls-2" d="M56.5,18.8c-.3,0-.7-.1-.9-.4-.2-.2-.4-.6-.4-.9s.1-.7.4-.9c.5-.5,1.4-.5,1.8,0,.2.2.4.6.4.9s-.1.7-.4.9c-.2.2-.6.4-.9.4Z"/>
          <path class="cls-2" d="M58.2,23c-.3,0-.7-.1-.9-.4-.2-.2-.4-.6-.4-.9s.1-.7.4-.9c.5-.5,1.4-.5,1.8,0,.2.2.4.6.4.9s-.1.7-.4.9c-.2.2-.6.4-.9.4Z"/>
          <path class="cls-2" d="M62.7,21.8c-.3,0-.7-.1-.9-.4-.2-.2-.4-.6-.4-.9s.1-.7.4-.9c.5-.5,1.4-.5,1.8,0,.2.2.4.6.4.9s-.1.7-.4.9c-.2.2-.6.4-.9.4Z"/>
          <path class="cls-2" d="M67,22.8c-.3,0-.7-.1-.9-.4-.2-.2-.4-.6-.4-.9s.1-.7.4-.9c.5-.5,1.4-.5,1.8,0,.2.2.4.6.4.9s-.1.7-.4.9c-.2.2-.6.4-.9.4Z"/>
          <path class="cls-2" d="M67,19.3c-.3,0-.7-.1-.9-.4-.2-.2-.4-.6-.4-.9s.1-.7.4-.9c.5-.5,1.4-.5,1.8,0,.2.2.4.6.4.9s-.1.7-.4.9c-.2.2-.6.4-.9.4Z"/>
          <path class="cls-2" d="M64,12.5c-.3,0-.7-.1-.9-.4-.2-.2-.4-.6-.4-.9s.1-.7.4-.9c.5-.5,1.4-.5,1.8,0,.2.2.4.6.4.9s-.1.7-.4.9c-.2.2-.6.4-.9.4Z"/>
          <path class="cls-2" d="M64.7,8.8c-.3,0-.7-.1-.9-.4-.2-.2-.4-.6-.4-.9s.1-.7.4-.9c.5-.5,1.4-.5,1.8,0,.2.2.4.6.4.9s-.1.7-.4.9c-.2.2-.6.4-.9.4Z"/>
          <path class="cls-2" d="M68.2,6.8c-.3,0-.7-.1-.9-.4-.2-.2-.4-.6-.4-.9s.1-.7.4-.9c.5-.5,1.4-.5,1.8,0,.2.2.4.6.4.9s-.1.7-.4.9c-.2.2-.6.4-.9.4Z"/>
          <path class="cls-2" d="M69.2,2c-.3,0-.7-.1-.9-.4-.2-.2-.4-.6-.4-.9s.1-.7.4-.9c.5-.5,1.4-.5,1.8,0,.2.2.4.6.4.9s-.1.7-.4.9c-.2.2-.6.4-.9.4Z"/>
          <path class="cls-2" d="M68.2,13.3c-.3,0-.7-.1-.9-.4-.2-.2-.4-.6-.4-.9s.1-.7.4-.9c.5-.5,1.4-.5,1.8,0,.2.2.4.6.4.9s-.1.7-.4.9c-.2.2-.6.4-.9.4Z"/>
          <path class="cls-2" d="M70,16.8c-.3,0-.7-.1-.9-.4-.2-.2-.4-.6-.4-.9s.1-.7.4-.9c.5-.5,1.4-.5,1.8,0,.2.2.4.6.4.9s-.1.7-.4.9c-.2.2-.6.4-.9.4Z"/>
          <path class="cls-2" d="M55,6c-.3,0-.7-.1-.9-.4-.2-.2-.4-.6-.4-.9s.1-.7.4-.9c.5-.5,1.4-.5,1.8,0,.2.2.4.6.4.9s-.1.7-.4.9c-.2.2-.6.4-.9.4Z"/>
          <path class="cls-2" d="M56.5,2.5c-.3,0-.7-.1-.9-.4-.2-.2-.4-.6-.4-.9s.1-.7.4-.9c.5-.5,1.4-.5,1.8,0,.2.2.4.6.4.9s-.1.7-.4.9c-.2.2-.6.4-.9.4Z"/>
          <path class="cls-2" d="M52.5,3.3c-.3,0-.7-.1-.9-.4-.2-.2-.4-.6-.4-.9s.1-.7.4-.9c.5-.5,1.4-.5,1.8,0,.2.2.4.6.4.9s-.1.7-.4.9c-.2.2-.6.4-.9.4Z"/>
          <path class="cls-2" d="M22.5,22.8c-.3,0-.7-.1-.9-.4-.2-.2-.4-.6-.4-.9s.1-.7.4-.9c.5-.5,1.4-.5,1.8,0,.2.2.4.6.4.9s-.1.7-.4.9c-.2.2-.6.4-.9.4Z"/>
          <path class="cls-2" d="M18.5,20c-.3,0-.7-.1-.9-.4-.2-.2-.4-.6-.4-.9s.1-.7.4-.9c.5-.5,1.4-.5,1.8,0,.2.2.4.6.4.9s-.1.7-.4.9c-.2.2-.6.4-.9.4Z"/>
          <path class="cls-2" d="M14.5,21c-.3,0-.7-.1-.9-.4-.2-.2-.4-.6-.4-.9s.1-.7.4-.9c.5-.5,1.4-.5,1.8,0,.2.2.4.6.4.9s-.1.7-.4.9c-.2.2-.6.4-.9.4Z"/>
          <path class="cls-2" d="M15.5,17c-.3,0-.7-.1-.9-.4-.2-.2-.4-.6-.4-.9s.1-.7.4-.9c.5-.5,1.4-.5,1.8,0,.2.2.4.6.4.9s-.1.7-.4.9c-.2.2-.6.4-.9.4Z"/>
          <path class="cls-2" d="M13.2,14c-.3,0-.7-.1-.9-.4-.2-.2-.4-.6-.4-.9s.1-.7.4-.9c.5-.5,1.4-.5,1.8,0,.2.2.4.6.4.9s-.1.7-.4.9c-.2.2-.6.4-.9.4Z"/>
          <path class="cls-2" d="M11,11.3c-.3,0-.7-.1-.9-.4-.2-.2-.4-.6-.4-.9s.1-.7.4-.9c.5-.5,1.4-.5,1.8,0,.2.2.4.6.4.9s-.1.7-.4.9c-.2.2-.6.4-.9.4Z"/>
          <path class="cls-2" d="M11,17.5c-.3,0-.7-.1-.9-.4-.2-.2-.4-.6-.4-.9s.1-.7.4-.9c.5-.5,1.4-.5,1.8,0,.2.2.4.6.4.9s-.1.7-.4.9c-.2.2-.6.4-.9.4Z"/>
          <path class="cls-2" d="M14.5,21c-.3,0-.7-.1-.9-.4-.2-.2-.4-.6-.4-.9s.1-.7.4-.9c.5-.5,1.4-.5,1.8,0,.2.2.4.6.4.9s-.1.7-.4.9c-.2.2-.6.4-.9.4Z"/>
          <path class="cls-2" d="M17,23.3c-.3,0-.7-.1-.9-.4-.2-.2-.4-.6-.4-.9s.1-.7.4-.9c.5-.5,1.4-.5,1.8,0,.2.2.4.6.4.9s-.1.7-.4.9c-.2.2-.6.4-.9.4Z"/>
          <path class="cls-2" d="M12.5,24.8c-.3,0-.7-.1-.9-.4-.2-.2-.4-.6-.4-.9s.1-.7.4-.9c.5-.5,1.4-.5,1.8,0,.2.2.4.6.4.9s-.1.7-.4.9c-.2.2-.6.4-.9.4Z"/>
          <path class="cls-2" d="M10,21.8c-.3,0-.7-.1-.9-.4-.2-.2-.4-.6-.4-.9s.1-.7.4-.9c.5-.5,1.4-.5,1.8,0,.2.2.4.6.4.9s-.1.7-.4.9c-.2.2-.6.4-.9.4Z"/>
          <path class="cls-2" d="M22.5,15.3c-.3,0-.7-.1-.9-.4-.2-.2-.4-.6-.4-.9s.1-.7.4-.9c.5-.5,1.4-.5,1.8,0,.2.2.4.6.4.9s-.1.7-.4.9c-.2.2-.6.4-.9.4Z"/>
          <path class="cls-2" d="M.5,5.8c-.3,0-.7-.1-.9-.4-.2-.2-.4-.6-.4-.9s.1-.7.4-.9c.5-.5,1.4-.5,1.8,0,.2.2.4.6.4.9s-.1.7-.4.9c-.2.2-.6.4-.9.4Z"/>
          <path class="cls-2" d="M1.7,15.3c-.3,0-.7-.1-.9-.4-.2-.2-.4-.6-.4-.9s.1-.7.4-.9c.5-.5,1.4-.5,1.8,0,.2.2.4.6.4.9s-.1.7-.4.9c-.2.2-.6.4-.9.4Z"/>
          <path class="cls-2" d="M3.7,18.5c-.3,0-.7-.1-.9-.4-.2-.2-.4-.6-.4-.9s.1-.7.4-.9c.5-.5,1.4-.5,1.8,0,.2.2.4.6.4.9s-.1.7-.4.9c-.2.2-.6.4-.9.4Z"/>
          <path class="cls-2" d="M2.2,11.8c-.3,0-.7-.1-.9-.4-.2-.2-.4-.6-.4-.9s.1-.7.4-.9c.5-.5,1.4-.5,1.8,0,.2.2.4.6.4.9s-.1.7-.4.9c-.2.2-.6.4-.9.4Z"/>
          <path class="cls-2" d="M7.5,4.5c-.3,0-.7-.1-.9-.4-.2-.2-.4-.6-.4-.9s.1-.7.4-.9c.5-.5,1.4-.5,1.8,0,.2.2.4.6.4.9s-.1.7-.4.9c-.2.2-.6.4-.9.4Z"/>
          <path class="cls-2" d="M4.2,5c-.3,0-.7-.1-.9-.4-.2-.2-.4-.6-.4-.9s.1-.7.4-.9c.5-.5,1.4-.5,1.8,0,.2.2.4.6.4.9s-.1.7-.4.9c-.2.2-.6.4-.9.4Z"/>
          <path class="cls-2" d="M4.5,8.3c-.3,0-.7-.1-.9-.4-.2-.2-.4-.6-.4-.9s.1-.7.4-.9c.5-.5,1.4-.5,1.8,0,.2.2.4.6.4.9s-.1.7-.4.9c-.2.2-.6.4-.9.4Z"/>
          <path class="cls-2" d="M9.2,7.5c-.3,0-.7-.1-.9-.4-.2-.2-.4-.6-.4-.9s.1-.7.4-.9c.5-.5,1.4-.5,1.8,0,.2.2.4.6.4.9s-.1.7-.4.9c-.2.2-.6.4-.9.4Z"/>
          <path class="cls-2" d="M2.2,2.3c-.3,0-.7-.1-.9-.4-.2-.2-.4-.6-.4-.9s.1-.7.4-.9c.5-.5,1.4-.5,1.8,0,.2.2.4.6.4.9s-.1.7-.4.9c-.2.2-.6.4-.9.4Z"/>
          <path class="cls-2" d="M5.5,13c-.3,0-.7-.1-.9-.4-.2-.2-.4-.6-.4-.9s.1-.7.4-.9c.5-.5,1.4-.5,1.8,0,.2.2.4.6.4.9s-.1.7-.4.9c-.2.2-.6.4-.9.4Z"/>
          <path class="cls-2" d="M8.2,10.8c-.3,0-.7-.1-.9-.4-.2-.2-.4-.6-.4-.9s.1-.7.4-.9c.5-.5,1.4-.5,1.8,0,.2.2.4.6.4.9s-.1.7-.4.9c-.2.2-.6.4-.9.4Z"/>
          <path class="cls-2" d="M8.2,14.8c-.3,0-.7-.1-.9-.4-.2-.2-.4-.6-.4-.9s.1-.7.4-.9c.5-.5,1.4-.5,1.8,0,.2.2.4.6.4.9s-.1.7-.4.9c-.2.2-.6.4-.9.4Z"/>
          <path class="cls-2" d="M11,17.5c-.3,0-.7-.1-.9-.4-.2-.2-.4-.6-.4-.9s.1-.7.4-.9c.5-.5,1.4-.5,1.8,0,.2.2.4.6.4.9s-.1.7-.4.9c-.2.2-.6.4-.9.4Z"/>
          <path class="cls-2" d="M6.7,19.3c-.3,0-.7-.1-.9-.4-.2-.2-.4-.6-.4-.9s.1-.7.4-.9c.5-.5,1.4-.5,1.8,0,.2.2.4.6.4.9s-.1.7-.4.9c-.2.2-.6.4-.9.4Z"/>
          <path class="cls-2" d="M4.2,24.8c-.3,0-.7-.1-.9-.4-.2-.2-.4-.6-.4-.9s.1-.7.4-.9c.5-.5,1.4-.5,1.8,0,.2.2.4.6.4.9s-.1.7-.4.9c-.2.2-.6.4-.9.4Z"/>
          <path class="cls-2" d="M3.5,21.8c-.3,0-.7-.1-.9-.4-.2-.2-.4-.6-.4-.9s.1-.7.4-.9c.5-.5,1.4-.5,1.8,0,.2.2.4.6.4.9s-.1.7-.4.9c-.2.2-.6.4-.9.4Z"/>
          <path class="cls-2" d="M13.5,70.5c-.3,0-.7-.1-.9-.4-.2-.2-.4-.6-.4-.9s.1-.7.4-.9c.5-.5,1.4-.5,1.8,0,.2.2.4.6.4.9s-.1.7-.4.9c-.2.2-.6.4-.9.4Z"/>
          <path class="cls-2" d="M13.5,70.5c-.3,0-.7-.1-.9-.4-.2-.2-.4-.6-.4-.9s.1-.7.4-.9c.5-.5,1.4-.5,1.8,0,.2.2.4.6.4.9s-.1.7-.4.9c-.2.2-.6.4-.9.4Z"/>
          <path class="cls-2" d="M17,69.5c-.3,0-.7-.1-.9-.4-.2-.2-.4-.6-.4-.9s.1-.7.4-.9c.5-.5,1.4-.5,1.8,0,.2.2.4.6.4.9s-.1.7-.4.9c-.2.2-.6.4-.9.4Z"/>
          <path class="cls-2" d="M22.5,70.5c-.3,0-.7-.1-.9-.4-.2-.2-.4-.6-.4-.9s.1-.7.4-.9c.5-.5,1.4-.5,1.8,0,.2.2.4.6.4.9s-.1.7-.4.9c-.2.2-.6.4-.9.4Z"/>
          <path class="cls-2" d="M27.7,70c-.3,0-.7-.1-.9-.4-.2-.2-.4-.6-.4-.9s.1-.7.4-.9c.5-.5,1.4-.5,1.8,0,.2.2.4.6.4.9s-.1.7-.4.9c-.2.2-.6.4-.9.4Z"/>
          <path class="cls-2" d="M31.2,70.5c-.3,0-.7-.1-.9-.4-.2-.2-.4-.6-.4-.9s.1-.7.4-.9c.5-.5,1.4-.5,1.8,0,.2.2.4.6.4.9s-.1.7-.4.9c-.2.2-.6.4-.9.4Z"/>
          <path class="cls-2" d="M36.2,70c-.3,0-.7-.1-.9-.4-.2-.2-.4-.6-.4-.9s.1-.7.4-.9c.5-.5,1.4-.5,1.8,0,.2.2.4.6.4.9s-.1.7-.4.9c-.2.2-.6.4-.9.4Z"/>
          <path class="cls-2" d="M43.5,67.3c-.3,0-.7-.1-.9-.4-.2-.2-.4-.6-.4-.9s.1-.7.4-.9c.5-.5,1.4-.5,1.8,0,.2.2.4.6.4.9s-.1.7-.4.9c-.2.2-.6.4-.9.4Z"/>
          <path class="cls-2" d="M48.2,69c-.3,0-.7-.1-.9-.4-.2-.2-.4-.6-.4-.9s.1-.7.4-.9c.5-.5,1.4-.5,1.8,0,.2.2.4.6.4.9s-.1.7-.4.9c-.2.2-.6.4-.9.4Z"/>
          <path class="cls-2" d="M58.2,70.5c-.3,0-.7-.1-.9-.4-.2-.2-.4-.6-.4-.9s.1-.7.4-.9c.5-.5,1.4-.5,1.8,0,.2.2.4.6.4.9s-.1.7-.4.9c-.2.2-.6.4-.9.4Z"/>
          <path class="cls-2" d="M66.2,71.3c-.3,0-.7-.1-.9-.4-.2-.2-.4-.6-.4-.9s.1-.7.4-.9c.5-.5,1.4-.5,1.8,0,.2.2.4.6.4.9s-.1.7-.4.9c-.2.2-.6.4-.9.4Z"/>
          <path class="cls-2" d="M53.5,72.3c-.3,0-.7-.1-.9-.4-.2-.2-.4-.6-.4-.9s.1-.7.4-.9c.5-.5,1.4-.5,1.8,0,.2.2.4.6.4.9s-.1.7-.4.9c-.2.2-.6.4-.9.4Z"/>
          <path class="cls-2" d="M52.2,68.5c-.3,0-.7-.1-.9-.4-.2-.2-.4-.6-.4-.9s.1-.7.4-.9c.5-.5,1.4-.5,1.8,0,.2.2.4.6.4.9s-.1.7-.4.9c-.2.2-.6.4-.9.4Z"/>
          <path class="cls-2" d="M8.7,69.5c-.3,0-.7-.1-.9-.4-.2-.2-.4-.6-.4-.9s.1-.7.4-.9c.5-.5,1.4-.5,1.8,0,.2.2.4.6.4.9s-.1.7-.4.9c-.2.2-.6.4-.9.4Z"/>
          <path class="cls-2" d="M4.2,69.8c-.3,0-.7-.1-.9-.4-.2-.2-.4-.6-.4-.9s.1-.7.4-.9c.5-.5,1.4-.5,1.8,0,.2.2.4.6.4.9s-.1.7-.4.9c-.2.2-.6.4-.9.4Z"/>
          <path class="cls-2" d="M20.5,25.5c-.3,0-.7-.1-.9-.4-.2-.2-.4-.6-.4-.9s.1-.7.4-.9c.5-.5,1.4-.5,1.8,0,.2.2.4.6.4.9s-.1.7-.4.9c-.2.2-.6.4-.9.4Z"/>
          <path class="cls-2" d="M25,26.5c-.3,0-.7-.1-.9-.4-.2-.2-.4-.6-.4-.9s.1-.7.4-.9c.5-.5,1.4-.5,1.8,0,.2.2.4.6.4.9s-.1.7-.4.9c-.2.2-.6.4-.9.4Z"/>
          <path class="cls-2" d="M28.7,24.5c-.3,0-.7-.1-.9-.4-.2-.2-.4-.6-.4-.9s.1-.7.4-.9c.5-.5,1.4-.5,1.8,0,.2.2.4.6.4.9s-.1.7-.4.9c-.2.2-.6.4-.9.4Z"/>
          <path class="cls-2" d="M27.5,28.5c-.3,0-.7-.1-.9-.4-.2-.2-.4-.6-.4-.9s.1-.7.4-.9c.5-.5,1.4-.5,1.8,0,.2.2.4.6.4.9s-.1.7-.4.9c-.2.2-.6.4-.9.4Z"/>
          <path class="cls-2" d="M24.7,30.5c-.3,0-.7-.1-.9-.4-.2-.2-.4-.6-.4-.9s.1-.7.4-.9c.5-.5,1.4-.5,1.8,0,.2.2.4.6.4.9s-.1.7-.4.9c-.2.2-.6.4-.9.4Z"/>
          <path class="cls-2" d="M21.2,29.8c-.3,0-.7-.1-.9-.4-.2-.2-.4-.6-.4-.9s.1-.7.4-.9c.5-.5,1.4-.5,1.8,0,.2.2.4.6.4.9s-.1.7-.4.9c-.2.2-.6.4-.9.4Z"/>
          <path class="cls-2" d="M18,30.5c-.3,0-.7-.1-.9-.4-.2-.2-.4-.6-.4-.9s.1-.7.4-.9c.5-.5,1.4-.5,1.8,0,.2.2.4.6.4.9s-.1.7-.4.9c-.2.2-.6.4-.9.4Z"/>
          <path class="cls-2" d="M16.5,26.8c-.3,0-.7-.1-.9-.4-.2-.2-.4-.6-.4-.9s.1-.7.4-.9c.5-.5,1.4-.5,1.8,0,.2.2.4.6.4.9s-.1.7-.4.9c-.2.2-.6.4-.9.4Z"/>
          <path class="cls-2" d="M14.5,29.3c-.3,0-.7-.1-.9-.4-.2-.2-.4-.6-.4-.9s.1-.7.4-.9c.5-.5,1.4-.5,1.8,0,.2.2.4.6.4.9s-.1.7-.4.9c-.2.2-.6.4-.9.4Z"/>
          <path class="cls-2" d="M11.2,28c-.3,0-.7-.1-.9-.4-.2-.2-.4-.6-.4-.9s.1-.7.4-.9c.5-.5,1.4-.5,1.8,0,.2.2.4.6.4.9s-.1.7-.4.9c-.2.2-.6.4-.9.4Z"/>
          <path class="cls-2" d="M8,29.5c-.3,0-.7-.1-.9-.4-.2-.2-.4-.6-.4-.9s.1-.7.4-.9c.5-.5,1.4-.5,1.8,0,.2.2.4.6.4.9s-.1.7-.4.9c-.2.2-.6.4-.9.4Z"/>
          <path class="cls-2" d="M7,32.8c-.3,0-.7-.1-.9-.4-.2-.2-.4-.6-.4-.9s.1-.7.4-.9c.5-.5,1.4-.5,1.8,0,.2.2.4.6.4.9s-.1.7-.4.9c-.2.2-.6.4-.9.4Z"/>
          <path class="cls-2" d="M8.5,37c-.3,0-.7-.1-.9-.4-.2-.2-.4-.6-.4-.9s.1-.7.4-.9c.5-.5,1.4-.5,1.8,0,.2.2.4.6.4.9s-.1.7-.4.9c-.2.2-.6.4-.9.4Z"/>
          <path class="cls-2" d="M11,34.5c-.3,0-.7-.1-.9-.4-.2-.2-.4-.6-.4-.9s.1-.7.4-.9c.5-.5,1.4-.5,1.8,0,.2.2.4.6.4.9s-.1.7-.4.9c-.2.2-.6.4-.9.4Z"/>
          <path class="cls-2" d="M13.7,32c-.3,0-.7-.1-.9-.4-.2-.2-.4-.6-.4-.9s.1-.7.4-.9c.5-.5,1.4-.5,1.8,0,.2.2.4.6.4.9s-.1.7-.4.9c-.2.2-.6.4-.9.4Z"/>
          <path class="cls-2" d="M17.5,34.3c-.3,0-.7-.1-.9-.4-.2-.2-.4-.6-.4-.9s.1-.7.4-.9c.5-.5,1.4-.5,1.8,0,.2.2.4.6.4.9s-.1.7-.4.9c-.2.2-.6.4-.9.4Z"/>
          <path class="cls-2" d="M14.5,36.8c-.3,0-.7-.1-.9-.4-.2-.2-.4-.6-.4-.9s.1-.7.4-.9c.5-.5,1.4-.5,1.8,0,.2.2.4.6.4.9s-.1.7-.4.9c-.2.2-.6.4-.9.4Z"/>
          <path class="cls-2" d="M11.5,39.5c-.3,0-.7-.1-.9-.4-.2-.2-.4-.6-.4-.9s.1-.7.4-.9c.5-.5,1.4-.5,1.8,0,.2.2.4.6.4.9s-.1.7-.4.9c-.2.2-.6.4-.9.4Z"/>
          <path class="cls-2" d="M8.2,41.3c-.3,0-.7-.1-.9-.4-.2-.2-.4-.6-.4-.9s.1-.7.4-.9c.5-.5,1.4-.5,1.8,0,.2.2.4.6.4.9s-.1.7-.4.9c-.2.2-.6.4-.9.4Z"/>
          <path class="cls-2" d="M8.5,37c-.3,0-.7-.1-.9-.4-.2-.2-.4-.6-.4-.9s.1-.7.4-.9c.5-.5,1.4-.5,1.8,0,.2.2.4.6.4.9s-.1.7-.4.9c-.2.2-.6.4-.9.4Z"/>
          <path class="cls-2" d="M5.2,38.5c-.3,0-.7-.1-.9-.4-.2-.2-.4-.6-.4-.9s.1-.7.4-.9c.5-.5,1.4-.5,1.8,0,.2.2.4.6.4.9s-.1.7-.4.9c-.2.2-.6.4-.9.4Z"/>
          <path class="cls-2" d="M4.2,34c-.3,0-.7-.1-.9-.4-.2-.2-.4-.6-.4-.9s.1-.7.4-.9c.5-.5,1.4-.5,1.8,0,.2.2.4.6.4.9s-.1.7-.4.9c-.2.2-.6.4-.9.4Z"/>
          <path class="cls-2" d="M4,28.8c-.3,0-.7-.1-.9-.4-.2-.2-.4-.6-.4-.9s.1-.7.4-.9c.5-.5,1.4-.5,1.8,0,.2.2.4.6.4.9s-.1.7-.4.9c-.2.2-.6.4-.9.4Z"/>
          <path class="cls-2" d="M1,30.8c-.3,0-.7-.1-.9-.4-.2-.2-.4-.6-.4-.9s.1-.7.4-.9c.5-.5,1.4-.5,1.8,0,.2.2.4.6.4.9s-.1.7-.4.9c-.2.2-.6.4-.9.4Z"/>
          <path class="cls-2" d="M.2,34.8c-.3,0-.7-.1-.9-.4-.2-.2-.4-.6-.4-.9s.1-.7.4-.9c.5-.5,1.4-.5,1.8,0,.2.2.4.6.4.9s-.1.7-.4.9c-.2.2-.6.4-.9.4Z"/>
          <path class="cls-2" d="M.2,26.3c-.3,0-.7-.1-.9-.4-.2-.2-.4-.6-.4-.9s.1-.7.4-.9c.5-.5,1.4-.5,1.8,0,.2.2.4.6.4.9s-.1.7-.4.9c-.2.2-.6.4-.9.4Z"/>
          <path class="cls-2" d="M1.5,38.3c-.3,0-.7-.1-.9-.4-.2-.2-.4-.6-.4-.9s.1-.7.4-.9c.5-.5,1.4-.5,1.8,0,.2.2.4.6.4.9s-.1.7-.4.9c-.2.2-.6.4-.9.4Z"/>
          <path class="cls-2" d="M2,42c-.3,0-.7-.1-.9-.4-.2-.2-.4-.6-.4-.9s.1-.7.4-.9c.5-.5,1.4-.5,1.8,0,.2.2.4.6.4.9s-.1.7-.4.9c-.2.2-.6.4-.9.4Z"/>
          <path class="cls-2" d="M1.2,48c-.3,0-.7-.1-.9-.4-.2-.2-.4-.6-.4-.9s.1-.7.4-.9c.5-.5,1.4-.5,1.8,0,.2.2.4.6.4.9s-.1.7-.4.9c-.2.2-.6.4-.9.4Z"/>
          <path class="cls-2" d="M2.2,51c-.3,0-.7-.1-.9-.4-.2-.2-.4-.6-.4-.9s.1-.7.4-.9c.5-.5,1.4-.5,1.8,0,.2.2.4.6.4.9s-.1.7-.4.9c-.2.2-.6.4-.9.4Z"/>
          <path class="cls-2" d="M5.7,49c-.3,0-.7-.1-.9-.4-.2-.2-.4-.6-.4-.9s.1-.7.4-.9c.5-.5,1.4-.5,1.8,0,.2.2.4.6.4.9s-.1.7-.4.9c-.2.2-.6.4-.9.4Z"/>
          <path class="cls-2" d="M4,45c-.3,0-.7-.1-.9-.4-.2-.2-.4-.6-.4-.9s.1-.7.4-.9c.5-.5,1.4-.5,1.8,0,.2.2.4.6.4.9s-.1.7-.4.9c-.2.2-.6.4-.9.4Z"/>
          <path class="cls-2" d="M8,45.5c-.3,0-.7-.1-.9-.4-.2-.2-.4-.6-.4-.9s.1-.7.4-.9c.5-.5,1.4-.5,1.8,0,.2.2.4.6.4.9s-.1.7-.4.9c-.2.2-.6.4-.9.4Z"/>
          <path class="cls-2" d="M10.5,48.5c-.3,0-.7-.1-.9-.4-.2-.2-.4-.6-.4-.9s.1-.7.4-.9c.5-.5,1.4-.5,1.8,0,.2.2.4.6.4.9s-.1.7-.4.9c-.2.2-.6.4-.9.4Z"/>
          <path class="cls-2" d="M13.5,49.5c-.3,0-.7-.1-.9-.4-.2-.2-.4-.6-.4-.9s.1-.7.4-.9c.5-.5,1.4-.5,1.8,0,.2.2.4.6.4.9s-.1.7-.4.9c-.2.2-.6.4-.9.4Z"/>
          <path class="cls-2" d="M16.2,51c-.3,0-.7-.1-.9-.4-.2-.2-.4-.6-.4-.9s.1-.7.4-.9c.5-.5,1.4-.5,1.8,0,.2.2.4.6.4.9s-.1.7-.4.9c-.2.2-.6.4-.9.4Z"/>
          <path class="cls-2" d="M11,44.3c-.3,0-.7-.1-.9-.4-.2-.2-.4-.6-.4-.9s.1-.7.4-.9c.5-.5,1.4-.5,1.8,0,.2.2.4.6.4.9s-.1.7-.4.9c-.2.2-.6.4-.9.4Z"/>
          <path class="cls-2" d="M14.5,45.5c-.3,0-.7-.1-.9-.4-.2-.2-.4-.6-.4-.9s.1-.7.4-.9c.5-.5,1.4-.5,1.8,0,.2.2.4.6.4.9s-.1.7-.4.9c-.2.2-.6.4-.9.4Z"/>
          <path class="cls-2" d="M17.7,46.5c-.3,0-.7-.1-.9-.4-.2-.2-.4-.6-.4-.9s.1-.7.4-.9c.5-.5,1.4-.5,1.8,0,.2.2.4.6.4.9s-.1.7-.4.9c-.2.2-.6.4-.9.4Z"/>
          <path class="cls-2" d="M14.7,41c-.3,0-.7-.1-.9-.4-.2-.2-.4-.6-.4-.9s.1-.7.4-.9c.5-.5,1.4-.5,1.8,0,.2.2.4.6.4.9s-.1.7-.4.9c-.2.2-.6.4-.9.4Z"/>
          <path class="cls-2" d="M18.7,42c-.3,0-.7-.1-.9-.4-.2-.2-.4-.6-.4-.9s.1-.7.4-.9c.5-.5,1.4-.5,1.8,0,.2.2.4.6.4.9s-.1.7-.4.9c-.2.2-.6.4-.9.4Z"/>
          <path class="cls-2" d="M19.5,37.8c-.3,0-.7-.1-.9-.4-.2-.2-.4-.6-.4-.9s.1-.7.4-.9c.5-.5,1.4-.5,1.8,0,.2.2.4.6.4.9s-.1.7-.4.9c-.2.2-.6.4-.9.4Z"/>
          <path class="cls-2" d="M22,40.8c-.3,0-.7-.1-.9-.4-.2-.2-.4-.6-.4-.9s.1-.7.4-.9c.5-.5,1.4-.5,1.8,0,.2.2.4.6.4.9s-.1.7-.4.9c-.2.2-.6.4-.9.4Z"/>
          <path class="cls-2" d="M24.7,38.3c-.3,0-.7-.1-.9-.4-.2-.2-.4-.6-.4-.9s.1-.7.4-.9c.5-.5,1.4-.5,1.8,0,.2.2.4.6.4.9s-.1.7-.4.9c-.2.2-.6.4-.9.4Z"/>
          <path class="cls-2" d="M21,44.8c-.3,0-.7-.1-.9-.4-.2-.2-.4-.6-.4-.9s.1-.7.4-.9c.5-.5,1.4-.5,1.8,0,.2.2.4.6.4.9s-.1.7-.4.9c-.2.2-.6.4-.9.4Z"/>
          <path class="cls-2" d="M24.5,46.8c-.3,0-.7-.1-.9-.4-.2-.2-.4-.6-.4-.9s.1-.7.4-.9c.5-.5,1.4-.5,1.8,0,.2.2.4.6.4.9s-.1.7-.4.9c-.2.2-.6.4-.9.4Z"/>
          <path class="cls-2" d="M24.5,50.8c-.3,0-.7-.1-.9-.4-.2-.2-.4-.6-.4-.9s.1-.7.4-.9c.5-.5,1.4-.5,1.8,0,.2.2.4.6.4.9s-.1.7-.4.9c-.2.2-.6.4-.9.4Z"/>
          <path class="cls-2" d="M20.5,49c-.3,0-.7-.1-.9-.4-.2-.2-.4-.6-.4-.9s.1-.7.4-.9c.5-.5,1.4-.5,1.8,0,.2.2.4.6.4.9s-.1.7-.4.9c-.2.2-.6.4-.9.4Z"/>
          <path class="cls-2" d="M28,47.8c-.3,0-.7-.1-.9-.4-.2-.2-.4-.6-.4-.9s.1-.7.4-.9c.5-.5,1.4-.5,1.8,0,.2.2.4.6.4.9s-.1.7-.4.9c-.2.2-.6.4-.9.4Z"/>
          <path class="cls-2" d="M30,44.5c-.3,0-.7-.1-.9-.4-.2-.2-.4-.6-.4-.9s.1-.7.4-.9c.5-.5,1.4-.5,1.8,0,.2.2.4.6.4.9s-.1.7-.4.9c-.2.2-.6.4-.9.4Z"/>
          <path class="cls-2" d="M28.7,40.5c-.3,0-.7-.1-.9-.4-.2-.2-.4-.6-.4-.9s.1-.7.4-.9c.5-.5,1.4-.5,1.8,0,.2.2.4.6.4.9s-.1.7-.4.9c-.2.2-.6.4-.9.4Z"/>
          <path class="cls-2" d="M28.7,36.5c-.3,0-.7-.1-.9-.4-.2-.2-.4-.6-.4-.9s.1-.7.4-.9c.5-.5,1.4-.5,1.8,0,.2.2.4.6.4.9s-.1.7-.4.9c-.2.2-.6.4-.9.4Z"/>
          <path class="cls-2" d="M25.5,34.8c-.3,0-.7-.1-.9-.4-.2-.2-.4-.6-.4-.9s.1-.7.4-.9c.5-.5,1.4-.5,1.8,0,.2.2.4.6.4.9s-.1.7-.4.9c-.2.2-.6.4-.9.4Z"/>
          <path class="cls-2" d="M22,34.8c-.3,0-.7-.1-.9-.4-.2-.2-.4-.6-.4-.9s.1-.7.4-.9c.5-.5,1.4-.5,1.8,0,.2.2.4.6.4.9s-.1.7-.4.9c-.2.2-.6.4-.9.4Z"/>
          <path class="cls-2" d="M28.5,31.3c-.3,0-.7-.1-.9-.4-.2-.2-.4-.6-.4-.9s.1-.7.4-.9c.5-.5,1.4-.5,1.8,0,.2.2.4.6.4.9s-.1.7-.4.9c-.2.2-.6.4-.9.4Z"/>
          <path class="cls-2" d="M31.5,34c-.3,0-.7-.1-.9-.4-.2-.2-.4-.6-.4-.9s.1-.7.4-.9c.5-.5,1.4-.5,1.8,0,.2.2.4.6.4.9s-.1.7-.4.9c-.2.2-.6.4-.9.4Z"/>
          <path class="cls-2" d="M34.5,34.5c-.3,0-.7-.1-.9-.4-.2-.2-.4-.6-.4-.9s.1-.7.4-.9c.5-.5,1.4-.5,1.8,0,.2.2.4.6.4.9s-.1.7-.4.9c-.2.2-.6.4-.9.4Z"/>
          <path class="cls-2" d="M32,38.5c-.3,0-.7-.1-.9-.4-.2-.2-.4-.6-.4-.9s.1-.7.4-.9c.5-.5,1.4-.5,1.8,0,.2.2.4.6.4.9s-.1.7-.4.9c-.2.2-.6.4-.9.4Z"/>
          <path class="cls-2" d="M33,42.3c-.3,0-.7-.1-.9-.4-.2-.2-.4-.6-.4-.9s.1-.7.4-.9c.5-.5,1.4-.5,1.8,0,.2.2.4.6.4.9s-.1.7-.4.9c-.2.2-.6.4-.9.4Z"/>
          <path class="cls-2" d="M30,44.5c-.3,0-.7-.1-.9-.4-.2-.2-.4-.6-.4-.9s.1-.7.4-.9c.5-.5,1.4-.5,1.8,0,.2.2.4.6.4.9s-.1.7-.4.9c-.2.2-.6.4-.9.4Z"/>
          <path class="cls-2" d="M33.2,46c-.3,0-.7-.1-.9-.4-.2-.2-.4-.6-.4-.9s.1-.7.4-.9c.5-.5,1.4-.5,1.8,0,.2.2.4.6.4.9s-.1.7-.4.9c-.2.2-.6.4-.9.4Z"/>
          <path class="cls-2" d="M36.2,50.3c-.3,0-.7-.1-.9-.4-.2-.2-.4-.6-.4-.9s.1-.7.4-.9c.5-.5,1.4-.5,1.8,0,.2.2.4.6.4.9s-.1.7-.4.9c-.2.2-.6.4-.9.4Z"/>
          <path class="cls-2" d="M31.2,49.3c-.3,0-.7-.1-.9-.4-.2-.2-.4-.6-.4-.9s.1-.7.4-.9c.5-.5,1.4-.5,1.8,0,.2.2.4.6.4.9s-.1.7-.4.9c-.2.2-.6.4-.9.4Z"/>
          <path class="cls-2" d="M37,46.3c-.3,0-.7-.1-.9-.4-.2-.2-.4-.6-.4-.9s.1-.7.4-.9c.5-.5,1.4-.5,1.8,0,.2.2.4.6.4.9s-.1.7-.4.9c-.2.2-.6.4-.9.4Z"/>
          <path class="cls-2" d="M36.7,41.8c-.3,0-.7-.1-.9-.4-.2-.2-.4-.6-.4-.9s.1-.7.4-.9c.5-.5,1.4-.5,1.8,0,.2.2.4.6.4.9s-.1.7-.4.9c-.2.2-.6.4-.9.4Z"/>
          <path class="cls-2" d="M36,38.3c-.3,0-.7-.1-.9-.4-.2-.2-.4-.6-.4-.9s.1-.7.4-.9c.5-.5,1.4-.5,1.8,0,.2.2.4.6.4.9s-.1.7-.4.9c-.2.2-.6.4-.9.4Z"/>
          <path class="cls-2" d="M31.5,34c-.3,0-.7-.1-.9-.4-.2-.2-.4-.6-.4-.9s.1-.7.4-.9c.5-.5,1.4-.5,1.8,0,.2.2.4.6.4.9s-.1.7-.4.9c-.2.2-.6.4-.9.4Z"/>
          <path class="cls-2" d="M34.5,34.5c-.3,0-.7-.1-.9-.4-.2-.2-.4-.6-.4-.9s.1-.7.4-.9c.5-.5,1.4-.5,1.8,0,.2.2.4.6.4.9s-.1.7-.4.9c-.2.2-.6.4-.9.4Z"/>
          <path class="cls-2" d="M32.2,30.8c-.3,0-.7-.1-.9-.4-.2-.2-.4-.6-.4-.9s.1-.7.4-.9c.5-.5,1.4-.5,1.8,0,.2.2.4.6.4.9s-.1.7-.4.9c-.2.2-.6.4-.9.4Z"/>
          <path class="cls-2" d="M31.7,26.8c-.3,0-.7-.1-.9-.4-.2-.2-.4-.6-.4-.9s.1-.7.4-.9c.5-.5,1.4-.5,1.8,0,.2.2.4.6.4.9s-.1.7-.4.9c-.2.2-.6.4-.9.4Z"/>
          <path class="cls-2" d="M35.5,27c-.3,0-.7-.1-.9-.4-.2-.2-.4-.6-.4-.9s.1-.7.4-.9c.5-.5,1.4-.5,1.8,0,.2.2.4.6.4.9s-.1.7-.4.9c-.2.2-.6.4-.9.4Z"/>
          <path class="cls-2" d="M36.2,31.5c-.3,0-.7-.1-.9-.4-.2-.2-.4-.6-.4-.9s.1-.7.4-.9c.5-.5,1.4-.5,1.8,0,.2.2.4.6.4.9s-.1.7-.4.9c-.2.2-.6.4-.9.4Z"/>
          <path class="cls-2" d="M38.5,34.8c-.3,0-.7-.1-.9-.4-.2-.2-.4-.6-.4-.9s.1-.7.4-.9c.5-.5,1.4-.5,1.8,0,.2.2.4.6.4.9s-.1.7-.4.9c-.2.2-.6.4-.9.4Z"/>
          <path class="cls-2" d="M41.5,37.3c-.3,0-.7-.1-.9-.4-.2-.2-.4-.6-.4-.9s.1-.7.4-.9c.5-.5,1.4-.5,1.8,0,.2.2.4.6.4.9s-.1.7-.4.9c-.2.2-.6.4-.9.4Z"/>
          <path class="cls-2" d="M41,41c-.3,0-.7-.1-.9-.4-.2-.2-.4-.6-.4-.9s.1-.7.4-.9c.5-.5,1.4-.5,1.8,0,.2.2.4.6.4.9s-.1.7-.4.9c-.2.2-.6.4-.9.4Z"/>
          <path class="cls-2" d="M40.2,44.8c-.3,0-.7-.1-.9-.4-.2-.2-.4-.6-.4-.9s.1-.7.4-.9c.5-.5,1.4-.5,1.8,0,.2.2.4.6.4.9s-.1.7-.4.9c-.2.2-.6.4-.9.4Z"/>
          <path class="cls-2" d="M42.2,48.3c-.3,0-.7-.1-.9-.4-.2-.2-.4-.6-.4-.9s.1-.7.4-.9c.5-.5,1.4-.5,1.8,0,.2.2.4.6.4.9s-.1.7-.4.9c-.2.2-.6.4-.9.4Z"/>
          <path class="cls-2" d="M45.2,45.3c-.3,0-.7-.1-.9-.4-.2-.2-.4-.6-.4-.9s.1-.7.4-.9c.5-.5,1.4-.5,1.8,0,.2.2.4.6.4.9s-.1.7-.4.9c-.2.2-.6.4-.9.4Z"/>
          <path class="cls-2" d="M45.2,49.8c-.3,0-.7-.1-.9-.4-.2-.2-.4-.6-.4-.9s.1-.7.4-.9c.5-.5,1.4-.5,1.8,0,.2.2.4.6.4.9s-.1.7-.4.9c-.2.2-.6.4-.9.4Z"/>
          <path class="cls-2" d="M45,40.5c-.3,0-.7-.1-.9-.4-.2-.2-.4-.6-.4-.9s.1-.7.4-.9c.5-.5,1.4-.5,1.8,0,.2.2.4.6.4.9s-.1.7-.4.9c-.2.2-.6.4-.9.4Z"/>
          <path class="cls-2" d="M46.2,37.5c-.3,0-.7-.1-.9-.4-.2-.2-.4-.6-.4-.9s.1-.7.4-.9c.5-.5,1.4-.5,1.8,0,.2.2.4.6.4.9s-.1.7-.4.9c-.2.2-.6.4-.9.4Z"/>
          <path class="cls-2" d="M43,33.5c-.3,0-.7-.1-.9-.4-.2-.2-.4-.6-.4-.9s.1-.7.4-.9c.5-.5,1.4-.5,1.8,0,.2.2.4.6.4.9s-.1.7-.4.9c-.2.2-.6.4-.9.4Z"/>
          <path class="cls-2" d="M41.2,31c-.3,0-.7-.1-.9-.4-.2-.2-.4-.6-.4-.9s.1-.7.4-.9c.5-.5,1.4-.5,1.8,0,.2.2.4.6.4.9s-.1.7-.4.9c-.2.2-.6.4-.9.4Z"/>
          <path class="cls-2" d="M39.2,28.8c-.3,0-.7-.1-.9-.4-.2-.2-.4-.6-.4-.9s.1-.7.4-.9c.5-.5,1.4-.5,1.8,0,.2.2.4.6.4.9s-.1.7-.4.9c-.2.2-.6.4-.9.4Z"/>
          <path class="cls-2" d="M42.5,26.8c-.3,0-.7-.1-.9-.4-.2-.2-.4-.6-.4-.9s.1-.7.4-.9c.5-.5,1.4-.5,1.8,0,.2.2.4.6.4.9s-.1.7-.4.9c-.2.2-.6.4-.9.4Z"/>
          <path class="cls-2" d="M41.5,22.8c-.3,0-.7-.1-.9-.4-.2-.2-.4-.6-.4-.9s.1-.7.4-.9c.5-.5,1.4-.5,1.8,0,.2.2.4.6.4.9s-.1.7-.4.9c-.2.2-.6.4-.9.4Z"/>
          <path class="cls-2" d="M46.2,25.5c-.3,0-.7-.1-.9-.4-.2-.2-.4-.6-.4-.9s.1-.7.4-.9c.5-.5,1.4-.5,1.8,0,.2.2.4.6.4.9s-.1.7-.4.9c-.2.2-.6.4-.9.4Z"/>
          <path class="cls-2" d="M45,29.8c-.3,0-.7-.1-.9-.4-.2-.2-.4-.6-.4-.9s.1-.7.4-.9c.5-.5,1.4-.5,1.8,0,.2.2.4.6.4.9s-.1.7-.4.9c-.2.2-.6.4-.9.4Z"/>
          <path class="cls-2" d="M47,33c-.3,0-.7-.1-.9-.4-.2-.2-.4-.6-.4-.9s.1-.7.4-.9c.5-.5,1.4-.5,1.8,0,.2.2.4.6.4.9s-.1.7-.4.9c-.2.2-.6.4-.9.4Z"/>
          <path class="cls-2" d="M50.2,35.5c-.3,0-.7-.1-.9-.4-.2-.2-.4-.6-.4-.9s.1-.7.4-.9c.5-.5,1.4-.5,1.8,0,.2.2.4.6.4.9s-.1.7-.4.9c-.2.2-.6.4-.9.4Z"/>
          <path class="cls-2" d="M50,39.5c-.3,0-.7-.1-.9-.4-.2-.2-.4-.6-.4-.9s.1-.7.4-.9c.5-.5,1.4-.5,1.8,0,.2.2.4.6.4.9s-.1.7-.4.9c-.2.2-.6.4-.9.4Z"/>
          <path class="cls-2" d="M49,43.5c-.3,0-.7-.1-.9-.4-.2-.2-.4-.6-.4-.9s.1-.7.4-.9c.5-.5,1.4-.5,1.8,0,.2.2.4.6.4.9s-.1.7-.4.9c-.2.2-.6.4-.9.4Z"/>
          <path class="cls-2" d="M52.7,42.8c-.3,0-.7-.1-.9-.4-.2-.2-.4-.6-.4-.9s.1-.7.4-.9c.5-.5,1.4-.5,1.8,0,.2.2.4.6.4.9s-.1.7-.4.9c-.2.2-.6.4-.9.4Z"/>
          <path class="cls-2" d="M52.5,47.3c-.3,0-.7-.1-.9-.4-.2-.2-.4-.6-.4-.9s.1-.7.4-.9c.5-.5,1.4-.5,1.8,0,.2.2.4.6.4.9s-.1.7-.4.9c-.2.2-.6.4-.9.4Z"/>
          <path class="cls-2" d="M55.2,50.3c-.3,0-.7-.1-.9-.4-.2-.2-.4-.6-.4-.9s.1-.7.4-.9c.5-.5,1.4-.5,1.8,0,.2.2.4.6.4.9s-.1.7-.4.9c-.2.2-.6.4-.9.4Z"/>
          <path class="cls-2" d="M56,45.5c-.3,0-.7-.1-.9-.4-.2-.2-.4-.6-.4-.9s.1-.7.4-.9c.5-.5,1.4-.5,1.8,0,.2.2.4.6.4.9s-.1.7-.4.9c-.2.2-.6.4-.9.4Z"/>
          <path class="cls-2" d="M56,41.8c-.3,0-.7-.1-.9-.4-.2-.2-.4-.6-.4-.9s.1-.7.4-.9c.5-.5,1.4-.5,1.8,0,.2.2.4.6.4.9s-.1.7-.4.9c-.2.2-.6.4-.9.4Z"/>
          <path class="cls-2" d="M55,37.8c-.3,0-.7-.1-.9-.4-.2-.2-.4-.6-.4-.9s.1-.7.4-.9c.5-.5,1.4-.5,1.8,0,.2.2.4.6.4.9s-.1.7-.4.9c-.2.2-.6.4-.9.4Z"/>
          <path class="cls-2" d="M25.7,42.8c-.3,0-.7-.1-.9-.4-.2-.2-.4-.6-.4-.9s.1-.7.4-.9c.5-.5,1.4-.5,1.8,0,.2.2.4.6.4.9s-.1.7-.4.9c-.2.2-.6.4-.9.4Z"/>
          <path class="cls-2" d="M68.7,32c-.3,0-.7-.1-.9-.4-.2-.2-.4-.6-.4-.9s.1-.7.4-.9c.5-.5,1.4-.5,1.8,0,.2.2.4.6.4.9s-.1.7-.4.9c-.2.2-.6.4-.9.4Z"/>
          <path class="cls-2" d="M69.7,27.8c-.3,0-.7-.1-.9-.4-.2-.2-.4-.6-.4-.9s.1-.7.4-.9c.5-.5,1.4-.5,1.8,0,.2.2.4.6.4.9s-.1.7-.4.9c-.2.2-.6.4-.9.4Z"/>
          <path class="cls-2" d="M66.5,26c-.3,0-.7-.1-.9-.4-.2-.2-.4-.6-.4-.9s.1-.7.4-.9c.5-.5,1.4-.5,1.8,0,.2.2.4.6.4.9s-.1.7-.4.9c-.2.2-.6.4-.9.4Z"/>
          <path class="cls-2" d="M66.7,35.3c-.3,0-.7-.1-.9-.4-.2-.2-.4-.6-.4-.9s.1-.7.4-.9c.5-.5,1.4-.5,1.8,0,.2.2.4.6.4.9s-.1.7-.4.9c-.2.2-.6.4-.9.4Z"/>
          <path class="cls-2" d="M66.5,39c-.3,0-.7-.1-.9-.4-.2-.2-.4-.6-.4-.9s.1-.7.4-.9c.5-.5,1.4-.5,1.8,0,.2.2.4.6.4.9s-.1.7-.4.9c-.2.2-.6.4-.9.4Z"/>
          <path class="cls-2" d="M70,37.8c-.3,0-.7-.1-.9-.4-.2-.2-.4-.6-.4-.9s.1-.7.4-.9c.5-.5,1.4-.5,1.8,0,.2.2.4.6.4.9s-.1.7-.4.9c-.2.2-.6.4-.9.4Z"/>
          <path class="cls-2" d="M69.2,41.8c-.3,0-.7-.1-.9-.4-.2-.2-.4-.6-.4-.9s.1-.7.4-.9c.5-.5,1.4-.5,1.8,0,.2.2.4.6.4.9s-.1.7-.4.9c-.2.2-.6.4-.9.4Z"/>
          <path class="cls-2" d="M68.5,49.3c-.3,0-.7-.1-.9-.4-.2-.2-.4-.6-.4-.9s.1-.7.4-.9c.5-.5,1.4-.5,1.8,0,.2.2.4.6.4.9s-.1.7-.4.9c-.2.2-.6.4-.9.4Z"/>
          <path class="cls-2" d="M67.5,45.8c-.3,0-.7-.1-.9-.4-.2-.2-.4-.6-.4-.9s.1-.7.4-.9c.5-.5,1.4-.5,1.8,0,.2.2.4.6.4.9s-.1.7-.4.9c-.2.2-.6.4-.9.4Z"/>
          <path class="cls-2" d="M65,29.8c-.3,0-.7-.1-.9-.4-.2-.2-.4-.6-.4-.9s.1-.7.4-.9c.5-.5,1.4-.5,1.8,0,.2.2.4.6.4.9s-.1.7-.4.9c-.2.2-.6.4-.9.4Z"/>
          <path class="cls-2" d="M61.5,30c-.3,0-.7-.1-.9-.4-.2-.2-.4-.6-.4-.9s.1-.7.4-.9c.5-.5,1.4-.5,1.8,0,.2.2.4.6.4.9s-.1.7-.4.9c-.2.2-.6.4-.9.4Z"/>
          <path class="cls-2" d="M62.5,25.3c-.3,0-.7-.1-.9-.4-.2-.2-.4-.6-.4-.9s.1-.7.4-.9c.5-.5,1.4-.5,1.8,0,.2.2.4.6.4.9s-.1.7-.4.9c-.2.2-.6.4-.9.4Z"/>
          <path class="cls-2" d="M59,26.8c-.3,0-.7-.1-.9-.4-.2-.2-.4-.6-.4-.9s.1-.7.4-.9c.5-.5,1.4-.5,1.8,0,.2.2.4.6.4.9s-.1.7-.4.9c-.2.2-.6.4-.9.4Z"/>
          <path class="cls-2" d="M55.2,25.8c-.3,0-.7-.1-.9-.4-.2-.2-.4-.6-.4-.9s.1-.7.4-.9c.5-.5,1.4-.5,1.8,0,.2.2.4.6.4.9s-.1.7-.4.9c-.2.2-.6.4-.9.4Z"/>
          <path class="cls-2" d="M51.7,27.5c-.3,0-.7-.1-.9-.4-.2-.2-.4-.6-.4-.9s.1-.7.4-.9c.5-.5,1.4-.5,1.8,0,.2.2.4.6.4.9s-.1.7-.4.9c-.2.2-.6.4-.9.4Z"/>
          <path class="cls-2" d="M48.7,28.5c-.3,0-.7-.1-.9-.4-.2-.2-.4-.6-.4-.9s.1-.7.4-.9c.5-.5,1.4-.5,1.8,0,.2.2.4.6.4.9s-.1.7-.4.9c-.2.2-.6.4-.9.4Z"/>
          <path class="cls-2" d="M51,32.3c-.3,0-.7-.1-.9-.4-.2-.2-.4-.6-.4-.9s.1-.7.4-.9c.5-.5,1.4-.5,1.8,0,.2.2.4.6.4.9s-.1.7-.4.9c-.2.2-.6.4-.9.4Z"/>
          <path class="cls-2" d="M55.2,29.8c-.3,0-.7-.1-.9-.4-.2-.2-.4-.6-.4-.9s.1-.7.4-.9c.5-.5,1.4-.5,1.8,0,.2.2.4.6.4.9s-.1.7-.4.9c-.2.2-.6.4-.9.4Z"/>
          <path class="cls-2" d="M58.2,32.8c-.3,0-.7-.1-.9-.4-.2-.2-.4-.6-.4-.9s.1-.7.4-.9c.5-.5,1.4-.5,1.8,0,.2.2.4.6.4.9s-.1.7-.4.9c-.2.2-.6.4-.9.4Z"/>
          <path class="cls-2" d="M54.5,34.3c-.3,0-.7-.1-.9-.4-.2-.2-.4-.6-.4-.9s.1-.7.4-.9c.5-.5,1.4-.5,1.8,0,.2.2.4.6.4.9s-.1.7-.4.9c-.2.2-.6.4-.9.4Z"/>
          <path class="cls-2" d="M58.5,37c-.3,0-.7-.1-.9-.4-.2-.2-.4-.6-.4-.9s.1-.7.4-.9c.5-.5,1.4-.5,1.8,0,.2.2.4.6.4.9s-.1.7-.4.9c-.2.2-.6.4-.9.4Z"/>
          <path class="cls-2" d="M63,33.5c-.3,0-.7-.1-.9-.4-.2-.2-.4-.6-.4-.9s.1-.7.4-.9c.5-.5,1.4-.5,1.8,0,.2.2.4.6.4.9s-.1.7-.4.9c-.2.2-.6.4-.9.4Z"/>
          <path class="cls-2" d="M62.7,36.8c-.3,0-.7-.1-.9-.4-.2-.2-.4-.6-.4-.9s.1-.7.4-.9c.5-.5,1.4-.5,1.8,0,.2.2.4.6.4.9s-.1.7-.4.9c-.2.2-.6.4-.9.4Z"/>
          <path class="cls-2" d="M60,41c-.3,0-.7-.1-.9-.4-.2-.2-.4-.6-.4-.9s.1-.7.4-.9c.5-.5,1.4-.5,1.8,0,.2.2.4.6.4.9s-.1.7-.4.9c-.2.2-.6.4-.9.4Z"/>
          <path class="cls-2" d="M61.2,45c-.3,0-.7-.1-.9-.4-.2-.2-.4-.6-.4-.9s.1-.7.4-.9c.5-.5,1.4-.5,1.8,0,.2.2.4.6.4.9s-.1.7-.4.9c-.2.2-.6.4-.9.4Z"/>
          <path class="cls-2" d="M56,45.5c-.3,0-.7-.1-.9-.4-.2-.2-.4-.6-.4-.9s.1-.7.4-.9c.5-.5,1.4-.5,1.8,0,.2.2.4.6.4.9s-.1.7-.4.9c-.2.2-.6.4-.9.4Z"/>
          <path class="cls-2" d="M58.7,47.8c-.3,0-.7-.1-.9-.4-.2-.2-.4-.6-.4-.9s.1-.7.4-.9c.5-.5,1.4-.5,1.8,0,.2.2.4.6.4.9s-.1.7-.4.9c-.2.2-.6.4-.9.4Z"/>
          <path class="cls-2" d="M64.2,48c-.3,0-.7-.1-.9-.4-.2-.2-.4-.6-.4-.9s.1-.7.4-.9c.5-.5,1.4-.5,1.8,0,.2.2.4.6.4.9s-.1.7-.4.9c-.2.2-.6.4-.9.4Z"/>
          <path class="cls-2" d="M64,42.3c-.3,0-.7-.1-.9-.4-.2-.2-.4-.6-.4-.9s.1-.7.4-.9c.5-.5,1.4-.5,1.8,0,.2.2.4.6.4.9s-.1.7-.4.9c-.2.2-.6.4-.9.4Z"/>
          <path class="cls-2" d="M48.5,47.8c-.3,0-.7-.1-.9-.4-.2-.2-.4-.6-.4-.9s.1-.7.4-.9c.5-.5,1.4-.5,1.8,0,.2.2.4.6.4.9s-.1.7-.4.9c-.2.2-.6.4-.9.4Z"/>
          <path class="cls-2" d="M60.2,51.5c-.3,0-.7-.1-.9-.4-.2-.2-.4-.6-.4-.9s.1-.7.4-.9c.5-.5,1.4-.5,1.8,0,.2.2.4.6.4.9s-.1.7-.4.9c-.2.2-.6.4-.9.4Z"/>
          <path class="cls-2" d="M5.2,57.5c-.3,0-.7-.1-.9-.4-.2-.2-.4-.6-.4-.9s.1-.7.4-.9c.5-.5,1.4-.5,1.8,0,.2.2.4.6.4.9s-.1.7-.4.9c-.2.2-.6.4-.9.4Z"/>
          <path class="cls-2" d="M6.2,53c-.3,0-.7-.1-.9-.4-.2-.2-.4-.6-.4-.9s.1-.7.4-.9c.5-.5,1.4-.5,1.8,0,.2.2.4.6.4.9s-.1.7-.4.9c-.2.2-.6.4-.9.4Z"/>
          <path class="cls-2" d="M9.5,51.8c-.3,0-.7-.1-.9-.4-.2-.2-.4-.6-.4-.9s.1-.7.4-.9c.5-.5,1.4-.5,1.8,0,.2.2.4.6.4.9s-.1.7-.4.9c-.2.2-.6.4-.9.4Z"/>
          <path class="cls-2" d="M8.5,55.8c-.3,0-.7-.1-.9-.4-.2-.2-.4-.6-.4-.9s.1-.7.4-.9c.5-.5,1.4-.5,1.8,0,.2.2.4.6.4.9s-.1.7-.4.9c-.2.2-.6.4-.9.4Z"/>
          <path class="cls-2" d="M12,57.8c-.3,0-.7-.1-.9-.4-.2-.2-.4-.6-.4-.9s.1-.7.4-.9c.5-.5,1.4-.5,1.8,0,.2.2.4.6.4.9s-.1.7-.4.9c-.2.2-.6.4-.9.4Z"/>
          <path class="cls-2" d="M12,61.8c-.3,0-.7-.1-.9-.4-.2-.2-.4-.6-.4-.9s.1-.7.4-.9c.5-.5,1.4-.5,1.8,0,.2.2.4.6.4.9s-.1.7-.4.9c-.2.2-.6.4-.9.4Z"/>
          <path class="cls-2" d="M8,60c-.3,0-.7-.1-.9-.4-.2-.2-.4-.6-.4-.9s.1-.7.4-.9c.5-.5,1.4-.5,1.8,0,.2.2.4.6.4.9s-.1.7-.4.9c-.2.2-.6.4-.9.4Z"/>
          <path class="cls-2" d="M15.5,58.8c-.3,0-.7-.1-.9-.4-.2-.2-.4-.6-.4-.9s.1-.7.4-.9c.5-.5,1.4-.5,1.8,0,.2.2.4.6.4.9s-.1.7-.4.9c-.2.2-.6.4-.9.4Z"/>
          <path class="cls-2" d="M15.7,61.8c-.3,0-.7-.1-.9-.4-.2-.2-.4-.6-.4-.9s.1-.7.4-.9c.5-.5,1.4-.5,1.8,0,.2.2.4.6.4.9s-.1.7-.4.9c-.2.2-.6.4-.9.4Z"/>
          <path class="cls-2" d="M17.5,55.5c-.3,0-.7-.1-.9-.4-.2-.2-.4-.6-.4-.9s.1-.7.4-.9c.5-.5,1.4-.5,1.8,0,.2.2.4.6.4.9s-.1.7-.4.9c-.2.2-.6.4-.9.4Z"/>
          <path class="cls-2" d="M20.5,53.3c-.3,0-.7-.1-.9-.4-.2-.2-.4-.6-.4-.9s.1-.7.4-.9c.5-.5,1.4-.5,1.8,0,.2.2.4.6.4.9s-.1.7-.4.9c-.2.2-.6.4-.9.4Z"/>
          <path class="cls-2" d="M17.5,55.5c-.3,0-.7-.1-.9-.4-.2-.2-.4-.6-.4-.9s.1-.7.4-.9c.5-.5,1.4-.5,1.8,0,.2.2.4.6.4.9s-.1.7-.4.9c-.2.2-.6.4-.9.4Z"/>
          <path class="cls-2" d="M20.7,57c-.3,0-.7-.1-.9-.4-.2-.2-.4-.6-.4-.9s.1-.7.4-.9c.5-.5,1.4-.5,1.8,0,.2.2.4.6.4.9s-.1.7-.4.9c-.2.2-.6.4-.9.4Z"/>
          <path class="cls-2" d="M23.7,61.3c-.3,0-.7-.1-.9-.4-.2-.2-.4-.6-.4-.9s.1-.7.4-.9c.5-.5,1.4-.5,1.8,0,.2.2.4.6.4.9s-.1.7-.4.9c-.2.2-.6.4-.9.4Z"/>
          <path class="cls-2" d="M18.7,60.3c-.3,0-.7-.1-.9-.4-.2-.2-.4-.6-.4-.9s.1-.7.4-.9c.5-.5,1.4-.5,1.8,0,.2.2.4.6.4.9s-.1.7-.4.9c-.2.2-.6.4-.9.4Z"/>
          <path class="cls-2" d="M24.5,58.3c-.3,0-.7-.1-.9-.4-.2-.2-.4-.6-.4-.9s.1-.7.4-.9c.5-.5,1.4-.5,1.8,0,.2.2.4.6.4.9s-.1.7-.4.9c-.2.2-.6.4-.9.4Z"/>
          <path class="cls-2" d="M24.2,53.8c-.3,0-.7-.1-.9-.4-.2-.2-.4-.6-.4-.9s.1-.7.4-.9c.5-.5,1.4-.5,1.8,0,.2.2.4.6.4.9s-.1.7-.4.9c-.2.2-.6.4-.9.4Z"/>
          <path class="cls-2" d="M28.5,52c-.3,0-.7-.1-.9-.4-.2-.2-.4-.6-.4-.9s.1-.7.4-.9c.5-.5,1.4-.5,1.8,0,.2.2.4.6.4.9s-.1.7-.4.9c-.2.2-.6.4-.9.4Z"/>
          <path class="cls-2" d="M27.7,55c-.3,0-.7-.1-.9-.4-.2-.2-.4-.6-.4-.9s.1-.7.4-.9c.5-.5,1.4-.5,1.8,0,.2.2.4.6.4.9s-.1.7-.4.9c-.2.2-.6.4-.9.4Z"/>
          <path class="cls-2" d="M29,58.8c-.3,0-.7-.1-.9-.4-.2-.2-.4-.6-.4-.9s.1-.7.4-.9c.5-.5,1.4-.5,1.8,0,.2.2.4.6.4.9s-.1.7-.4.9c-.2.2-.6.4-.9.4Z"/>
          <path class="cls-2" d="M32.7,56.3c-.3,0-.7-.1-.9-.4-.2-.2-.4-.6-.4-.9s.1-.7.4-.9c.5-.5,1.4-.5,1.8,0,.2.2.4.6.4.9s-.1.7-.4.9c-.2.2-.6.4-.9.4Z"/>
          <path class="cls-2" d="M32.5,61.8c-.3,0-.7-.1-.9-.4-.2-.2-.4-.6-.4-.9s.1-.7.4-.9c.5-.5,1.4-.5,1.8,0,.2.2.4.6.4.9s-.1.7-.4.9c-.2.2-.6.4-.9.4Z"/>
          <path class="cls-2" d="M33,52.8c-.3,0-.7-.1-.9-.4-.2-.2-.4-.6-.4-.9s.1-.7.4-.9c.5-.5,1.4-.5,1.8,0,.2.2.4.6.4.9s-.1.7-.4.9c-.2.2-.6.4-.9.4Z"/>
          <path class="cls-2" d="M36.5,54.5c-.3,0-.7-.1-.9-.4-.2-.2-.4-.6-.4-.9s.1-.7.4-.9c.5-.5,1.4-.5,1.8,0,.2.2.4.6.4.9s-.1.7-.4.9c-.2.2-.6.4-.9.4Z"/>
          <path class="cls-2" d="M13.2,53.8c-.3,0-.7-.1-.9-.4-.2-.2-.4-.6-.4-.9s.1-.7.4-.9c.5-.5,1.4-.5,1.8,0,.2.2.4.6.4.9s-.1.7-.4.9c-.2.2-.6.4-.9.4Z"/>
          <path class="cls-2" d="M35.5,58.5c-.3,0-.7-.1-.9-.4-.2-.2-.4-.6-.4-.9s.1-.7.4-.9c.5-.5,1.4-.5,1.8,0,.2.2.4.6.4.9s-.1.7-.4.9c-.2.2-.6.4-.9.4Z"/>
          <path class="cls-2" d="M2,64c-.3,0-.7-.1-.9-.4-.2-.2-.4-.6-.4-.9s.1-.7.4-.9c.5-.5,1.4-.5,1.8,0,.2.2.4.6.4.9s-.1.7-.4.9c-.2.2-.6.4-.9.4Z"/>
          <path class="cls-2" d="M1,68c-.3,0-.7-.1-.9-.4-.2-.2-.4-.6-.4-.9s.1-.7.4-.9c.5-.5,1.4-.5,1.8,0,.2.2.4.6.4.9s-.1.7-.4.9c-.2.2-.6.4-.9.4Z"/>
          <path class="cls-2" d="M10,67.8c-.3,0-.7-.1-.9-.4-.2-.2-.4-.6-.4-.9s.1-.7.4-.9c.5-.5,1.4-.5,1.8,0,.2.2.4.6.4.9s-.1.7-.4.9c-.2.2-.6.4-.9.4Z"/>
          <path class="cls-2" d="M8.7,63.8c-.3,0-.7-.1-.9-.4-.2-.2-.4-.6-.4-.9s.1-.7.4-.9c.5-.5,1.4-.5,1.8,0,.2.2.4.6.4.9s-.1.7-.4.9c-.2.2-.6.4-.9.4Z"/>
          <path class="cls-2" d="M13,65.5c-.3,0-.7-.1-.9-.4-.2-.2-.4-.6-.4-.9s.1-.7.4-.9c.5-.5,1.4-.5,1.8,0,.2.2.4.6.4.9s-.1.7-.4.9c-.2.2-.6.4-.9.4Z"/>
          <path class="cls-2" d="M10,67.8c-.3,0-.7-.1-.9-.4-.2-.2-.4-.6-.4-.9s.1-.7.4-.9c.5-.5,1.4-.5,1.8,0,.2.2.4.6.4.9s-.1.7-.4.9c-.2.2-.6.4-.9.4Z"/>
          <path class="cls-2" d="M16.7,65c-.3,0-.7-.1-.9-.4-.2-.2-.4-.6-.4-.9s.1-.7.4-.9c.5-.5,1.4-.5,1.8,0,.2.2.4.6.4.9s-.1.7-.4.9c-.2.2-.6.4-.9.4Z"/>
          <path class="cls-2" d="M21,64.3c-.3,0-.7-.1-.9-.4-.2-.2-.4-.6-.4-.9s.1-.7.4-.9c.5-.5,1.4-.5,1.8,0,.2.2.4.6.4.9s-.1.7-.4.9c-.2.2-.6.4-.9.4Z"/>
          <path class="cls-2" d="M20.2,67.3c-.3,0-.7-.1-.9-.4-.2-.2-.4-.6-.4-.9s.1-.7.4-.9c.5-.5,1.4-.5,1.8,0,.2.2.4.6.4.9s-.1.7-.4.9c-.2.2-.6.4-.9.4Z"/>
          <path class="cls-2" d="M25.2,68.5c-.3,0-.7-.1-.9-.4-.2-.2-.4-.6-.4-.9s.1-.7.4-.9c.5-.5,1.4-.5,1.8,0,.2.2.4.6.4.9s-.1.7-.4.9c-.2.2-.6.4-.9.4Z"/>
          <path class="cls-2" d="M25.5,65c-.3,0-.7-.1-.9-.4-.2-.2-.4-.6-.4-.9s.1-.7.4-.9c.5-.5,1.4-.5,1.8,0,.2.2.4.6.4.9s-.1.7-.4.9c-.2.2-.6.4-.9.4Z"/>
          <path class="cls-2" d="M29.5,67.5c-.3,0-.7-.1-.9-.4-.2-.2-.4-.6-.4-.9s.1-.7.4-.9c.5-.5,1.4-.5,1.8,0,.2.2.4.6.4.9s-.1.7-.4.9c-.2.2-.6.4-.9.4Z"/>
          <path class="cls-2" d="M32.7,66c-.3,0-.7-.1-.9-.4-.2-.2-.4-.6-.4-.9s.1-.7.4-.9c.5-.5,1.4-.5,1.8,0,.2.2.4.6.4.9s-.1.7-.4.9c-.2.2-.6.4-.9.4Z"/>
          <path class="cls-2" d="M5.7,66c-.3,0-.7-.1-.9-.4-.2-.2-.4-.6-.4-.9s.1-.7.4-.9c.5-.5,1.4-.5,1.8,0,.2.2.4.6.4.9s-.1.7-.4.9c-.2.2-.6.4-.9.4Z"/>
          <path class="cls-2" d="M40,51c-.3,0-.7-.1-.9-.4-.2-.2-.4-.6-.4-.9s.1-.7.4-.9c.5-.5,1.4-.5,1.8,0,.2.2.4.6.4.9s-.1.7-.4.9c-.2.2-.6.4-.9.4Z"/>
          <path class="cls-2" d="M42.5,57.3c-.3,0-.7-.1-.9-.4-.2-.2-.4-.6-.4-.9s.1-.7.4-.9c.5-.5,1.4-.5,1.8,0,.2.2.4.6.4.9s-.1.7-.4.9c-.2.2-.6.4-.9.4Z"/>
          <path class="cls-2" d="M43,53.3c-.3,0-.7-.1-.9-.4-.2-.2-.4-.6-.4-.9s.1-.7.4-.9c.5-.5,1.4-.5,1.8,0,.2.2.4.6.4.9s-.1.7-.4.9c-.2.2-.6.4-.9.4Z"/>
          <path class="cls-2" d="M47.7,52.3c-.3,0-.7-.1-.9-.4-.2-.2-.4-.6-.4-.9s.1-.7.4-.9c.5-.5,1.4-.5,1.8,0,.2.2.4.6.4.9s-.1.7-.4.9c-.2.2-.6.4-.9.4Z"/>
          <path class="cls-2" d="M48.5,57c-.3,0-.7-.1-.9-.4-.2-.2-.4-.6-.4-.9s.1-.7.4-.9c.5-.5,1.4-.5,1.8,0,.2.2.4.6.4.9s-.1.7-.4.9c-.2.2-.6.4-.9.4Z"/>
          <path class="cls-2" d="M45.5,59.8c-.3,0-.7-.1-.9-.4-.2-.2-.4-.6-.4-.9s.1-.7.4-.9c.5-.5,1.4-.5,1.8,0,.2.2.4.6.4.9s-.1.7-.4.9c-.2.2-.6.4-.9.4Z"/>
          <path class="cls-2" d="M42.2,61.5c-.3,0-.7-.1-.9-.4-.2-.2-.4-.6-.4-.9s.1-.7.4-.9c.5-.5,1.4-.5,1.8,0,.2.2.4.6.4.9s-.1.7-.4.9c-.2.2-.6.4-.9.4Z"/>
          <path class="cls-2" d="M42.5,57.3c-.3,0-.7-.1-.9-.4-.2-.2-.4-.6-.4-.9s.1-.7.4-.9c.5-.5,1.4-.5,1.8,0,.2.2.4.6.4.9s-.1.7-.4.9c-.2.2-.6.4-.9.4Z"/>
          <path class="cls-2" d="M40.2,64.8c-.3,0-.7-.1-.9-.4-.2-.2-.4-.6-.4-.9s.1-.7.4-.9c.5-.5,1.4-.5,1.8,0,.2.2.4.6.4.9s-.1.7-.4.9c-.2.2-.6.4-.9.4Z"/>
          <path class="cls-2" d="M45,64.5c-.3,0-.7-.1-.9-.4-.2-.2-.4-.6-.4-.9s.1-.7.4-.9c.5-.5,1.4-.5,1.8,0,.2.2.4.6.4.9s-.1.7-.4.9c-.2.2-.6.4-.9.4Z"/>
          <path class="cls-2" d="M48.5,65.8c-.3,0-.7-.1-.9-.4-.2-.2-.4-.6-.4-.9s.1-.7.4-.9c.5-.5,1.4-.5,1.8,0,.2.2.4.6.4.9s-.1.7-.4.9c-.2.2-.6.4-.9.4Z"/>
          <path class="cls-2" d="M48.7,61.3c-.3,0-.7-.1-.9-.4-.2-.2-.4-.6-.4-.9s.1-.7.4-.9c.5-.5,1.4-.5,1.8,0,.2.2.4.6.4.9s-.1.7-.4.9c-.2.2-.6.4-.9.4Z"/>
          <path class="cls-2" d="M1.7,59.8c-.3,0-.7-.1-.9-.4-.2-.2-.4-.6-.4-.9s.1-.7.4-.9c.5-.5,1.4-.5,1.8,0,.2.2.4.6.4.9s-.1.7-.4.9c-.2.2-.6.4-.9.4Z"/>
          <path class="cls-2" d="M2.2,55c-.3,0-.7-.1-.9-.4-.2-.2-.4-.6-.4-.9s.1-.7.4-.9c.5-.5,1.4-.5,1.8,0,.2.2.4.6.4.9s-.1.7-.4.9c-.2.2-.6.4-.9.4Z"/>
          <path class="cls-2" d="M68.5,67.8c-.3,0-.7-.1-.9-.4-.2-.2-.4-.6-.4-.9s.1-.7.4-.9c.5-.5,1.4-.5,1.8,0,.2.2.4.6.4.9s-.1.7-.4.9c-.2.2-.6.4-.9.4Z"/>
          <path class="cls-2" d="M65.2,66.3c-.3,0-.7-.1-.9-.4-.2-.2-.4-.6-.4-.9s.1-.7.4-.9c.5-.5,1.4-.5,1.8,0,.2.2.4.6.4.9s-.1.7-.4.9c-.2.2-.6.4-.9.4Z"/>
          <path class="cls-2" d="M71.2,65.3c-.3,0-.7-.1-.9-.4-.2-.2-.4-.6-.4-.9s.1-.7.4-.9c.5-.5,1.4-.5,1.8,0,.2.2.4.6.4.9s-.1.7-.4.9c-.2.2-.6.4-.9.4Z"/>
          <path class="cls-2" d="M68,52.5c-.3,0-.7-.1-.9-.4-.2-.2-.4-.6-.4-.9s.1-.7.4-.9c.5-.5,1.4-.5,1.8,0,.2.2.4.6.4.9s-.1.7-.4.9c-.2.2-.6.4-.9.4Z"/>
          <path class="cls-2" d="M67.7,57.8c-.3,0-.7-.1-.9-.4-.2-.2-.4-.6-.4-.9s.1-.7.4-.9c.5-.5,1.4-.5,1.8,0,.2.2.4.6.4.9s-.1.7-.4.9c-.2.2-.6.4-.9.4Z"/>
          <path class="cls-2" d="M68,52.5c-.3,0-.7-.1-.9-.4-.2-.2-.4-.6-.4-.9s.1-.7.4-.9c.5-.5,1.4-.5,1.8,0,.2.2.4.6.4.9s-.1.7-.4.9c-.2.2-.6.4-.9.4Z"/>
          <path class="cls-2" d="M69.5,61.5c-.3,0-.7-.1-.9-.4-.2-.2-.4-.6-.4-.9s.1-.7.4-.9c.5-.5,1.4-.5,1.8,0,.2.2.4.6.4.9s-.1.7-.4.9c-.2.2-.6.4-.9.4Z"/>
          <path class="cls-2" d="M37.7,62c-.3,0-.7-.1-.9-.4-.2-.2-.4-.6-.4-.9s.1-.7.4-.9c.5-.5,1.4-.5,1.8,0,.2.2.4.6.4.9s-.1.7-.4.9c-.2.2-.6.4-.9.4Z"/>
          <path class="cls-2" d="M36.2,65c-.3,0-.7-.1-.9-.4-.2-.2-.4-.6-.4-.9s.1-.7.4-.9c.5-.5,1.4-.5,1.8,0,.2.2.4.6.4.9s-.1.7-.4.9c-.2.2-.6.4-.9.4Z"/>
          <path class="cls-2" d="M51.5,59.3c-.3,0-.7-.1-.9-.4-.2-.2-.4-.6-.4-.9s.1-.7.4-.9c.5-.5,1.4-.5,1.8,0,.2.2.4.6.4.9s-.1.7-.4.9c-.2.2-.6.4-.9.4Z"/>
          <path class="cls-2" d="M54.5,59.8c-.3,0-.7-.1-.9-.4-.2-.2-.4-.6-.4-.9s.1-.7.4-.9c.5-.5,1.4-.5,1.8,0,.2.2.4.6.4.9s-.1.7-.4.9c-.2.2-.6.4-.9.4Z"/>
          <path class="cls-2" d="M52,63.8c-.3,0-.7-.1-.9-.4-.2-.2-.4-.6-.4-.9s.1-.7.4-.9c.5-.5,1.4-.5,1.8,0,.2.2.4.6.4.9s-.1.7-.4.9c-.2.2-.6.4-.9.4Z"/>
          <path class="cls-2" d="M56,63.5c-.3,0-.7-.1-.9-.4-.2-.2-.4-.6-.4-.9s.1-.7.4-.9c.5-.5,1.4-.5,1.8,0,.2.2.4.6.4.9s-.1.7-.4.9c-.2.2-.6.4-.9.4Z"/>
          <path class="cls-2" d="M51.5,59.3c-.3,0-.7-.1-.9-.4-.2-.2-.4-.6-.4-.9s.1-.7.4-.9c.5-.5,1.4-.5,1.8,0,.2.2.4.6.4.9s-.1.7-.4.9c-.2.2-.6.4-.9.4Z"/>
          <path class="cls-2" d="M54.5,59.8c-.3,0-.7-.1-.9-.4-.2-.2-.4-.6-.4-.9s.1-.7.4-.9c.5-.5,1.4-.5,1.8,0,.2.2.4.6.4.9s-.1.7-.4.9c-.2.2-.6.4-.9.4Z"/>
          <path class="cls-2" d="M52.2,55.3c-.3,0-.7-.1-.9-.4-.2-.2-.4-.6-.4-.9s.1-.7.4-.9c.5-.5,1.4-.5,1.8,0,.2.2.4.6.4.9s-.1.7-.4.9c-.2.2-.6.4-.9.4Z"/>
          <path class="cls-2" d="M56.2,56.8c-.3,0-.7-.1-.9-.4-.2-.2-.4-.6-.4-.9s.1-.7.4-.9c.5-.5,1.4-.5,1.8,0,.2.2.4.6.4.9s-.1.7-.4.9c-.2.2-.6.4-.9.4Z"/>
          <path class="cls-2" d="M58.5,60c-.3,0-.7-.1-.9-.4-.2-.2-.4-.6-.4-.9s.1-.7.4-.9c.5-.5,1.4-.5,1.8,0,.2.2.4.6.4.9s-.1.7-.4.9c-.2.2-.6.4-.9.4Z"/>
          <path class="cls-2" d="M60.5,62.3c-.3,0-.7-.1-.9-.4-.2-.2-.4-.6-.4-.9s.1-.7.4-.9c.5-.5,1.4-.5,1.8,0,.2.2.4.6.4.9s-.1.7-.4.9c-.2.2-.6.4-.9.4Z"/>
          <path class="cls-2" d="M61,66.3c-.3,0-.7-.1-.9-.4-.2-.2-.4-.6-.4-.9s.1-.7.4-.9c.5-.5,1.4-.5,1.8,0,.2.2.4.6.4.9s-.1.7-.4.9c-.2.2-.6.4-.9.4Z"/>
          <path class="cls-2" d="M63,58.8c-.3,0-.7-.1-.9-.4-.2-.2-.4-.6-.4-.9s.1-.7.4-.9c.5-.5,1.4-.5,1.8,0,.2.2.4.6.4.9s-.1.7-.4.9c-.2.2-.6.4-.9.4Z"/>
          <path class="cls-2" d="M61.2,56.3c-.3,0-.7-.1-.9-.4-.2-.2-.4-.6-.4-.9s.1-.7.4-.9c.5-.5,1.4-.5,1.8,0,.2.2.4.6.4.9s-.1.7-.4.9c-.2.2-.6.4-.9.4Z"/>
          <path class="cls-2" d="M57,53.3c-.3,0-.7-.1-.9-.4-.2-.2-.4-.6-.4-.9s.1-.7.4-.9c.5-.5,1.4-.5,1.8,0,.2.2.4.6.4.9s-.1.7-.4.9c-.2.2-.6.4-.9.4Z"/>
          <path class="cls-2" d="M65,55c-.3,0-.7-.1-.9-.4-.2-.2-.4-.6-.4-.9s.1-.7.4-.9c.5-.5,1.4-.5,1.8,0,.2.2.4.6.4.9s-.1.7-.4.9c-.2.2-.6.4-.9.4Z"/>
          <path class="cls-2" d="M65.2,62.3c-.3,0-.7-.1-.9-.4-.2-.2-.4-.6-.4-.9s.1-.7.4-.9c.5-.5,1.4-.5,1.8,0,.2.2.4.6.4.9s-.1.7-.4.9c-.2.2-.6.4-.9.4Z"/>
          <path class="cls-2" d="M52,51.8c-.3,0-.7-.1-.9-.4-.2-.2-.4-.6-.4-.9s.1-.7.4-.9c.5-.5,1.4-.5,1.8,0,.2.2.4.6.4.9s-.1.7-.4.9c-.2.2-.6.4-.9.4Z"/>
          <path class="cls-2" d="M56.7,67c-.3,0-.7-.1-.9-.4-.2-.2-.4-.6-.4-.9s.1-.7.4-.9c.5-.5,1.4-.5,1.8,0,.2.2.4.6.4.9s-.1.7-.4.9c-.2.2-.6.4-.9.4Z"/>
          <path class="cls-2" d="M62.7,69c-.3,0-.7-.1-.9-.4-.2-.2-.4-.6-.4-.9s.1-.7.4-.9c.5-.5,1.4-.5,1.8,0,.2.2.4.6.4.9s-.1.7-.4.9c-.2.2-.6.4-.9.4Z"/>
          <path class="cls-2" d="M63.7,51.5c-.3,0-.7-.1-.9-.4-.2-.2-.4-.6-.4-.9s.1-.7.4-.9c.5-.5,1.4-.5,1.8,0,.2.2.4.6.4.9s-.1.7-.4.9c-.2.2-.6.4-.9.4Z"/>
          <path class="cls-2" d="M8,25c-.3,0-.7-.1-.9-.4-.2-.2-.4-.6-.4-.9s.1-.7.4-.9c.5-.5,1.4-.5,1.8,0,.2.2.4.6.4.9s-.1.7-.4.9c-.2.2-.6.4-.9.4Z"/>
          <path class="cls-2" d="M4.2,61.5c-.3,0-.7-.1-.9-.4-.2-.2-.4-.6-.4-.9s.1-.7.4-.9c.5-.5,1.4-.5,1.8,0,.2.2.4.6.4.9s-.1.7-.4.9c-.2.2-.6.4-.9.4Z"/>
          <path class="cls-2" d="M28.7,62.5c-.3,0-.7-.1-.9-.4-.2-.2-.4-.6-.4-.9s.1-.7.4-.9c.5-.5,1.4-.5,1.8,0,.2.2.4.6.4.9s-.1.7-.4.9c-.2.2-.6.4-.9.4Z"/>
          <path class="cls-2" d="M39,57c-.3,0-.7-.1-.9-.4-.2-.2-.4-.6-.4-.9s.1-.7.4-.9c.5-.5,1.4-.5,1.8,0,.2.2.4.6.4.9s-.1.7-.4.9c-.2.2-.6.4-.9.4Z"/>
          <path class="cls-2" d="M45.7,55.5c-.3,0-.7-.1-.9-.4-.2-.2-.4-.6-.4-.9s.1-.7.4-.9c.5-.5,1.4-.5,1.8,0,.2.2.4.6.4.9s-.1.7-.4.9c-.2.2-.6.4-.9.4Z"/>
          <path class="cls-2" d="M39.5,71.5c-.3,0-.7-.1-.9-.4-.2-.2-.4-.6-.4-.9s.1-.7.4-.9c.5-.5,1.4-.5,1.8,0,.2.2.4.6.4.9s-.1.7-.4.9c-.2.2-.6.4-.9.4Z"/>
          <path class="cls-2" d="M10,72.8c-.3,0-.7-.1-.9-.4-.2-.2-.4-.6-.4-.9s.1-.7.4-.9c.5-.5,1.4-.5,1.8,0,.2.2.4.6.4.9s-.1.7-.4.9c-.2.2-.6.4-.9.4Z"/>
          <path class="cls-2" d="M19.7,72.5c-.3,0-.7-.1-.9-.4-.2-.2-.4-.6-.4-.9s.1-.7.4-.9c.5-.5,1.4-.5,1.8,0,.2.2.4.6.4.9s-.1.7-.4.9c-.2.2-.6.4-.9.4Z"/>
          <path class="cls-2" d="M15.5,73.3c-.3,0-.7-.1-.9-.4-.2-.2-.4-.6-.4-.9s.1-.7.4-.9c.5-.5,1.4-.5,1.8,0,.2.2.4.6.4.9s-.1.7-.4.9c-.2.2-.6.4-.9.4Z"/>
          <path class="cls-2" d="M26.2,73.3c-.3,0-.7-.1-.9-.4-.2-.2-.4-.6-.4-.9s.1-.7.4-.9c.5-.5,1.4-.5,1.8,0,.2.2.4.6.4.9s-.1.7-.4.9c-.2.2-.6.4-.9.4Z"/>
          <path class="cls-2" d="M53.5,72.3c-.3,0-.7-.1-.9-.4-.2-.2-.4-.6-.4-.9s.1-.7.4-.9c.5-.5,1.4-.5,1.8,0,.2.2.4.6.4.9s-.1.7-.4.9c-.2.2-.6.4-.9.4Z"/>
          <path class="cls-2" d="M6.2,72.8c-.3,0-.7-.1-.9-.4-.2-.2-.4-.6-.4-.9s.1-.7.4-.9c.5-.5,1.4-.5,1.8,0,.2.2.4.6.4.9s-.1.7-.4.9c-.2.2-.6.4-.9.4Z"/>
          <path class="cls-2" d="M53.5,72.3c-.3,0-.7-.1-.9-.4-.2-.2-.4-.6-.4-.9s.1-.7.4-.9c.5-.5,1.4-.5,1.8,0,.2.2.4.6.4.9s-.1.7-.4.9c-.2.2-.6.4-.9.4Z"/>
          <path class="cls-2" d="M71,9c-.3,0-.7-.1-.9-.4-.2-.2-.4-.6-.4-.9s.1-.7.4-.9c.5-.5,1.4-.5,1.8,0,.2.2.4.6.4.9s-.1.7-.4.9c-.2.2-.6.4-.9.4Z"/>
          <path class="cls-2" d="M71.2,12.3c-.3,0-.7-.1-.9-.4-.2-.2-.4-.6-.4-.9s.1-.7.4-.9c.5-.5,1.4-.5,1.8,0,.2.2.4.6.4.9s-.1.7-.4.9c-.2.2-.6.4-.9.4Z"/>
          <path class="cls-2" d="M71.5,19.5c-.3,0-.7-.1-.9-.4-.2-.2-.4-.6-.4-.9s.1-.7.4-.9c.5-.5,1.4-.5,1.8,0,.2.2.4.6.4.9s-.1.7-.4.9c-.2.2-.6.4-.9.4Z"/>
          <path class="cls-2" d="M70.7,22.8c-.3,0-.7-.1-.9-.4-.2-.2-.4-.6-.4-.9s.1-.7.4-.9c.5-.5,1.4-.5,1.8,0,.2.2.4.6.4.9s-.1.7-.4.9c-.2.2-.6.4-.9.4Z"/>
          <path class="cls-2" d="M71.2,70.8c-.3,0-.7-.1-.9-.4-.2-.2-.4-.6-.4-.9s.1-.7.4-.9c.5-.5,1.4-.5,1.8,0,.2.2.4.6.4.9s-.1.7-.4.9c-.2.2-.6.4-.9.4Z"/>
          <path class="cls-2" d="M71.7,45.3c-.3,0-.7-.1-.9-.4-.2-.2-.4-.6-.4-.9s.1-.7.4-.9c.5-.5,1.4-.5,1.8,0,.2.2.4.6.4.9s-.1.7-.4.9c-.2.2-.6.4-.9.4Z"/>
          <path class="cls-2" d="M70.7,56c-.3,0-.7-.1-.9-.4-.2-.2-.4-.6-.4-.9s.1-.7.4-.9c.5-.5,1.4-.5,1.8,0,.2.2.4.6.4.9s-.1.7-.4.9c-.2.2-.6.4-.9.4Z"/>
          <path class="cls-2" d="M71.7,52c-.3,0-.7-.1-.9-.4-.2-.2-.4-.6-.4-.9s.1-.7.4-.9c.5-.5,1.4-.5,1.8,0,.2.2.4.6.4.9s-.1.7-.4.9c-.2.2-.6.4-.9.4Z"/>
          <path class="cls-2" d="M44.7,70.5c-.3,0-.7-.1-.9-.4-.2-.2-.4-.6-.4-.9s.1-.7.4-.9c.5-.5,1.4-.5,1.8,0,.2.2.4.6.4.9s-.1.7-.4.9c-.2.2-.6.4-.9.4Z"/>
          <path class="cls-2" d="M39,68c-.3,0-.7-.1-.9-.4-.2-.2-.4-.6-.4-.9s.1-.7.4-.9c.5-.5,1.4-.5,1.8,0,.2.2.4.6.4.9s-.1.7-.4.9c-.2.2-.6.4-.9.4Z"/>
        </g>
        <g>
          <path class="cls-2" d="M-.8,65.3c-.3,0-.7-.1-.9-.4-.2-.2-.4-.6-.4-.9s.1-.7.4-.9c.5-.5,1.4-.5,1.8,0,.2.2.4.6.4.9s-.1.7-.4.9c-.2.2-.6.4-.9.4Z"/>
          <path class="cls-2" d="M-1,9c-.3,0-.7-.1-.9-.4-.2-.2-.4-.6-.4-.9s.1-.7.4-.9c.5-.5,1.4-.5,1.8,0,.2.2.4.6.4.9s-.1.7-.4.9c-.2.2-.6.4-.9.4Z"/>
          <path class="cls-2" d="M-.8,12.3c-.3,0-.7-.1-.9-.4-.2-.2-.4-.6-.4-.9s.1-.7.4-.9c.5-.5,1.4-.5,1.8,0,.2.2.4.6.4.9s-.1.7-.4.9c-.2.2-.6.4-.9.4Z"/>
          <path class="cls-2" d="M-.5,19.5c-.3,0-.7-.1-.9-.4-.2-.2-.4-.6-.4-.9s.1-.7.4-.9c.5-.5,1.4-.5,1.8,0,.2.2.4.6.4.9s-.1.7-.4.9c-.2.2-.6.4-.9.4Z"/>
          <path class="cls-2" d="M-1.3,22.8c-.3,0-.7-.1-.9-.4-.2-.2-.4-.6-.4-.9s.1-.7.4-.9c.5-.5,1.4-.5,1.8,0,.2.2.4.6.4.9s-.1.7-.4.9c-.2.2-.6.4-.9.4Z"/>
          <path class="cls-2" d="M-.8,70.8c-.3,0-.7-.1-.9-.4-.2-.2-.4-.6-.4-.9s.1-.7.4-.9c.5-.5,1.4-.5,1.8,0,.2.2.4.6.4.9s-.1.7-.4.9c-.2.2-.6.4-.9.4Z"/>
          <path class="cls-2" d="M-.3,45.3c-.3,0-.7-.1-.9-.4-.2-.2-.4-.6-.4-.9s.1-.7.4-.9c.5-.5,1.4-.5,1.8,0,.2.2.4.6.4.9s-.1.7-.4.9c-.2.2-.6.4-.9.4Z"/>
          <path class="cls-2" d="M-1.3,56c-.3,0-.7-.1-.9-.4-.2-.2-.4-.6-.4-.9s.1-.7.4-.9c.5-.5,1.4-.5,1.8,0,.2.2.4.6.4.9s-.1.7-.4.9c-.2.2-.6.4-.9.4Z"/>
          <path class="cls-2" d="M-.3,52c-.3,0-.7-.1-.9-.4-.2-.2-.4-.6-.4-.9s.1-.7.4-.9c.5-.5,1.4-.5,1.8,0,.2.2.4.6.4.9s-.1.7-.4.9c-.2.2-.6.4-.9.4Z"/>
        </g>
        <g>
          <path class="cls-2" d="M53.5.3c-.3,0-.7-.1-.9-.4-.2-.2-.4-.6-.4-.9s.1-.7.4-.9c.5-.5,1.4-.5,1.8,0,.2.2.4.6.4.9s-.1.7-.4.9c-.2.2-.6.4-.9.4Z"/>
          <path class="cls-2" d="M10,.8c-.3,0-.7-.1-.9-.4-.2-.2-.4-.6-.4-.9s.1-.7.4-.9c.5-.5,1.4-.5,1.8,0,.2.2.4.6.4.9s-.1.7-.4.9c-.2.2-.6.4-.9.4Z"/>
          <path class="cls-2" d="M19.7.5c-.3,0-.7-.1-.9-.4-.2-.2-.4-.6-.4-.9s.1-.7.4-.9c.5-.5,1.4-.5,1.8,0,.2.2.4.6.4.9s-.1.7-.4.9c-.2.2-.6.4-.9.4Z"/>
          <path class="cls-2" d="M15.5,1.3c-.3,0-.7-.1-.9-.4-.2-.2-.4-.6-.4-.9s.1-.7.4-.9c.5-.5,1.4-.5,1.8,0,.2.2.4.6.4.9s-.1.7-.4.9c-.2.2-.6.4-.9.4Z"/>
          <path class="cls-2" d="M26.2,1.3c-.3,0-.7-.1-.9-.4-.2-.2-.4-.6-.4-.9s.1-.7.4-.9c.5-.5,1.4-.5,1.8,0,.2.2.4.6.4.9s-.1.7-.4.9c-.2.2-.6.4-.9.4Z"/>
          <path class="cls-2" d="M53.5.3c-.3,0-.7-.1-.9-.4-.2-.2-.4-.6-.4-.9s.1-.7.4-.9c.5-.5,1.4-.5,1.8,0,.2.2.4.6.4.9s-.1.7-.4.9c-.2.2-.6.4-.9.4Z"/>
          <path class="cls-2" d="M6.2.8c-.3,0-.7-.1-.9-.4-.2-.2-.4-.6-.4-.9s.1-.7.4-.9c.5-.5,1.4-.5,1.8,0,.2.2.4.6.4.9s-.1.7-.4.9c-.2.2-.6.4-.9.4Z"/>
          <path class="cls-2" d="M53.5.3c-.3,0-.7-.1-.9-.4-.2-.2-.4-.6-.4-.9s.1-.7.4-.9c.5-.5,1.4-.5,1.8,0,.2.2.4.6.4.9s-.1.7-.4.9c-.2.2-.6.4-.9.4Z"/>
        </g>
      </g>
    </pattern>
  </defs>
  <!-- Generator: Adobe Illustrator 28.7.1, SVG Export Plug-In . SVG Version: 1.2.0 Build 142)  -->
  <g>
    <g id="Layer_1">
      <text class="cls-1" transform="translate(762.4 394.4)"><tspan x="0" y="0">Average Max Cross Correlation for Feature 1 and 2 with kinematics</tspan></text>
      <line class="cls-13" x1="804.7" y1="663.5" x2="1130.2" y2="663.5"/>
      <path class="cls-18" d="M899.1,663.5v-220.1h-29.6v220.1h29.6ZM1028.5,663.5v-147.9h-29.6v147.9h29.6Z"/>
      <path class="cls-9" d="M869.5,663.5v-220.1h29.6v220.1h-29.6ZM998.9,663.5v-147.9h29.6v147.9h-29.6Z"/>
      <path class="cls-6" d="M936.1,663.5v-222.9h-29.6v222.9h29.6ZM1065.5,663.5v-152.1h-29.6v152.1h29.6Z"/>
      <path class="cls-9" d="M906.5,663.5v-222.9h29.6v222.9h-29.6ZM1035.9,663.5v-152.1h29.6v152.1h-29.6Z"/>
      <path class="cls-7" d="M884.3,443.4v4.9M1013.7,515.6v.4M884.3,443.4v-4.9M1013.7,515.6v-.4"/>
      <line x1="881.3" y1="448.3" x2="887.3" y2="448.3"/>
      <line class="cls-9" x1="881.3" y1="448.3" x2="887.3" y2="448.3"/>
      <line x1="1010.7" y1="516.1" x2="1016.7" y2="516.1"/>
      <line class="cls-9" x1="1010.7" y1="516.1" x2="1016.7" y2="516.1"/>
      <line x1="881.3" y1="438.5" x2="887.3" y2="438.5"/>
      <line class="cls-9" x1="881.3" y1="438.5" x2="887.3" y2="438.5"/>
      <line x1="1010.7" y1="515.2" x2="1016.7" y2="515.2"/>
      <line class="cls-9" x1="1010.7" y1="515.2" x2="1016.7" y2="515.2"/>
      <path class="cls-7" d="M921.3,440.6v9.2M1050.7,511.4v.4M921.3,440.6v-9.2M1050.7,511.4v-.4"/>
      <line x1="918.3" y1="449.8" x2="924.3" y2="449.8"/>
      <line class="cls-9" x1="918.3" y1="449.8" x2="924.3" y2="449.8"/>
      <line x1="1047.7" y1="511.7" x2="1053.7" y2="511.7"/>
      <line class="cls-9" x1="1047.7" y1="511.7" x2="1053.7" y2="511.7"/>
      <line x1="918.3" y1="431.4" x2="924.3" y2="431.4"/>
      <line class="cls-9" x1="918.3" y1="431.4" x2="924.3" y2="431.4"/>
      <line x1="1047.7" y1="511" x2="1053.7" y2="511"/>
      <line class="cls-9" x1="1047.7" y1="511" x2="1053.7" y2="511"/>
      <path class="cls-11" d="M804.7,663.5h325.5M902.8,663.5v-3.3M1032.2,663.5v-3.3"/>
      <text class="cls-5" transform="translate(881.4 678)"><tspan x="0" y="0">Feature 1</tspan></text>
      <text class="cls-5" transform="translate(1010.9 678)"><tspan x="0" y="0">Feature </tspan></text>
      <text class="cls-5" transform="translate(1050.7 678)"><tspan x="0" y="0">2</tspan></text>
      <path class="cls-11" d="M804.7,663.5v-257.2M804.7,663.5h3.3M804.7,637.8h3.3M804.7,612.1h3.3M804.7,586.3h3.3M804.7,560.6h3.3M804.7,534.9h3.3M804.7,509.2h3.3M804.7,483.4h3.3M804.7,457.7h3.3M804.7,432h3.3M804.7,406.2h3.3M1130.2,663.5h-3.3"/>
      <text class="cls-5" transform="translate(794.8 667.6)"><tspan x="0" y="0">0</tspan></text>
      <text class="cls-5" transform="translate(786.5 641.9)"><tspan x="0" y="0">0.</tspan></text>
      <text class="cls-5" transform="translate(794 641.9)"><tspan x="0" y="0">1</tspan></text>
      <text class="cls-5" transform="translate(786.5 616.2)"><tspan x="0" y="0">0.</tspan></text>
      <text class="cls-5" transform="translate(794 616.2)"><tspan x="0" y="0">2</tspan></text>
      <text class="cls-5" transform="translate(786.5 590.5)"><tspan x="0" y="0">0.</tspan></text>
      <text class="cls-5" transform="translate(794 590.5)"><tspan x="0" y="0">3</tspan></text>
      <text class="cls-5" transform="translate(786.5 564.7)"><tspan x="0" y="0">0.</tspan></text>
      <text class="cls-5" transform="translate(794 564.7)"><tspan x="0" y="0">4</tspan></text>
      <text class="cls-5" transform="translate(786.5 539)"><tspan x="0" y="0">0.</tspan></text>
      <text class="cls-5" transform="translate(794 539)"><tspan x="0" y="0">5</tspan></text>
      <text class="cls-5" transform="translate(786.5 513.3)"><tspan x="0" y="0">0.</tspan></text>
      <text class="cls-5" transform="translate(794 513.3)"><tspan x="0" y="0">6</tspan></text>
      <text class="cls-5" transform="translate(786.5 487.5)"><tspan x="0" y="0">0.</tspan></text>
      <text class="cls-5" transform="translate(794 487.5)"><tspan x="0" y="0">7</tspan></text>
      <text class="cls-5" transform="translate(786.5 461.8)"><tspan x="0" y="0">0.</tspan></text>
      <text class="cls-5" transform="translate(794 461.8)"><tspan x="0" y="0">8</tspan></text>
      <text class="cls-5" transform="translate(786.5 436.1)"><tspan x="0" y="0">0.</tspan></text>
      <text class="cls-5" transform="translate(794 436.1)"><tspan x="0" y="0">9</tspan></text>
      <text class="cls-5" transform="translate(794.8 410.4)"><tspan x="0" y="0">1</tspan></text>
      <text class="cls-4" transform="translate(780.5 628.6) rotate(-90)"><tspan x="0" y="0">Average Max Cross Correlation Signal</tspan></text>
      <rect class="cls-15" x="1062" y="414.5" width="60" height="27"/>
      <text class="cls-3" transform="translate(1097.2 425.6)"><tspan x="0" y="0">Hand</tspan></text>
      <rect class="cls-18" x="1065" y="417.5" width="30" height="8.9"/>
      <rect class="cls-9" x="1065" y="417.5" width="30" height="8.9"/>
      <text class="cls-3" transform="translate(1097.2 437.9)"><tspan x="0" y="0">Wris</tspan></text>
      <text class="cls-3" transform="translate(1114.8 437.9)"><tspan x="0" y="0">t</tspan></text>
      <rect class="cls-6" x="1065" y="429.7" width="30" height="8.9"/>
      <rect class="cls-9" x="1065" y="429.7" width="30" height="8.9"/>
      <rect class="cls-10" x="1062" y="414.5" width="60" height="27"/>
      <polyline class="cls-14" points="1013.7 434.1 1013.7 428 938.3 428 884.3 428 884.3 434.1"/>
      <polyline class="cls-14" points="1050.7 428 1050.7 421.9 921.3 421.9 921.3 424.9"/>
      <text class="cls-17" transform="translate(976.9 417.5)"><tspan x="0" y="0">#</tspan></text>
      <text class="cls-16" transform="translate(933.6 421.9) scale(1.1 1)"><tspan x="0" y="0">*</tspan></text>
      <line class="cls-14" x1="938.3" y1="417.5" x2="938.3" y2="428"/>
    </g>
  </g>
</svg>