<?xml version="1.0" encoding="UTF-8"?>
<svg xmlns="http://www.w3.org/2000/svg" version="1.1" viewBox="0 0 1920 1080">
  <defs>
    <style>
      .cls-1, .cls-2 {
        font-size: 10px;
      }

      .cls-1, .cls-2, .cls-3, .cls-4, .cls-5 {
        font-family: ArialMT, Arial;
      }

      .cls-1, .cls-2, .cls-4 {
        fill: #4d4d4f;
      }

      .cls-6 {
        stroke: #1761b0;
      }

      .cls-6, .cls-7, .cls-8, .cls-9, .cls-10 {
        fill: none;
      }

      .cls-6, .cls-8, .cls-9 {
        stroke-linejoin: round;
      }

      .cls-6, .cls-9 {
        stroke-width: 3px;
      }

      .cls-11 {
        fill: #fff;
      }

      .cls-2 {
        letter-spacing: 12.3em;
      }

      .cls-7 {
        stroke: #000;
        stroke-dasharray: 4.8 4.8;
        stroke-linejoin: bevel;
        stroke-width: 1.5px;
      }

      .cls-3 {
        font-size: 15px;
      }

      .cls-3, .cls-5 {
        fill: #231f20;
      }

      .cls-4 {
        font-size: 11px;
      }

      .cls-8 {
        stroke-linecap: square;
      }

      .cls-8, .cls-10 {
        stroke: #262626;
        stroke-width: .5px;
      }

      .cls-9 {
        stroke: #d2292d;
      }

      .cls-5 {
        font-size: 9px;
      }

      .cls-10 {
        stroke-miterlimit: 10;
      }
    </style>
  </defs>
  <!-- Generator: Adobe Illustrator 28.7.1, SVG Export Plug-In . SVG Version: 1.2.0 Build 142)  -->
  <g>
    <g id="Layer_1">
      <g>
        <path class="cls-8" d="M536,484.8h892.8M536,484.8v-8.9M663.5,484.8v-8.9M791.1,484.8v-8.9M918.6,484.8v-8.9M1046.2,484.8v-8.9M1173.7,484.8v-8.9M1301.3,484.8v-8.9M1428.8,484.8v-8.9"/>
        <path class="cls-8" d="M536,484.8v-220.2M536,484.8h8.9M536,264.6h8.9"/>
        <text class="cls-1" transform="translate(452.8 488.7)"><tspan x="0" y="0">Closed/Supinated</tspan></text>
        <text class="cls-1" transform="translate(464.2 268.5)"><tspan x="0" y="0">Open/Pronated</tspan></text>
        <text class="cls-4" transform="translate(526.6 391.7) rotate(-90)"><tspan x="0" y="0">Amplitude</tspan></text>
        <text class="cls-3" transform="translate(858.6 254.2)"><tspan x="0" y="0" xml:space="preserve"> Feature 1: Kinematics and Neural Feature</tspan></text>
        <path class="cls-6" d="M536,484.8h27.3M564,484.8l.5-.2h0s.7-1.4.7-1.4h0s.7-3,.7-3h0s.7-4.6.7-4.6h0s.7-8.4.7-8.4h0s.7-7.9.7-7.9h0s.7-9.9.7-9.9h0s.4-2.8.4-2.8l.4,1.1h0s.1.2.1.2l.6-7h0s.7-19.7.7-19.7h0s.7-23.3.7-23.3h0s.7-16.1.7-16.1h0s.7-12.9.7-12.9h0s.7-13.1.7-13.1h0s.7-12.6.7-12.6h0s.7-16.1.7-16.1h0s.8-12.8.8-12.8h0s.7-10.2.7-10.2h0s.7-10.9.7-10.9h0s.7-10.4.7-10.4h0s.7-6.4.7-6.4h0s.7-5.3.7-5.3h0s.7-4.7.7-4.7h0s.7-1.8.7-1.8h0s.2-.2.2-.2M582.6,264.6h.1s.5,0,.5,0h.8s0,0,0,0h.7c0,0,0,0,0,0l.7,1h0s.7,1.7.7,1.7h0s0,0,0,0l.4-.4.3.7h0s.7,5.6.7,5.6h0s.7,13.4.7,13.4h0s.8,12.5.8,12.5h0s.7,10.8.7,10.8h0s.7,10.7.7,10.7h0s.7,14.2.7,14.2h0s.7,15.6.7,15.6h0s.7,12.7.7,12.7h0s.7,13.2.7,13.2h0s.7,13.2.7,13.2h0s.7,17.4.7,17.4h0s.7,12.8.7,12.8h0s.7,11.6.7,11.6h0s.7,10.7.7,10.7h0s.7,11.6.7,11.6h0s.7,10.6.7,10.6h0s.7,6.8.7,6.8h0s.7,5.8.7,5.8h0s.7,5.3.7,5.3h0s.7,2.1.7,2.1h0s.8.5.8.5h.4M603.3,484.8h.2s0,0,0,0h.3s.5,0,.5,0h37.5s0,0,0,0h.3M642.2,484.8h.3s0,0,0,0l.7-.3h0s.7-1.8.7-1.8h0s.7-3.2.7-3.2h0s.7-6.5.7-6.5h0s.7-7.7.7-7.7h0s.7-7.8.7-7.8h0s.7-10.4.7-10.4h0s.7-13.8.7-13.8h0s.7-11.4.7-11.4h0s.7-12.2.7-12.2h0s.7-12.5.7-12.5h0s.7-17.1.7-17.1h0s.7-14.6.7-14.6h0s.7-12.6.7-12.6h0s.7-14.7.7-14.7h0s.7-15.3.7-15.3h0s.7-10.9.7-10.9h0s.8-10.5.8-10.5h0s.7-12.3.7-12.3h0s.7-7.8.7-7.8h0s.7-6.2.7-6.2h0s.7-5.8.7-5.8h0s.7-3.5.7-3.5h0s.7-1.1.7-1.1h0s.7-.1.7-.1M661.4,264.6h.4s.2,0,.2,0h.4s.3,0,.3,0h0s0,0,0,0h.2M663.2,264.6h.3c0,.1,0,.1,0,.1l.7,1.3h0s.7,4.2.7,4.2h0s.7,5.2.7,5.2h0s.7,7,.7,7h0s.5,3.5.5,3.5l.2-.4h0s.3-.6.3-.6l.5,3.6h0s.7,14.7.7,14.7h0s.8,21.2.8,21.2h0s.7,11.6.7,11.6h0s.7,17.1.7,17.1h0s.7,13.5.7,13.5h0s.7,12.8.7,12.8h0s.7,16.2.7,16.2h0s.7,15.1.7,15.1h0s.7,11.9.7,11.9h0s.7,11.5.7,11.5h0s.7,11,.7,11h0s.7,12.7.7,12.7h0s.7,8,.7,8h0s.7,6.6.7,6.6h0s.7,6.5.7,6.5h0s.7,3.9.7,3.9h0s.7,1.6.7,1.6h0s.6.4.6.4M681.8,484.8h.2s.2,0,.2,0h38.2s0,0,0,0h.3s.2,0,.2,0M721.3,484.8l.7-.7h0s.8-2.1.8-2.1h0s.7-4.3.7-4.3h0s.7-7.2.7-7.2h0s.7-7.1.7-7.1h0s.7-8.3.7-8.3h0s.7-13.1.7-13.1h0s.7-11.5.7-11.5h0s.7-11.7.7-11.7h0s.7-12.1.7-12.1h0s.7-14.9.7-14.9h0s.7-16.6.7-16.6h0s.7-12.8.7-12.8h0s.7-13.2.7-13.2h0s.7-16.9.7-16.9h0s.7-12,.7-12h0s.7-10.8.7-10.8h0s.7-12.6.7-12.6h0s.8-10.1.8-10.1h0s.7-7.1.7-7.1h0s.7-5.9.7-5.9h0s.7-4.7.7-4.7h0s.7-3.6.7-3.6h0s.7-.8.7-.8h0s.1,0,.1,0M739.9,264.6h.1s0,0,0,0h.1s.6,0,.6,0h.3M741.6,264.6l.6.4h0s.7,1.6.7,1.6h0s.7,3.9.7,3.9h0s.7,6.5.7,6.5h0s.7,6.7.7,6.7h0s.7,8.1.7,8.1h0s.2.4.2.4l.5-1.1v.2c.1,0,.1,0,.1,0l.7,10.5h0s.7,21.2.7,21.2h0s.8,19.6.8,19.6h0s.7,14.5.7,14.5h0s.7,12.8.7,12.8h0s.7,13.1.7,13.1h0s.7,13.5.7,13.5h0s.7,17.1.7,17.1h0s.7,12.1.7,12.1h0s.7,11.1.7,11.1h0s.7,13.2.7,13.2h0s.7,10.2.7,10.2h0s.7,7.4.7,7.4h0s.7,7,.7,7h0s.7,6.1.7,6.1h0s.7,2.7.7,2.7h0s.7,1.3.7,1.3h0s.3.1.3.1M760,484.8h.2s0,0,0,0h0s.3,0,.3,0h.4s0,0,0,0h.2s.6,0,.6,0h37.5s0,0,0,0h0M799.7,484.8h.3c0,0,0,0,0,0l.7-1h0s.7-2.5.7-2.5h0s.8-5.9.8-5.9h0s.7-6.4.7-6.4h0s.7-7.5.7-7.5h0s.7-8.5.7-8.5h0s.7-11.6.7-11.6h0s.7-13.9.7-13.9h0s.7-11.6.7-11.6h0s.7-12.7.7-12.7h0s.7-17.5.7-17.5h0s.7-13.4.7-13.4h0s.7-14.1.7-14.1h0s.4-3.6.4-3.6l.4,1.4h0s.1.3.1.3l.6-9.1h0s.7-21.6.7-21.6h0s.7-19.8.7-19.8h0s.7-9.4.7-9.4h0s.7-11.4.7-11.4h0s.7-6.9.7-6.9h0s.8-5.6.8-5.6h0s.7-5,.7-5h0s.7-2.5.7-2.5h0s.5-.4.5-.4M818.3,264.6h.1s.4,0,.4,0h.2s.5,0,.5,0h0s.7.1.7.1h0l.7.4h0s.7,2.1.7,2.1h0s.7,5.3.7,5.3h0s.7,5.8.7,5.8h0s.7,6.8.7,6.8h0s.7,10.6.7,10.6h0s.7,11.6.7,11.6h0s.7,10.5.7,10.5h0s.7,12.7.7,12.7h0s.7,16.5.7,16.5h0s.8,12.8.8,12.8h0s.7,13.2.7,13.2h0s.7,12.9.7,12.9h0s.7,16.7.7,16.7h0s.7,14.1.7,14.1h0s.7,11.4.7,11.4h0s.7,12.5.7,12.5h0s.7,12.8.7,12.8h0s.7,8.4.7,8.4h0s.7,7.3.7,7.3h0s.2.3.2.3l.5-.8h.1c0,.1,0,.1,0,.1l.7,7.2h0s.7,6.8.7,6.8h0s.6,2,.6,2M838.5,484.8h0s.4,0,.4,0M839,484.8h.4s.3,0,.3,0h38.3M878.8,484.8l.7-1.4h0s.7-3.6.7-3.6h0s.6-2.2.6-2.2l.2.2h0s.3.4.3.4l.4-1.9h0s.7-9.5.7-9.5h0s.7-16.9.7-16.9h0s.7-13.8.7-13.8h0s.7-11.5.7-11.5h0s.7-12.1.7-12.1h0s.7-12.3.7-12.3h0s.7-15.8.7-15.8h0s.7-16,.7-16h0s.7-12.6.7-12.6h0s.7-13.6.7-13.6h0s.7-16.4.7-16.4h0s.7-11.3.7-11.3h0s.7-10.4.7-10.4h0s.7-12.3.7-12.3h0s.7-8.9.7-8.9h0s.7-6.5.7-6.5h0s.7-5.2.7-5.2h0s.8-3.9.8-3.9h0s.7-2.5.7-2.5h0s.7-.2.7-.2h.1M897.1,264.6h.4s0,0,0,0h.6s.2,0,.2,0h.1s.2,0,.2,0M899,264.6h0s0,0,0,0l.7.9h0s.7,3.5.7,3.5h0s.7,5.2.7,5.2h0s.7,5.9.7,5.9h0s.7,8.1.7,8.1h0s.7,11.8.7,11.8h0s.7,10.1.7,10.1h0s.7,11.1.7,11.1h0s.7,11.6.7,11.6h0s.7,16.2.7,16.2h0s.7,14.7.7,14.7h0s.7,12.7.7,12.7h0s.8,14.9.8,14.9h0s.7,16.6.7,16.6h0s.7,12,.7,12h0s.7,11.7.7,11.7h0s.7,11.3.7,11.3h0s.2,1.2.2,1.2l.5-1.3h0s0,0,0,0l.7,9.9h0s.7,15.1.7,15.1h0s.7,10.4.7,10.4h0s.7,4.3.7,4.3h0s.7,1.9.7,1.9h0s.7.6.7.6M917.5,484.8h.2s0,0,0,0h424.5"/>
        <path class="cls-9" d="M536,484.8h444.7s0,0,0,0h.5s.2,0,.2,0M981.7,484.8l.6-.5h0s.7-1.3.7-1.3h0s0,0,0,0l.5.4.3-.5h0s.7-4.7.7-4.7h0s.7-12.2.7-12.2h0s.7-11.9.7-11.9h0s.7-10.4.7-10.4h0s.7-10.3.7-10.3h0s.8-14.4.8-14.4h0s.7-11.1.7-11.1h0c0,0,0,0,0,0l.4,1.5.3-2.3h0s.7-14.7.7-14.7h0s.7-26.9.7-26.9h0s.7-17.8.7-17.8h0s.7-13,.7-13h0s.7-11.6.7-11.6h0s.7-13.6.7-13.6h0s.7-12.1.7-12.1h0s.7-8.6.7-8.6h0s.7-7.6.7-7.6h0s.7-6.4.7-6.4h0s.7-6.2.7-6.2h0s.7-2.8.7-2.8h0s.7-1.1.7-1.1h0s.4-.1.4-.1M1000.3,264.6h.2s.5,0,.5,0h.2M1002,264.6l.5.4h0s.7,2,.7,2h0s.7,3.5.7,3.5h0s.7,5,.7,5h0s.7,6.3.7,6.3h0s.7,10.7.7,10.7h0s.7,10,.7,10h0s.7,10,.7,10h0s.7,13.8.7,13.8h0s.7,15,.7,15h0s.7,12.4.7,12.4h0s.7,13.7.7,13.7h0s.7,17.7.7,17.7h0s.7,13,.7,13h0s.7,12.7.7,12.7h0s.7,11.9.7,11.9h0s.8,14.3.8,14.3h0s.7,12.2.7,12.2h0s.7,8.8.7,8.8h0s.7,8.6.7,8.6h0s.7,8.5.7,8.5h0s.7,4.6.7,4.6h0s.7,3.2.7,3.2h0s.7,1.8.7,1.8h0s.3.2.3.2M1020.6,484.8h.1s.5,0,.5,0h38.2s0,0,0,0h.2M1060.2,484.8h0s0,0,0,0l.7-.7h0s.7-3.4.7-3.4h0s.7-4.6.7-4.6h0s.7-5.6.7-5.6h0s.7-8.7.7-8.7h0s.7-10.9.7-10.9h0s.7-9.8.7-9.8h0s.7-11,.7-11h0s.7-11.7.7-11.7h0s.8-16.8.8-16.8h0s.7-13.5.7-13.5h0s.7-12.7.7-12.7h0s.7-16.2.7-16.2h0s.7-15.5.7-15.5h0s.7-12.1.7-12.1h0s.7-11.8.7-11.8h0s.7-11.3.7-11.3h0s.7-13.3.7-13.3h0s.7-8.6.7-8.6h0s.7-7.1.7-7.1h0s.7-7.2.7-7.2h0s.7-4.7.7-4.7h0s.7-2.3.7-2.3h0s.7-.8.7-.8M1078.7,264.6h.1s.2,0,.2,0h.4s.4,0,.4,0h.8c0,.1,0,.1,0,.1h.4s.3.2.3.2h0s.7,2.8.7,2.8h0s.7,4,.7,4h0s.7,5.2.7,5.2h0s.7,8.4.7,8.4h0s.7,10.2.7,10.2h0s.7,9.4.7,9.4h0s.7,11.2.7,11.2h0s.7,15.7.7,15.7h0s.7,12.4.7,12.4h0s.7,12.6.7,12.6h0s.7,17.1.7,17.1h0s.7,14.7.7,14.7h0s.7,12.7.7,12.7h0s.7,12.4.7,12.4h0s.7,13.1.7,13.1h0s.7,14.6.7,14.6h0s.8,9.8.8,9.8h0s.7,8.9.7,8.9h0s.7,9.9.7,9.9h0s.7,6.3.7,6.3h0s.7,4.3.7,4.3h0s.7,3,.7,3h0s.7,1.2.7,1.2M1098.9,484.8h.1s.3,0,.3,0h0s.6,0,.6,0h37.9M1138.3,484.8l.7-.5h0s.5-.5.5-.5h.2c0,0,0,0,0,0h.3c0,.1.5-.5.5-.5h0s.7-4.2.7-4.2h0s.7-10.7.7-10.7h0s.7-7.5.7-7.5h0s.2-.5.2-.5l.5,1.1h0c0-.1,0-.1,0-.1l.7-9.7h0s.7-20.3.7-20.3h0s.7-19.4.7-19.4h0s.7-14.4.7-14.4h0s.8-12.7.8-12.7h0s.7-13.1.7-13.1h0s.7-13.5.7-13.5h0s.7-17.3.7-17.3h0s.7-12.4.7-12.4h0s.7-11.4.7-11.4h0s.7-13.6.7-13.6h0s.7-10.9.7-10.9h0s.7-7.9.7-7.9h0s.7-7.6.7-7.6h0s.7-6.9.7-6.9h0s.7-3.4.7-3.4h0s.7-2,.7-2h0s.7-.4.7-.4h0s.3,0,.3,0M1157.5,264.6h.3s0,0,0,0h.2s.6,0,.6,0h.3s.1,0,.1,0M1159.3,264.6l.7,1.1h0s.8,3,.8,3h0s.7,4.2.7,4.2h0s.7,6.1.7,6.1h0s.7,9.9.7,9.9h0s.7,8.8.7,8.8h0s.7,9.7.7,9.7h0s.7,15.4.7,15.4h0s.4,5,.4,5l.3-1h0s.2-.5.2-.5l.6,5.3h0s.7,19,.7,19h0s.7,25,.7,25h0s.7,16.3.7,16.3h0s.7,12.6.7,12.6h0s.7,12.3.7,12.3h0s.7,15.6.7,15.6h0s.7,11.5.7,11.5h0s.7,9.6.7,9.6h0s.7,8.5.7,8.5h0s.8,8.3.8,8.3h0s.7,7.3.7,7.3h0s.7,3.8.7,3.8h0s.7,2.4.7,2.4h0s.7.9.7.9h0s.2,0,.2,0M1177.9,484.8h.1s0,0,0,0h.1s.6,0,.6,0h38.1M1217.6,484.8h.1c0-.1,0-.1,0-.1l.7-2.5h0s.7-3.6.7-3.6h0s.7-5.1.7-5.1h0s.7-7.2.7-7.2h0s.5-2.7.5-2.7l.3.7h0s.2.4.2.4l.6-4.6h0s.7-15.9.7-15.9h0s.7-20.3.7-20.3h0s.7-11.7.7-11.7h0s.7-17.2.7-17.2h0s.7-13.2.7-13.2h0s.7-12.8.7-12.8h0s.8-16.7.8-16.7h0s.7-14.5.7-14.5h0s.7-11.7.7-11.7h0s.7-12.7.7-12.7h0s.7-13.5.7-13.5h0s.7-8.9.7-8.9h0s.7-7.9.7-7.9h0s.2-.4.2-.4l.5.9h0c0,0,0,0,0,0l.7-7.6h0s.7-8,.7-8h0s.7-3,.7-3h.3s.2,0,.2,0M1236,264.6h.2s.3,0,.3,0h.5M1237.8,264.6h.2c0,.1,0,.2,0,.2l.7,1.7h0s.7,3.2.7,3.2h0s.8,4.7.8,4.7h0s.7,5.9.7,5.9h0s.7,9.7.7,9.7h0s.7,10.5.7,10.5h0s.7,10.6.7,10.6h0s.7,7.9.7,7.9h0c0,0,0,0,0,0l.4-1.4.3,2.5h0s.7,17.1.7,17.1h0s.7,26.1.7,26.1h0s.7,18.4.7,18.4h0s.7,13.7.7,13.7h0s.7,12.3.7,12.3h0s.7,15.5.7,15.5h0s.6,9.2.6,9.2v-.2c.1,0,.1,0,.1,0l.4-1.3.4,2.7h0s.7,12.9.7,12.9h0s.7,18.3.7,18.3h0s.7,8.9.7,8.9h0s.8,5.2.8,5.2h0s.7,3.6.7,3.6h0s.7,2.1.7,2.1h0s.5.5.5.5M1256.3,484.8h0s.3,0,.3,0h39.2M1296.7,484.8l.6-.4h0s.7-4.7.7-4.7h0s.7-8.1.7-8.1h0s.7-6.6.7-6.6h0s.7-8.4.7-8.4h0s.7-12.9.7-12.9h0s.7-10.8.7-10.8h0s.7-11.2.7-11.2h0s.7-15.8.7-15.8h0s.7-14.7.7-14.7h0s.7-12.6.7-12.6h0s.7-14.8.7-14.8h0s.7-16.8.7-16.8h0s.8-12.3.8-12.3h0s.7-12,.7-12h0s.2-.7.2-.7l.5,1.4v-.2c0,0,0,0,0,0l.7-12.8h0s.7-18.7.7-18.7h0s.7-11.2.7-11.2h0s.7-6.5.7-6.5h0s.7-5.7.7-5.7h0s.7-2.6.7-2.6h0s.7-1.2.7-1.2M1314.4,264.6h.1s0,0,0,0h.6s.2,0,.2,0h.8c0,0,0,0,0,0h.2s.5,0,.5,0h.4c0,0,.4,0,.4,0h0s.7,4.2.7,4.2h0s.7,6.9.7,6.9h0s.7,7,.7,7h0s.8,10.6.8,10.6h0s.7,9.3.7,9.3h0s.7,10.5.7,10.5h0s.7,11.1.7,11.1h0s.7,15.9.7,15.9h0s.7,14.2.7,14.2h0s.7,13.8.7,13.8h0s.6,7.4.6,7.4l.2-.4h0s.3-1.3.3-1.3l.4,4.6h0s.7,20.1.7,20.1h0s.7,25.1.7,25.1h0s.7,15,.7,15h0s.7,10.4.7,10.4h0s.7,9,.7,9h0s.7,9.8.7,9.8h0s.7,7.4.7,7.4h0s.7,4.5.7,4.5h0s.8,3.2.8,3.2h0s.7,1.7.7,1.7h0s.7.3.7.3h.1M1335.1,484.8h.4s0,0,0,0h0s.7,0,.7,0h6"/>
        <polyline class="cls-7" points="536 484.8 536.4 470.9 536.4 470.9 536.4 470.9 536.6 470 536.7 470 536.8 470 536.9 470.9 537.1 469.7 537.1 469.7 537.1 469.7 537.3 469.4 537.5 469.4 537.5 469.4 537.6 471.8 537.9 471.8 537.9 471.8 538.2 472.6 538.2 471.8 538.3 471.8 538.6 471.8 538.6 471.8 538.8 473.5 539 472.6 539 472.6 539.2 474.7 539.4 474.7 539.4 474.7 539.6 477.1 539.7 477.1 539.8 477.1 540 474.7 540.1 474.7 540.1 474.7 540.3 474.1 540.5 475.9 540.5 475.9 540.5 475.9 540.8 477.7 540.9 477.7 540.9 477.7 541.2 477.7 541.3 477.7 541.5 479.2 541.6 479.2 541.6 479.2 542 479.2 542 479.2 542.4 479.2 542.4 479.2 542.5 480.1 542.7 480.1 542.8 480.1 543.1 479.2 543.1 479.2 543.1 479.2 543.1 478.3 543.5 478.3 543.5 478.3 543.9 478.3 543.9 478.3 544.1 478.9 544.2 478.9 544.3 478.9 544.3 479.5 544.4 478.6 544.6 479.2 544.6 479.2 544.9 476.2 545 476.2 545 476.2 545.3 475.3 545.4 475.3 545.4 475.3 545.5 474.1 545.7 474.1 545.7 474.1 546.1 474.1 546.1 474.1 546.5 474.1 546.5 474.1 546.8 473.2 546.9 473.2 546.9 473.2 547.2 473.2 547.2 473.2 547.3 472.3 547.4 474.1 547.6 472.3 547.6 472.3 547.7 473.2 548 473.2 548 473.2 548.4 473.2 548.4 473.2 548.6 475 548.7 473.8 548.7 473.8 549.1 477.7 549.1 477.7 549.1 477.7 549.5 477.7 549.5 477.7 549.7 479.8 549.9 479.8 549.9 479.8 550.2 479.8 550.3 479.8 550.6 478.3 550.6 478.3 550.6 478.3 551 478.3 551 478.3 551 479.2 551.4 478.6 551.4 478.6 551.7 480.4 551.7 480.4 551.8 480.4 551.8 481.2 552.1 480.6 552.1 480.6 552.5 478.9 552.5 478.9 552.5 478.9 552.9 478.9 552.9 478.9 552.9 480.4 553.2 480.4 553.3 480.4 553.3 479.5 553.6 479.5 553.6 479.5 553.9 472.6 554 472.6 554 472.6 554.3 471.2 554.4 471.2 554.4 471.2 554.7 471.8 554.7 471.8 554.8 471.8 554.8 472.6 555.1 472.6 555.1 472.6 555.5 473.2 555.5 473.2 555.5 473.2 555.9 473.2 555.9 473.2 556.2 473.8 556.2 473.8 556.3 473.8 556.6 473.8 556.6 473.8 556.7 475.6 557 475.6 557 475.6 557.4 475.6 557.4 475.6 557.6 476.5 557.7 475.9 557.8 475.9 558 472.9 558.1 479.8 558.1 479.8 558.1 479.8 558.4 480.4 558.5 480.4 558.5 480.4 558.6 481.2 558.9 481.2 558.9 481.2 559.1 478.3 559.2 478.3 559.2 478.3 559.6 478.3 559.6 478.3 560 478.3 560 478.3 560.4 478.3 560.4 478.3 560.7 478.3 560.7 478.3 561.1 477.7 561.1 477.7 561.1 477.7 561.5 477.7 561.5 477.7 561.9 477.7 561.9 477.7 562.1 479.8 562.2 479.8 562.2 479.8 562.3 481.2 562.6 480.4 562.6 480.4 563 480.4 563 480.4 563.3 480.1 563.3 482.4 563.4 482.4 563.4 482.4 563.7 482.4 563.8 482.4 564.1 481.2 564.1 481.2 564.1 481.2 564.5 481.2 564.5 481.2 564.8 479.2 564.9 479.2 564.9 479.2 565.2 479.2 565.3 479.2 565.3 479.8 565.6 479.8 565.6 479.8 566 479.8 566 479.8 566.4 479.8 566.4 479.8 566.6 478.3 566.7 479.2 566.8 479.2 567.1 479.2 567.1 479.2 567.5 479.2 567.5 479.2 567.6 480.1 567.9 480.1 567.9 480.1 568.1 480.9 568.2 480.9 568.3 480.9 568.4 479.2 568.6 479.2 568.6 479.2 568.9 477.7 569 477.7 569 477.7 569 479.8 569.4 479.8 569.4 479.8 569.6 474.7 569.7 474.7 569.8 474.7 570.1 474.7 570.1 474.7 570.5 474.7 570.5 474.7 570.9 474.7 570.9 474.7 570.9 476.2 571 473.8 571.2 473.8 571.2 473.8 571.6 467 571.6 467 571.6 467 571.8 464 572 464 572 464 572.4 464 572.4 464 572.6 462.9 572.6 464.9 572.7 464.9 572.7 464.9 573.1 264.6 573.1 264.6 573.1 264.6 573.5 264.6 573.5 264.6 573.9 264.6 573.9 264.6 574.2 264.6 574.2 264.6 574.6 264.6 574.6 264.6 575 264.6 575 264.6 575.4 264.6 575.4 264.6 575.7 264.6 575.7 264.6 576.1 264.6 576.1 264.6 576.5 264.6 576.5 264.6 576.9 264.6 576.9 264.6 577.2 264.6 577.3 264.6 577.6 264.6 577.6 264.6 578 264.6 578 264.6 578.4 264.6 578.4 264.6 578.8 264.6 578.8 264.6 579.1 264.6 579.1 264.6 579.5 264.6 579.5 264.6 579.9 264.6 579.9 264.6 580.2 264.6 580.3 264.6 580.6 264.6 580.6 264.6 581 264.6 581 264.6 581.4 264.6 581.4 264.6 581.7 264.6 581.8 264.6 582.1 264.6 582.1 264.6 582.5 264.6 582.5 264.6 582.9 264.6 582.9 264.6 583.2 264.6 583.3 264.6 583.6 264.6 583.6 264.6 584 264.6 584 264.6 584.4 460.8 584.4 460.8 584.4 460.8 584.4 461.1 584.6 459.9 584.7 459.9 584.8 459.9 585 460.8 585.1 460.8 585.1 460.8 585.5 460.8 585.5 460.8 585.7 472.6 585.9 472.6 585.9 472.6 586.2 473.5 586.2 473.8 586.3 474.1 586.6 474.1 586.6 474.1 586.6 475.6 587 475.6 587 475.6 587.2 483.6 587.4 483.6 587.4 483.6 587.6 482.1 587.7 482.1 587.8 482.1 588 480.6 588.1 480.6 588.1 480.6 588.5 479.5 588.5 479.5 588.5 479.5 588.7 478 588.9 478 588.9 478 588.9 479.2 589.2 479.2 589.3 479.2 589.5 475.6 589.6 475.6 589.6 475.6 590 475.6 590 475.6 590.4 475.6 590.4 475.6 590.5 472.3 590.8 472.3 590.8 472.3 590.8 470.9 591.1 470.9 591.1 470.9 591.5 470.9 591.5 470.9 591.6 469.1 591.9 470.6 591.9 470.6 592.2 472 592.2 472 592.3 472 592.6 472 592.6 472 593 473.5 593 473.5 593 473.5 593.3 472 593.4 472 593.4 472 593.7 475.6 593.8 475.6 593.8 475.6 594.1 475.6 594.1 475.6 594.5 475.6 594.5 475.6 594.7 478.9 594.9 478.9 594.9 478.9 595.1 480.4 595.1 477.7 595.2 477.7 595.3 477.7 595.6 477.7 595.6 477.7 595.9 479.5 596 479.5 596 479.5 596.2 478 596.4 478 596.4 478 596.7 478 596.8 478 597 479.2 597.1 479.2 597.1 479.2 597.2 477.7 597.5 478.3 597.5 478.3 597.5 479.2 597.9 479.2 597.9 479.2 598 478.9 598.2 478.9 598.2 478.9 598.6 478.9 598.6 478.9 599 478.9 599 478.9 599.1 478.3 599.4 480.9 599.4 480.9 599.4 480.9 599.7 480.9 599.8 480.9 600.1 480.9 600.1 480.9 600.4 482.4 600.5 482.4 600.5 482.4 600.9 482.4 600.9 482.4 601.1 481.2 601.2 481.2 601.2 481.2 601.5 482.7 601.6 482.7 601.6 482.7 601.7 482.1 602 482.1 602 482.1 602.3 482.4 602.4 482.4 602.4 482.4 602.8 482.4 602.8 482.4 603.1 482.4 603.1 482.4 603.3 482.1 603.4 482.7 603.5 482.7 603.5 482.7 603.8 481.5 603.9 481.5 603.9 481.5 604.2 479.8 604.2 479.8 604.3 479.8 604.6 479.8 604.6 479.8 605 479.8 605 479.8 605.1 478.6 605.4 479.8 605.4 479.8 605.7 476.8 605.8 476.8 605.8 476.8 605.9 477.4 606.1 477.4 606.1 477.4 606.5 477.4 606.5 477.4 606.9 477.4 606.9 477.4 607.2 477.4 607.3 477.4 607.5 477.7 607.6 477.7 607.6 477.7 607.8 476.8 608 476.8 608 476.8 608.2 479.5 608.4 479.5 608.4 479.5 608.4 479.8 608.7 479.8 608.8 479.8 609 478.9 609.1 478.9 609.1 478.9 609.2 476.5 609.5 477.7 609.5 477.7 609.7 478.6 609.9 478.6 609.9 478.6 609.9 480.6 610.2 480.6 610.3 480.6 610.6 480.6 610.6 480.6 611 480.6 611 480.6 611 480.1 611.4 480.1 611.4 480.1 611.7 480.1 611.8 480.1 612.1 478.3 612.1 479.2 612.1 479.2 612.4 478.9 612.5 478.9 612.5 478.9 612.8 475.6 612.9 475.6 612.9 475.6 613.1 475 613.2 475.9 613.2 475.9 613.2 475.9 613.4 474.7 613.4 477.1 613.6 477.1 613.6 477.1 614 477.1 614 477.1 614.4 477.1 614.4 477.1 614.7 476.5 614.7 476.5 614.8 476.5 615.1 476.5 615.1 476.5 615.3 477.1 615.5 477.1 615.5 477.1 615.9 477.1 615.9 477.1 616 476.5 616.2 476.8 616.3 476.8 616.3 478.3 616.6 478.3 616.6 478.3 616.7 476.8 616.9 479.5 617 479.5 617 479.5 617.3 480.6 617.4 480.6 617.4 480.6 617.6 481.8 617.8 481.8 617.8 481.8 618.1 480.9 618.1 480.9 618.1 480.9 618.5 480.9 618.5 480.9 618.6 480.6 618.9 480.6 618.9 480.6 619 481.2 619.2 481.2 619.3 481.2 619.4 480.1 619.6 480.1 619.6 480.1 620 480.1 620 480.1 620.3 480.6 620.4 480.6 620.4 480.6 620.7 478.9 620.7 478.9 620.8 478.9 621 480.6 621.1 480.6 621.1 480.6 621.3 480.1 621.5 480.1 621.5 480.1 621.8 479.8 621.9 479.8 621.9 479.8 622.2 479.5 622.2 479.5 622.3 479.5 622.3 480.4 622.6 478.9 622.6 478.9 622.6 478.9 622.8 479.2 623 479.2 623 479.2 623.3 478.9 623.4 478.9 623.4 478.9 623.6 479.8 623.6 478.6 623.7 478.9 623.8 478.9 624.1 478.9 624.1 478.9 624.2 477.4 624.5 477.4 624.5 477.4 624.7 478 624.9 478 624.9 478 625 479.2 625.2 479.2 625.2 479.2 625.5 477.4 625.6 477.7 625.6 477.7 626 477.7 626 477.7 626.1 478 626.4 478 626.4 478 626.4 477.1 626.7 477.4 626.8 477.4 626.9 478.9 627.1 478.3 627.1 478.3 627.5 478.3 627.5 478.3 627.9 479.8 627.9 479.8 627.9 479.8 628.2 479.5 628.2 479.5 628.2 479.5 628.5 480.9 628.6 480.9 628.6 480.9 629 480.9 629 480.9 629.4 480.9 629.4 480.9 629.5 479.5 629.8 480.6 629.8 480.6 629.8 481.5 630.1 481.5 630.1 481.5 630.5 481.5 630.5 481.5 630.7 482.4 630.9 482.4 630.9 482.4 631.2 482.4 631.3 482.4 631.5 481.2 631.6 481.2 631.6 481.2 632 481.2 632 481.2 632.4 481.2 632.4 481.2 632.5 481.5 632.8 481.5 632.8 481.5 633 480.4 633.1 480.4 633.1 480.4 633.4 478.3 633.5 478.3 633.5 478.3 633.8 479.8 633.9 479.8 633.9 479.8 634.1 479.2 634.2 479.2 634.3 479.2 634.5 478.3 634.6 478.3 634.6 478.3 635 478.3 635 478.3 635.4 478.3 635.4 478.3 635.6 479.2 635.7 479.2 635.8 479.2 635.8 480.1 636.1 480.1 636.1 480.1 636.5 478.9 636.5 478.9 636.5 478.9 636.9 478.6 636.9 478.6 636.9 478.6 637.2 479.8 637.2 479.8 637.3 479.8 637.5 480.6 637.6 480.6 637.6 480.6 637.7 481.8 638 481.8 638 481.8 638.3 482.4 638.4 482.4 638.4 482.4 638.7 482.4 638.8 482.4 638.8 483.3 639.1 483.3 639.1 483.3 639.5 483.3 639.5 483.3 639.8 480.6 639.9 480.6 639.9 480.6 639.9 479.5 640.2 479.5 640.2 479.5 640.6 476.2 640.6 476.2 640.6 476.2 640.7 477.4 641 477.4 641 477.4 641.1 477.7 641.4 477.7 641.4 477.7 641.5 475 641.7 475 641.8 475 642.1 475 642.1 475 642.5 475 642.5 475 642.9 475 642.9 475 643.2 475 643.3 475 643.4 474.4 643.6 474.4 643.6 474.4 644 475.3 644 475.3 644 475.3 644.1 478.3 644.4 478.3 644.4 478.3 644.7 480.4 644.8 480.4 644.8 480.4 644.8 481.5 645.1 481.2 645.1 481.2 645.3 480.6 645.5 480.6 645.5 480.6 645.6 478 645.9 480.6 645.9 480.6 646.2 480.6 646.3 480.6 646.4 479.5 646.6 479.5 646.6 479.5 646.8 478 647 478 647 478 647.1 469.1 647.4 469.1 647.4 469.1 647.6 469.7 647.7 469.7 647.8 469.7 648.1 469.7 648.1 469.7 648.4 468.5 648.5 468.5 648.5 468.5 648.7 456.3 648.9 456.3 648.9 456.3 649.2 456.3 649.3 456.3 649.5 457.2 649.6 457.2 649.6 457.2 649.8 459.9 649.9 264.6 650 264.6 650 264.6 650.4 264.6 650.4 264.6 650.7 264.6 650.8 264.6 651.1 264.6 651.1 264.6 651.3 458.4 651.5 264.6 651.5 264.6 651.9 264.6 651.9 264.6 652.2 264.6 652.2 264.6 652.6 264.6 652.6 264.6 653 463.4 653 463.4 653 463.4 653.1 264.6 653.4 264.6 653.4 264.6 653.7 264.6 653.8 264.6 654.1 264.6 654.1 264.6 654.2 456.9 654.5 264.6 654.5 264.6 654.9 264.6 654.9 264.6 655.2 264.6 655.2 264.6 655.6 264.6 655.6 264.6 656 264.6 656 264.6 656.4 264.6 656.4 264.6 656.8 264.6 656.8 264.6 657.1 264.6 657.1 264.6 657.5 264.6 657.5 264.6 657.9 264.6 657.9 264.6 658.2 264.6 658.3 264.6 658.6 264.6 658.6 264.6 659 264.6 659 264.6 659.4 264.6 659.4 264.6 659.8 264.6 659.8 264.6 660.1 264.6 660.1 264.6 660.5 264.6 660.5 264.6 660.9 264.6 660.9 264.6 661.2 264.6 661.3 264.6 661.3 455.7 661.6 264.6 661.6 264.6 662 264.6 662 264.6 662.4 466.1 662.4 466.4 662.4 466.7 662.4 465.8 662.7 466.1 662.8 466.1 662.9 464 663.1 464 663.1 464 663.4 462.6 663.5 462.6 663.5 462.6 663.9 460.2 663.9 460.5 663.9 460.8 664.2 466.7 664.2 466.7 664.2 466.7 664.6 466.7 664.6 466.7 664.6 467.6 665 467.6 665 467.6 665.2 467 665.3 467.9 665.4 467.9 665.4 467.9 665.7 467.9 665.8 467.9 665.8 475.3 666.1 475.3 666.1 475.3 666.5 476.5 666.5 476.5 666.5 476.5 666.6 477.4 666.9 477.4 666.9 477.4 667.2 479.5 667.2 479.5 667.2 479.5 667.5 480.4 667.6 480.4 667.6 480.4 667.7 477.7 668 479.5 668 479.5 668.1 480.1 668.4 480.1 668.4 480.1 668.7 480.1 668.8 480.1 669.1 480.1 669.1 480.1 669.5 480.6 669.5 480.6 669.5 480.6 669.9 480.6 669.9 480.6 670.2 475.6 670.2 476.5 670.3 476.5 670.6 476.5 670.6 476.5 671 476.5 671 476.5 671.4 476.5 671.4 476.5 671.6 475.6 671.8 475.6 671.8 475.6 671.9 478.9 672.1 478.9 672.1 478.9 672.5 478.9 672.5 478.9 672.9 478.9 672.9 478.9 673.2 478.9 673.3 478.9 673.6 478.9 673.6 478.9 673.6 478.6 674 478.6 674 478.6 674.2 481.5 674.4 480.6 674.4 480.6 674.4 479.5 674.5 481.5 674.7 481.5 674.8 481.5 675 480.1 675.1 480.1 675.1 480.1 675.5 480.1 675.5 480.1 675.8 480.9 675.9 480.9 675.9 480.9 676.2 480.9 676.3 480.9 676.6 480.9 676.6 480.9 676.7 480.4 677 480.4 677 480.4 677 479.5 677.4 479.5 677.4 479.5 677.7 479.5 677.8 479.5 677.9 479.8 678.1 479.8 678.1 479.8 678.2 478.6 678.5 478.6 678.5 478.6 678.6 480.6 678.9 479.8 678.9 479.8 679.2 478.3 679.2 478.3 679.2 478.3 679.3 478 679.3 479.5 679.6 478.6 679.6 478.6 679.7 478.3 680 478.3 680 478.3 680.3 476.2 680.4 476.2 680.4 476.2 680.7 476.2 680.8 476.2 680.9 475.9 681.1 475.9 681.1 475.9 681.3 476.8 681.4 475 681.5 475 681.5 475 681.5 473.5 681.9 473.5 681.9 473.5 682.2 473.5 682.3 473.5 682.4 474.7 682.6 474.7 682.6 474.7 683 475.6 683 475.6 683 475.6 683.1 471.8 683.4 472 683.4 472 683.7 474.1 683.8 474.1 683.8 474.1 684 474.4 684 473.8 684.1 473.8 684.1 473.8 684.4 472.3 684.5 472.9 684.5 472.9 684.6 474.4 684.9 474.4 684.9 474.4 685 473.2 685.2 474.1 685.3 474.1 685.5 475 685.6 475 685.6 475 685.8 477.4 686 477.4 686 477.4 686.4 476.2 686.4 476.2 686.4 476.2 686.5 475.6 686.8 475.6 686.8 475.6 687.1 475.6 687.1 475.6 687.3 474.7 687.4 478.9 687.5 478.9 687.5 478.9 687.9 478.9 687.9 478.9 688.2 478.9 688.3 478.9 688.6 480.9 688.6 480.9 688.6 480.9 689 480.9 689 480.9 689.1 480.1 689.2 481.2 689.4 481.2 689.4 481.2 689.7 481.2 689.8 481.2 690.1 481.2 690.1 481.2 690.5 481.2 690.5 481.2 690.5 480.6 690.7 482.4 690.9 481.5 690.9 481.5 691.2 481.5 691.2 481.5 691.4 480.9 691.5 481.8 691.6 481.8 691.6 481.8 692 481.8 692 481.8 692.4 481.8 692.4 481.8 692.7 481.8 692.8 481.8 692.9 480.6 693.1 480.6 693.1 480.6 693.2 479.2 693.5 480.1 693.5 480.1 693.9 480.1 693.9 480.1 694.2 480.1 694.2 480.1 694.3 478.9 694.6 478.9 694.6 478.9 694.7 477.4 695 478 695 478 695 478.9 695.4 478.9 695.4 478.9 695.6 479.5 695.8 479.5 695.8 479.5 695.8 478.6 696.1 478.6 696.1 478.6 696.4 477.7 696.5 477.7 696.5 477.7 696.9 477.7 696.9 477.7 697.1 478.9 697.2 478.9 697.3 478.9 697.3 478.6 697.5 480.1 697.6 480.1 697.6 480.1 698 480.1 698 480.1 698.4 480.1 698.4 480.1 698.6 481.2 698.8 481.2 698.8 481.2 698.9 482.7 699.1 482.7 699.1 482.7 699.4 482.1 699.5 482.1 699.5 482.1 699.9 482.1 699.9 482.1 700 483 700.2 483 700.3 483 700.6 479.2 700.6 479.2 700.6 479.2 700.6 480.1 701 479.8 701 479.8 701.4 479.8 701.4 479.8 701.5 480.1 701.7 480.1 701.8 480.1 702.1 479.5 702.1 479.5 702.1 479.5 702.3 478.9 702.5 478.9 702.5 478.9 702.5 478.6 702.9 478.6 702.9 478.6 702.9 478 703.2 478 703.3 478 703.6 478 703.6 478 703.7 478.6 704 478.6 704 478.6 704.4 478.6 704.4 478.6 704.7 481.2 704.7 481.2 704.8 481.2 704.8 482.4 705.1 480.9 705.1 480.9 705.1 480.9 705.2 481.2 705.5 481.2 705.5 481.2 705.8 480.1 705.9 480.1 705.9 480.1 706.2 480.1 706.2 480.1 706.5 481.2 706.6 481.2 706.6 481.2 706.8 480.4 707 480.4 707 480.4 707 479.5 707.4 480.1 707.4 480.1 707.5 478.9 707.7 478.9 707.8 478.9 708.1 478.9 708.1 478.9 708.5 478.9 708.5 478.9 708.8 475.6 708.9 475.6 708.9 475.6 709.2 475.6 709.3 475.6 709.3 477.1 709.6 477.1 709.6 477.1 710 476.2 710 476.2 710 476.2 710.1 477.4 710.4 476.2 710.4 476.2 710.8 476.2 710.8 476.2 711 476.8 711.1 476.8 711.1 476.8 711.3 477.7 711.5 477.7 711.5 477.7 711.8 478.9 711.9 478.9 711.9 478.9 712.2 476.8 712.2 476.8 712.3 476.8 712.6 476.8 712.6 476.8 712.8 475.9 713 478.3 713 478.3 713 478.3 713.1 479.2 713.4 479.2 713.4 479.2 713.7 479.2 713.8 479.2 714.1 479.2 714.1 479.2 714.2 478.9 714.5 480.9 714.5 480.9 714.5 480.9 714.9 480.9 714.9 480.9 715.2 480.9 715.3 480.9 715.3 481.5 715.6 480.9 715.6 480.9 715.8 480.1 716 480.1 716 480.1 716.3 478.3 716.4 478.3 716.4 478.3 716.5 480.4 716.7 480.4 716.8 480.4 717.1 481.2 717.1 481.2 717.1 481.2 717.5 481.2 717.5 481.2 717.5 479.2 717.9 479.2 717.9 479.2 718.2 479.2 718.2 479.2 718.4 479.5 718.6 479.5 718.6 479.5 719 479.5 719 479.5 719.4 479.5 719.4 479.5 719.7 480.1 719.7 480.1 719.8 480.1 719.9 479.5 720.1 480.4 720.1 480.4 720.1 480.4 720.3 481.5 720.4 479.8 720.5 479.8 720.5 479.8 720.6 480.4 720.9 480.4 720.9 480.4 721.2 480.4 721.2 480.4 721.6 480.4 721.6 480.4 721.7 479.8 721.8 481.8 722 480.9 722 480.9 722.4 480.9 722.4 480.9 722.7 479.5 722.8 479.5 722.8 479.5 722.9 478.3 723.1 478.3 723.1 478.3 723.4 475.6 723.5 475.6 723.5 475.6 723.9 475.6 723.9 475.6 724.1 476.2 724.2 476.2 724.3 476.2 724.5 476.8 724.6 475.3 724.6 475.3 724.6 475.3 724.6 476.5 725 476.5 725 476.5 725.4 476.5 725.4 476.5 725.6 475.9 725.8 475.9 725.8 475.9 725.8 475 726.1 476.5 726.1 476.5 726.1 476.5 726.5 476.5 726.5 476.5 726.8 473.2 726.9 473.2 726.9 473.2 727.2 475.3 727.2 475.3 727.3 475.3 727.4 474.7 727.6 477.4 727.6 477.4 727.6 477.4 728 475 728 475 728 469.1 728.4 469.1 728.4 469.1 728.7 469.1 728.8 469.1 728.8 470.6 729.1 470.6 729.1 470.6 729.5 470.6 729.5 470.6 729.8 471.2 729.9 471.2 729.9 471.2 729.9 464.6 730.2 465.2 730.3 465.2 730.6 458.7 730.6 458.7 730.6 458.7 731 458.7 731 458.7 731.1 462.6 731.3 456.9 731.4 456.9 731.4 456.9 731.6 457.5 731.7 457.5 731.8 457.5 732 458.4 732.1 458.4 732.1 458.4 732.3 465.8 732.5 465.5 732.5 465.5 732.8 459.3 732.9 459.3 732.9 459.3 733.2 459.3 733.2 459.3 733.6 264.6 733.6 264.6 733.6 264.6 734 264.6 734 264.6 734.3 456.9 734.4 456.9 734.4 456.9 734.7 462 734.7 462 734.8 462 734.8 462.9 735 264.6 735.1 264.6 735.1 264.6 735.5 264.6 735.5 264.6 735.6 459.9 735.9 459.9 735.9 459.9 736.2 459.9 736.3 459.9 736.6 459.9 736.6 460.2 736.7 459.3 737 459.3 737 459.3 737.1 465.5 737.2 264.6 737.4 264.6 737.4 264.6 737.8 264.6 737.8 264.6 737.9 461.7 738.1 461.7 738.1 461.7 738.3 462.6 738.4 461.4 738.5 461.4 738.5 461.4 738.8 462 738.9 462 738.9 462 739.2 464.3 739.3 464.6 739.3 470 739.4 461.4 739.6 462 739.6 462 740 462 740 462 740.1 461.1 740.4 461.1 740.4 461.1 740.7 461.1 740.8 461.1 741 462 741.1 462 741.1 462 741.5 473.2 741.5 473.2 741.5 473.2 741.5 474.1 741.9 474.1 741.9 474.1 742 473.2 742.2 473.2 742.3 473.2 742.6 473.2 742.6 473.2 742.7 474.4 743 474.4 743 474.4 743.3 467 743.4 467 743.4 467 743.6 475.6 743.7 475.6 743.8 475.6 743.8 473.5 744.1 473.5 744.1 473.5 744.4 474.4 744.5 474.4 744.5 474.4 744.9 474.4 744.9 474.4 745.2 473.5 745.2 473.5 745.2 473.5 745.6 473.5 745.6 473.5 745.9 472.3 746 472.3 746 472.3 746.1 471.8 746.2 472.6 746.4 472.6 746.4 472.6 746.7 472.6 746.8 472.6 747 470.6 747.1 470.6 747.1 470.6 747.2 469.7 747.5 469.7 747.5 469.7 747.6 477.1 747.9 475.9 747.9 475.9 748.1 478 748.2 478 748.2 478 748.6 478 748.6 478 748.8 477.1 749 477.1 749 477.1 749 476.8 749.4 476.8 749.4 476.8 749.5 477.7 749.8 477.7 749.8 477.7 750.1 477.1 750.1 477.1 750.1 477.1 750.3 478.9 750.5 478.9 750.5 478.9 750.6 477.4 750.9 477.4 750.9 477.4 751.2 477.4 751.3 477.4 751.3 476.2 751.4 479.2 751.6 479.2 751.6 479.2 751.9 480.4 752 480.1 752 480.1 752.4 480.1 752.4 480.1 752.8 480.1 752.8 480.1 752.9 478.6 753.1 479.5 753.1 479.5 753.3 479.8 753.5 479.8 753.5 479.8 753.9 479.8 753.9 479.8 754.2 479.8 754.3 479.8 754.3 480.4 754.6 480.4 754.6 480.4 754.8 481.8 755 479.8 755 479.8 755 479.8 755.1 479.2 755.4 479.2 755.4 479.2 755.5 480.4 755.7 479.2 755.8 479.2 756.1 478 756.1 478 756.1 478 756.1 478.3 756.4 477.1 756.5 477.1 756.5 477.1 756.9 477.1 756.9 477.1 757.1 478.6 757.2 478.6 757.2 478.6 757.5 478 757.6 478 757.6 478 758 476.2 758 476.2 758 476.2 758.3 474.7 758.4 474.7 758.4 474.7 758.7 474.7 758.8 474.7 759.1 475.6 759.1 475.6 759.1 475.6 759.3 477.4 759.5 476.8 759.5 476.8 759.9 476.8 759.9 476.8 759.9 478 760.2 478 760.2 478 760.3 479.2 760.6 479.2 760.6 479.2 760.7 480.4 761 480.4 761 480.4 761.2 477.7 761.4 477.7 761.4 477.7 761.5 477.1 761.7 477.7 761.8 477.7 761.9 478.6 762.1 477.7 762.1 477.7 762.2 478.6 762.5 478.6 762.5 478.6 762.5 480.1 762.9 480.1 762.9 480.1 763.2 480.1 763.3 480.1 763.6 480.1 763.6 480.1 763.7 480.6 764 480.6 764 480.6 764.4 480.4 764.4 480.4 764.4 480.4 764.4 479.2 764.8 479.2 764.8 479.2 765.1 479.2 765.1 479.2 765.3 477.4 765.4 480.1 765.5 480.1 765.5 480.1 765.8 480.6 765.9 480.6 765.9 480.6 766.1 479.5 766.2 479.5 766.3 479.5 766.3 480.4 766.6 480.4 766.6 480.4 767 479.5 767 479.5 767 479.5 767.4 479.5 767.4 479.5 767.7 479.5 767.8 479.5 767.8 479.2 768.1 479.2 768.1 479.2 768.2 478.6 768.5 478.6 768.5 478.6 768.6 477.1 768.9 478.6 768.9 478.6 769 478 769.2 478 769.3 478 769.5 478.3 769.6 475.6 769.6 475.3 769.6 474.7 770 474.7 770 474.7 770.3 475.9 770.4 475.9 770.4 475.9 770.6 475.3 770.7 475.3 770.8 475.3 771 475.6 771.1 475.6 771.1 475.6 771.2 474.7 771.5 475.3 771.5 475.3 771.8 473.2 771.9 473.2 771.9 473.2 772 473.5 772.2 473.5 772.2 473.5 772.5 474.1 772.6 474.1 772.6 474.1 772.9 473.5 772.9 475 773 475 773 475 773.2 475.6 773.4 475.6 773.4 475.6 773.7 477.1 773.7 475.9 773.8 475.9 773.9 479.5 774.1 479.5 774.1 479.5 774.3 478.6 774.5 478.6 774.5 478.6 774.8 478 774.9 478.3 774.9 478.3 774.9 478.6 775.2 478.6 775.3 478.6 775.4 479.5 775.6 479.2 775.6 479.2 775.9 480.6 776 480.6 776 480.6 776 481.2 776.4 481.2 776.4 481.2 776.8 481.2 776.8 481.2 777.1 481.8 777.1 481.8 777.1 481.8 777.5 481.8 777.5 481.8 777.7 479.5 777.9 479.5 777.9 479.5 778 480.6 778.2 480.6 778.3 480.6 778.5 481.5 778.6 481.5 778.6 481.5 779 481.5 779 481.5 779.1 482.1 779.2 480.9 779.4 480.9 779.4 480.9 779.8 480.9 779.8 480.9 780 477.1 780.1 477.1 780.1 477.1 780.5 474.1 780.5 474.1 780.5 474.1 780.9 474.1 780.9 474.1 781.1 473.5 781.2 473.5 781.3 473.5 781.5 472.3 781.6 472.3 781.6 472.3 781.7 472 782 474.4 782 474.4 782 474.4 782 474.1 782.4 474.1 782.4 474.1 782.7 474.1 782.8 474.1 782.8 473.5 783.1 473.5 783.1 473.5 783.5 474.7 783.5 474.7 783.5 474.7 783.9 474.7 783.9 474.7 784.2 478.3 784.2 478.3 784.2 478.3 784.5 480.6 784.6 480.1 784.6 480.1 784.7 481.2 785 481.2 785 481.2 785.2 480.6 785.4 480.6 785.4 480.6 785.7 482.4 785.7 482.4 785.8 482.4 785.9 482.7 786 481.8 786.1 481.8 786.1 481.8 786.3 482.1 786.5 482.1 786.5 482.1 786.9 479.8 786.9 479.8 787 480.4 787.2 478.6 787.2 478.3 787.3 476.5 787.6 476.5 787.6 476.5 787.7 471.8 788 471.8 788 471.8 788.4 471.8 788.4 471.8 788.8 471.8 788.8 471.8 788.8 472.3 789.1 472.3 789.1 472.3 789.4 472.9 789.5 472.9 789.5 472.9 789.7 470.9 789.9 470.9 789.9 470.9 790.2 471.8 790.2 471.8 790.3 471.8 790.6 471.5 790.6 471.5 790.6 471.5 790.8 471.8 791 471.8 791 471.8 791.1 473.8 791.4 473.2 791.4 473.2 791.5 472.9 791.6 476.8 791.8 476.8 791.8 476.8 792 481.5 792.1 481.5 792.1 481.5 792.2 481.2 792.5 481.2 792.5 481.2 792.7 480.1 792.9 480.1 792.9 480.1 793.2 479.2 793.2 479.2 793.3 479.2 793.6 479.2 793.6 479.2 793.6 478.3 794 480.4 794 480.4 794 480.4 794.3 479.8 794.4 479.8 794.4 479.8 794.6 479.2 794.7 479.2 794.8 479.2 794.9 479.5 795.1 479.5 795.1 479.5 795.5 479.5 795.5 479.5 795.7 480.4 795.8 479.2 795.9 479.2 795.9 479.2 796.1 477.7 796.2 477.7 796.3 477.7 796.4 478 796.6 478 796.6 478 797 479.2 797 477.7 797 477.7 797 477.7 797.4 477.7 797.4 477.7 797.4 478.6 797.7 478.6 797.8 478.6 797.9 479.5 798.1 479.2 798.1 479.2 798.5 479.2 798.5 479.2 798.6 479.8 798.9 479.5 798.9 479.2 798.9 478.6 799.2 479.2 799.2 479.2 799.5 478.3 799.6 478.3 799.6 478.3 800 478.3 800 478.3 800.4 480.9 800.4 480.9 800.4 480.9 800.7 480.9 800.8 480.9 801 478.9 801.1 478.9 801.1 478.9 801.2 479.2 801.2 477.7 801.5 478.9 801.5 478.9 801.9 478.9 801.9 478.9 801.9 478.6 802.2 478.9 802.3 478.9 802.6 478.9 802.6 478.9 802.9 478.3 803 478.3 803 478.3 803.1 477.4 803.1 478.6 803.4 478.6 803.4 478.6 803.7 479.5 803.8 479.5 803.8 479.5 804.1 479.5 804.1 479.5 804.5 479.5 804.5 479.5 804.8 471.2 804.9 471.2 804.9 471.2 805.1 470.6 805.1 471.8 805.2 471.8 805.3 471.8 805.5 474.1 805.6 474.1 805.6 474.1 805.8 470.9 806 470.9 806 470.9 806.2 471.2 806.4 471.2 806.4 471.2 806.7 471.2 806.8 471.2 807 461.7 807.1 461.7 807.1 461.7 807.3 463.2 807.5 462.9 807.5 462.9 807.7 461.7 807.9 461.7 807.9 461.7 808.2 461.7 808.3 461.7 808.3 264.6 808.6 264.6 808.6 264.6 809 264.6 809 264.6 809.3 456.3 809.4 264.6 809.4 264.6 809.7 264.6 809.8 264.6 810.1 264.6 810.1 264.6 810.5 264.6 810.5 264.6 810.9 264.6 810.9 264.6 811.2 264.6 811.2 264.6 811.6 264.6 811.6 264.6 812 264.6 812 264.6 812.4 264.6 812.4 264.6 812.7 264.6 812.8 264.6 813.1 264.6 813.1 264.6 813.5 264.6 813.5 264.6 813.9 264.6 813.9 264.6 814.2 264.6 814.2 264.6 814.6 264.6 814.6 264.6 815 264.6 815 264.6 815.4 264.6 815.4 264.6 815.8 264.6 815.8 264.6 816.1 264.6 816.1 264.6 816.5 264.6 816.5 264.6 816.9 264.6 816.9 264.6 817.2 264.6 817.3 264.6 817.6 264.6 817.6 264.6 818 264.6 818 264.6 818.4 264.6 818.4 264.6 818.8 264.6 818.8 264.6 819.1 264.6 819.1 264.6 819.5 264.6 819.5 264.6 819.7 465.5 819.9 465.5 819.9 465.5 820.2 465.5 820.3 465.5 820.6 465.5 820.6 465.5 820.9 464.9 821 466.1 821 465.8 821 465.8 821.2 466.7 821.4 466.7 821.4 466.7 821.7 477.1 821.7 477.1 821.8 477.1 822.1 477.1 822.1 477.1 822.2 476.2 822.5 476.2 822.5 476.2 822.8 478.6 822.9 478.6 822.9 478.6 823.1 477.1 823.2 479.5 823.2 479.5 823.3 479.5 823.3 480.4 823.6 480.4 823.6 480.4 823.6 479.5 824 479.5 824 479.5 824.3 477.4 824.4 477.4 824.4 477.4 824.7 477.4 824.8 477.4 824.9 475.9 825.1 475.9 825.1 475.9 825.2 476.8 825.5 476.8 825.5 476.8 825.9 476.8 825.9 476.8 825.9 478 826 476.5 826.2 476.5 826.2 476.5 826.5 477.1 826.5 475.9 826.6 475.9 826.6 475.9 826.9 475.3 827 475.3 827 475.3 827.2 476.2 827.4 476.2 827.4 476.2 827.4 476.8 827.7 476.2 827.8 476.2 827.9 477.1 828.1 476.8 828.1 476.8 828.5 476.8 828.5 476.8 828.6 478.9 828.9 478.9 828.9 478.9 829.2 480.4 829.2 480.4 829.3 480.4 829.4 479.2 829.6 479.2 829.6 479.2 830 479.2 830 479.2 830.2 477.4 830.4 478.9 830.4 478.9 830.6 479.2 830.6 478.6 830.8 478.6 830.8 478.6 830.8 479.8 831.1 479.8 831.1 479.8 831.1 480.4 831.5 480.4 831.5 480.4 831.9 480.4 831.9 480.4 832 480.9 832.2 480.9 832.3 480.9 832.3 481.2 832.6 481.2 832.6 481.2 833 481.2 833 481.2 833 480.1 833.4 480.1 833.4 480.1 833.7 481.2 833.7 481.2 833.8 481.2 834.1 481.2 834.1 481.2 834.2 480.4 834.5 482.1 834.5 482.1 834.5 482.1 834.8 481.5 834.9 482.1 834.9 482.1 835.2 477.1 835.2 477.1 835.3 477.1 835.5 475.6 835.6 475.6 835.6 475.6 836 475.6 836 475.6 836.4 475.6 836.4 475.6 836.7 475.6 836.8 475.6 837.1 475.6 837.1 475.6 837.3 475 837.3 476.2 837.5 476.2 837.5 476.2 837.6 475.3 837.9 475.3 837.9 475.3 838.1 474.7 838.2 474.7 838.2 474.7 838.4 475.6 838.6 475.6 838.6 475.6 839 475.6 839 475.6 839.3 479.2 839.4 479.2 839.4 479.2 839.4 478.3 839.7 481.8 839.7 481.8 839.8 481.8 840.1 481.8 840.1 481.8 840.5 481.8 840.5 481.8 840.9 481.8 840.9 481.8 841.1 481.2 841.2 481.2 841.2 481.2 841.5 481.8 841.6 481.8 841.6 481.8 841.8 482.7 842 482.7 842 482.7 842.3 482.1 842.4 482.1 842.4 482.1 842.4 482.7 842.8 482.7 842.8 482.7 843.1 482.7 843.1 482.7 843.5 482.7 843.5 482.7 843.7 483.6 843.9 483.6 843.9 483.6 844.2 483.6 844.3 483.6 844.4 481.2 844.6 481.2 844.6 481.2 844.9 480.6 845 480.6 845 480.6 845.4 481.2 845.4 481.2 845.4 481.2 845.6 480.1 845.8 480.1 845.8 480.1 846.1 480.1 846.1 480.1 846.5 480.1 846.5 480.1 846.5 480.6 846.8 478.6 846.9 478.6 846.9 478.6 847.2 478.6 847.3 478.6 847.6 478.6 847.6 478.6 847.7 478 848 478 848 478 848.4 478 848.4 478 848.6 480.4 848.7 480.4 848.8 480.4 849 478.9 849.1 478.9 849.1 478.9 849.1 478.6 849.2 479.2 849.5 478.9 849.5 478.9 849.8 480.1 849.9 480.1 849.9 480.1 850.2 479.8 850.2 479.5 850.4 477.1 850.6 477.1 850.6 477.1 850.9 478 851 478 851 478 851 479.2 851.4 478 851.4 478 851.4 476.8 851.7 476.8 851.8 476.8 852 477.4 852.1 477.4 852.1 477.4 852.5 476.2 852.5 476.2 852.5 476.2 852.5 474.4 852.9 474.4 852.9 474.4 853.1 474.1 853.2 475.6 853.2 475.6 853.2 475.6 853.4 475.9 853.6 475.9 853.6 475.9 853.7 476.2 854 476.2 854 476.2 854.4 476.2 854.4 476.2 854.5 475.6 854.7 478.6 854.7 478.6 854.8 478.6 855.1 478.6 855.1 478.6 855.2 477.4 855.5 477.4 855.5 477.4 855.7 479.8 855.9 479.8 855.9 479.8 856.2 479.8 856.3 479.8 856.3 478.9 856.6 479.5 856.6 479.5 856.8 481.8 857 481.2 857 481.2 857.3 480.6 857.4 480.9 857.4 480.9 857.8 480.9 857.8 480.9 858.1 480.9 858.1 480.9 858.5 480.9 858.5 480.9 858.7 481.5 858.9 481.5 858.9 481.5 858.9 476.5 859.2 476.5 859.3 476.5 859.4 477.7 859.6 476.8 859.6 476.8 860 476.8 860 476.8 860.4 476.8 860.4 476.8 860.5 475.6 860.7 476.2 860.8 476.2 861.1 476.8 861.1 476.8 861.1 476.8 861.5 476.8 861.5 476.8 861.6 477.4 861.9 477.1 861.9 477.1 862 475.9 862.2 475.9 862.3 475.9 862.6 475.9 862.6 475.9 863 475.6 863 475.6 863 475.6 863.2 480.6 863.4 480.6 863.4 480.6 863.7 480.6 863.8 480.6 863.8 480.9 864 479.2 864.1 479.2 864.1 479.2 864.5 479.2 864.5 479.2 864.7 480.4 864.9 480.4 864.9 480.4 864.9 480.6 865.2 480.6 865.2 480.6 865.5 480.1 865.6 480.1 865.6 480.1 866 480.1 866 480.1 866.3 481.2 866.4 481.2 866.4 481.2 866.5 480.9 866.7 480.9 866.8 480.9 867.1 480.4 867.1 480.1 867.1 479.5 867.5 479.8 867.5 479.8 867.7 478.9 867.9 478.9 867.9 478.9 868 477.7 868.2 480.1 868.2 480.1 868.3 480.1 868.6 480.1 868.6 480.1 869 480.1 869 480.1 869.3 479.2 869.4 479.2 869.4 479.2 869.7 479.8 869.8 479.8 869.8 479.8 870.1 479.8 870.1 479.8 870.4 480.1 870.5 480.1 870.5 480.1 870.7 480.4 870.9 480.4 870.9 480.4 871.2 478.9 871.2 478.9 871.3 478.9 871.4 480.4 871.6 480.1 871.6 480.1 872 480.9 872 480.9 872 480.9 872.1 479.8 872.4 480.9 872.4 480.9 872.6 480.1 872.8 480.1 872.8 480.1 873.1 480.1 873.1 480.1 873.4 479.5 873.5 479.5 873.5 479.5 873.6 480.4 873.7 478.9 873.9 478.9 873.9 478.9 874 478.3 874.2 478.3 874.3 478.3 874.3 477.4 874.6 477.4 874.6 477.4 874.9 475.3 875 475.3 875 475.3 875.4 475.3 875.4 475.3 875.7 477.1 875.7 477.1 875.8 477.1 876.1 477.1 876.1 477.1 876.3 478.3 876.5 478.3 876.5 478.3 876.8 478 876.8 478.9 876.9 478.9 876.9 478.9 877.2 478.9 877.2 478.9 877.6 477.7 877.6 478.3 877.6 478.3 877.9 477.1 877.9 478.6 878 478.6 878 478.6 878.2 479.2 878.4 479.2 878.4 479.2 878.6 480.1 878.7 480.1 878.8 480.1 879.1 480.1 879.1 480.1 879.2 482.1 879.5 481.8 879.5 481.8 879.5 480.9 879.9 480.9 879.9 480.9 880.2 480.9 880.2 480.9 880.5 478.6 880.6 478.6 880.6 478.6 881 478.6 881 478.6 881 477.7 881.4 478 881.4 478 881.8 478 881.8 478 882.1 480.4 882.1 480.4 882.1 480.4 882.4 478.9 882.5 478.9 882.5 478.9 882.9 478.9 882.9 478.9 883.2 477.1 883.2 477.1 883.3 477.1 883.5 470 883.6 470.3 883.6 470.3 883.8 471.2 884 471.2 884 471.2 884.1 470.3 884.4 470.3 884.4 470.3 884.8 472.6 884.8 472.6 885.1 472.6 885.1 472.6 885.4 464 885.5 464 885.5 464 885.9 464 885.9 464 886.2 464 886.3 464 886.6 264.6 886.6 264.6 886.6 264.6 887 264.6 887 264.6 887.4 264.6 887.4 264.6 887.6 456 887.7 264.6 887.8 264.6 887.8 455.7 888.1 455.7 888.1 455.7 888.4 456.6 888.5 456.6 888.5 456.6 888.5 264.6 888.9 264.6 888.9 264.6 889.2 264.6 889.3 264.6 889.5 456.3 889.6 455.7 889.6 455.7 889.7 456 890 456 890 456 890.1 264.6 890.4 264.6 890.4 264.6 890.7 264.6 890.8 264.6 891.1 264.6 891.1 264.6 891.5 264.6 891.5 264.6 891.9 457.8 891.9 457.8 891.9 457.8 891.9 457.5 892.2 457.5 892.2 457.5 892.5 264.6 892.6 264.6 892.6 264.6 892.8 459.3 893 458.4 893 458.4 893.4 458.4 893.4 458.4 893.6 264.6 893.7 264.6 893.8 264.6 894.1 264.6 894.1 264.6 894.5 264.6 894.5 264.6 894.9 458.1 894.9 458.1 894.9 458.1 895.2 458.1 895.3 458.1 895.6 458.1 895.6 458.1 895.7 457.2 895.9 458.4 896 458.4 896 458.4 896.2 458.7 896.2 264.6 896.4 264.6 896.4 264.6 896.8 264.6 896.8 264.6 897.1 457.5 897.1 457.5 897.1 457.5 897.5 457.5 897.5 457.5 897.5 457.2 897.9 457.8 897.9 457.8 897.9 457.8 898 466.7 898.2 466.4 898.3 466.4 898.3 473.2 898.6 473.2 898.6 473.2 899 473.2 899 473.2 899.4 473.2 899.4 473.2 899.7 473.2 899.8 473.2 899.9 474.1 900.1 474.1 900.1 474.1 900.2 473.2 900.5 480.6 900.5 480.6 900.5 480.6 900.8 479.2 900.8 480.9 900.9 480.9 900.9 480.9 901.2 480.9 901.3 480.9 901.6 480.9 901.6 480.9 901.8 481.2 902 481.2 902 481.2 902.1 480.6 902.4 480.6 902.4 480.6 902.5 481.8 902.7 481.2 902.8 481.2 903.1 481.2 903.1 481.2 903.4 480.9 903.5 480.9 903.5 480.9 903.8 480.1 903.9 480.1 903.9 480.1 904.2 480.1 904.2 480.1 904.3 479.5 904.5 480.4 904.6 480.4 904.6 480.4 904.8 479.8 905 480.6 905 480.4 905 480.1 905 480.6 905.2 478.3 905.4 478.3 905.4 478.3 905.7 478.3 905.8 478.3 906.1 478.3 906.1 478.3 906.2 477.7 906.5 478.3 906.5 478.3 906.7 478 906.9 478 906.9 478 907 476.5 907.2 476.5 907.2 476.5 907.6 476.5 907.6 476.5 908 472.9 908 472.9 908 472.9 908 473.8 908.4 473.5 908.4 473.5 908.6 474.1 908.8 474.1 908.8 474.1 908.8 472.6 909.1 473.2 909.1 473.2 909.1 472.3 909.4 475.3 909.5 475.3 909.5 475.3 909.9 475.3 909.9 475.3 909.9 474.4 910.2 474.4 910.3 474.4 910.4 475 910.6 475 910.6 475 911 475.3 911 475.3 911 475.3 911.3 477.4 911.4 476.2 911.4 476.2 911.6 473.8 911.8 473.8 911.8 473.8 911.9 476.2 912.1 474.7 912.1 474.7 912.5 476.5 912.5 476.5 912.5 476.5 912.6 475.3 912.9 475.3 912.9 475.3 913.1 476.8 913.2 476.8 913.3 476.8 913.4 477.7 913.6 476.8 913.6 476.8 914 476.8 914 476.8 914.2 477.7 914.4 477.7 914.4 477.7 914.7 477.7 914.8 477.7 915.1 477.7 915.1 477.7 915.4 477.4 915.5 477.4 915.5 477.4 915.8 480.9 915.9 480.9 915.9 480.9 916.2 480.1 916.2 480.1 916.3 480.1 916.4 481.5 916.5 479.2 916.6 479.2 916.6 479.2 916.8 478.3 916.9 479.5 917 479.5 917 479.5 917.4 479.5 917.4 479.5 917.7 477.1 917.8 476.8 917.8 475.9 918.1 476.8 918.1 476.8 918.5 476.8 918.5 476.8 918.9 476.8 918.9 476.8 919.2 475.3 919.2 475.3 919.2 475.3 919.6 475.3 919.6 475.3 919.7 475.6 920 473.2 920 473.2 920 473.2 920.4 473.2 920.4 473.2 920.7 476.5 920.7 476.5 920.8 476.5 921.1 477.4 921.1 477.4 921.1 477.4 921.3 477.1 921.5 477.1 921.5 477.1 921.7 476.2 921.9 476.2 921.9 476.2 922 479.5 922.2 479.5 922.3 479.5 922.6 479.5 922.6 479.5 923 479.5 923 479.5 923.2 480.1 923.4 480.1 923.4 480.1 923.5 480.9 923.8 480.9 923.8 480.9 924 481.5 924.1 481.5 924.1 481.5 924.2 483.3 924.5 482.1 924.5 482.1 924.6 480.9 924.9 480.9 924.9 480.9 924.9 480.4 925.2 480.4 925.3 480.4 925.6 480.6 925.6 480.6 925.6 480.6 926 481.5 926 481.5 926 481.5 926.2 481.8 926.4 481.8 926.4 481.8 926.6 481.2 926.7 481.2 926.8 481.2 926.8 479.8 927.1 479.8 927.1 479.8 927.5 479.8 927.5 479.8 927.9 479.8 927.9 479.8 928.2 479.8 928.3 479.8 928.6 480.9 928.6 480.9 928.6 480.9 928.8 482.1 929 482.1 929 482.1 929.2 482.7 929.4 482.1 929.4 482.1 929.7 481.5 929.7 481.5 929.8 481.5 930.1 481.5 930.1 481.5 930.5 481.5 930.5 481.5 930.7 480.6 930.9 481.2 930.9 481.2 931.1 482.7 931.2 482.7 931.2 482.7 931.6 482.7 931.6 482.7 931.8 482.1 932 482.1 932 482.1 932.1 481.5 932.4 481.5 932.4 481.5 932.7 481.5 932.8 481.5 933.1 481.5 933.1 481.5 933.5 481.5 933.5 481.5 933.5 482.1 933.9 482.1 933.9 482.1 933.9 482.7 934.2 478.9 934.2 478.9 934.2 478.9 934.6 478.9 934.6 478.9 934.7 478 935 478.9 935 478.9 935 478 935.4 478 935.4 478 935.8 478 935.8 478 936 478.6 936.1 478.6 936.1 478.6 936.3 479.2 936.5 479.2 936.5 479.2 936.7 478 936.9 478 936.9 478 937.1 477.7 937.2 477.7 937.3 477.7 937.6 475.6 937.6 475.6 937.6 475.6 938 475.6 938 475.6 938.1 474.1 938.4 474.1 938.4 474.1 938.4 478 938.8 478 938.8 478 939.1 482.1 939.1 482.1 939.1 482.1 939.5 482.1 939.5 482.1 939.9 482.1 939.9 482.1 940.2 482.1 940.3 482.1 940.6 482.1 940.6 482.1 941 482.1 941 482.1 941.4 482.1 941.4 482.1 941.7 482.1 941.8 482.1 942.1 482.1 942.1 482.1 942.5 482.1 942.5 482.1 942.9 482.1 942.9 482.1 943 484.8 943.2 484.8 943.2 484.8 943.6 484.8 943.6 484.8 944 484.8 944 484.8 944.4 484.8 944.4 484.8 944.7 484.8 944.8 484.8 945.1 484.8 945.1 484.8 945.5 484.8 945.5 484.8 945.9 484.8 945.9 484.8 946 483.3 946.2 483.3 946.2 483.3 946.6 483.3 946.6 483.3 947 483.3 947 483.3 947.4 483.3 947.4 483.3 947.7 483.3 947.8 483.3 948.1 483.3 948.1 483.3 948.5 483.3 948.5 483.3 948.9 483.3 948.9 483.3 949.2 483.3 949.3 483.3 949.6 483.3 949.6 483.3 950 483.3 950 483.3 950.2 484.8 950.4 484.8 950.4 484.8 950.8 484.8 950.8 484.8 951.1 484.8 951.1 484.8 951.5 484.8 951.5 484.8 951.9 484.8 951.9 484.8 952.2 484.8 952.3 484.8 952.6 484.8 952.6 484.8 953 484.8 953 484.8 953.4 484.8 953.4 484.8 953.7 484.8 953.8 484.8 954.1 484.8 954.1 484.8 954.5 484.8 954.5 484.8 954.9 484.8 954.9 484.8 955.2 484.8 955.3 484.8 955.6 484.8 955.6 484.8 956 484.8 956 484.8 956.4 484.8 956.4 484.8 956.7 484.8 956.8 484.8 957.1 484.8 957.1 484.8 957.5 484.8 957.5 484.8 957.9 484.8 957.9 484.8 958.2 484.8 958.2 484.8 958.6 484.8 958.6 484.8 959 484.8 959 484.8 959.4 484.8 959.4 484.8 959.7 484.8 959.8 484.8 960.1 484.8 960.1 484.8 960.5 484.8 960.5 484.8 960.9 484.8 960.9 484.8 961.2 484.8 961.3 484.8 961.6 484.8 961.6 484.8 962 484.8 962 484.8 962.4 484.8 962.4 484.8 962.8 484.8 962.8 484.8 963.1 484.8 963.1 484.8 963.5 484.8 963.5 484.8 963.9 484.8 963.9 484.8 964.2 484.8 964.3 484.8 964.6 484.8 964.6 484.8 965 484.8 965 484.8 965.4 484.8 965.4 484.8 965.8 484.8 965.8 484.8 966.1 484.8 966.1 484.8 966.5 484.8 966.5 484.8 966.9 484.8 966.9 484.8 967.2 484.8 967.3 484.8 967.6 484.8 967.6 484.8 968 484.8 968 484.8 968.4 484.8 968.4 484.8 968.7 484.8 968.8 484.8 969.1 484.8 969.1 484.8 969.5 484.8 969.5 484.8 969.9 484.8 969.9 484.8 970.2 484.8 970.2 484.8 970.6 484.8 970.6 484.8 971 484.8 971 484.8 971.4 484.8 971.4 484.8 971.7 484.8 971.8 484.8 972.1 484.8 972.1 484.8 972.5 484.8 972.5 484.8 972.9 484.8 972.9 484.8 973.2 484.8 973.2 484.8 973.6 484.8 973.6 484.8 973.7 480.1 974 480.1 974 480.1 974.2 468.8 974.4 468.8 974.4 468.8 974.7 466.4 974.8 466.4 974.8 466.4 974.9 462.6 975.1 462.6 975.1 462.6 975.5 462.6 975.5 462.6 975.9 462.6 975.9 462.6 976.2 462.6 976.3 462.6 976.6 462.6 976.6 462.6 977 462.6 977 462.6 977.1 459 977.4 459 977.4 459 977.8 459 977.8 459 977.9 463.7 978.1 463.7 978.1 463.7 978.4 475 978.5 475 978.5 475 978.9 475 978.9 475 979.2 481.2 979.2 481.2 979.3 481.2 979.6 481.2 979.6 481.2 980 481.2 980 481.2 980.4 481.2 980.4 481.2 980.7 481.2 980.8 481.2 980.9 479.5 981.1 479.5 981.1 479.5 981.4 483 981.5 480.9 981.5 480.9 981.9 474.4 981.9 474.4 981.9 474.4 982.2 474.4 982.3 474.4 982.6 474.4 982.6 474.4 983 474.4 983 474.4 983.4 474.4 983.4 474.4 983.7 474.4 983.8 474.4 983.9 463.4 984.1 463.4 984.1 463.4 984.5 463.4 984.5 463.4 984.9 463.4 984.9 463.4 985.1 465.2 985.2 465.2 985.2 465.2 985.6 465.2 985.6 465.2 985.7 467.3 986 467.3 986 467.3 986.1 473.8 986.4 473.8 986.4 473.8 986.7 473.8 986.8 473.8 986.9 471.2 987.1 471.2 987.1 471.2 987.5 471.2 987.5 471.2 987.9 471.2 987.9 471.2 988.2 478.6 988.2 466.4 988.2 466.4 988.3 466.4 988.4 460.5 988.6 460.5 988.6 460.5 988.8 458.4 989 458.4 989 458.4 989.4 264.6 989.4 264.6 989.4 264.6 989.8 264.6 989.8 264.6 990.1 264.6 990.1 264.6 990.5 264.6 990.5 264.6 990.9 264.6 990.9 264.6 991.2 264.6 991.3 264.6 991.6 264.6 991.6 264.6 992 264.6 992 264.6 992.4 264.6 992.4 264.6 992.7 264.6 992.8 264.6 993.1 264.6 993.1 264.6 993.5 264.6 993.5 264.6 993.9 264.6 993.9 264.6 994.2 264.6 994.3 264.6 994.6 264.6 994.6 264.6 995 264.6 995 264.6 995.4 264.6 995.4 264.6 995.7 264.6 995.8 264.6 996.1 264.6 996.1 264.6 996.5 264.6 996.5 264.6 996.9 264.6 996.9 264.6 997.2 264.6 997.2 264.6 997.6 264.6 997.6 264.6 998 264.6 998 264.6 998.4 264.6 998.4 264.6 998.7 264.6 998.8 264.6 999.1 264.6 999.1 264.6 999.5 264.6 999.5 264.6 999.9 264.6 999.9 264.6 1000.2 264.6 1000.2 264.6 1000.6 264.6 1000.6 264.6 1001 264.6 1001 264.6 1001.4 264.6 1001.4 264.6 1001.8 264.6 1001.8 264.6 1002.1 264.6 1002.1 264.6 1002.5 264.6 1002.5 264.6 1002.9 264.6 1002.9 264.6 1003.2 264.6 1003.3 264.6 1003.6 264.6 1003.6 264.6 1004 264.6 1004 264.6 1004.3 456.3 1004.4 456.3 1004.4 456.3 1004.8 456.3 1004.8 456.3 1005.1 456.3 1005.1 456.3 1005.5 456.3 1005.5 456.3 1005.8 462 1005.9 462 1005.9 462 1006.1 474.4 1006.2 474.4 1006.3 474.4 1006.6 474.4 1006.6 474.4 1006.8 482.4 1007 482.4 1007 482.4 1007.1 484.8 1007.4 484.8 1007.4 484.8 1007.7 484.8 1007.8 484.8 1008.1 484.8 1008.1 484.8 1008.5 484.8 1008.5 484.8 1008.9 484.8 1008.9 484.8 1009.2 484.8 1009.3 484.8 1009.6 484.8 1009.6 484.8 1010 484.8 1010 484.8 1010.4 484.8 1010.4 484.8 1010.7 484.8 1010.8 484.8 1011.1 484.8 1011.1 484.8 1011.5 484.8 1011.5 484.8 1011.9 484.8 1011.9 484.8 1012.2 484.8 1012.2 484.8 1012.6 484.8 1012.6 484.8 1013 484.8 1013 484.8 1013.4 484.8 1013.4 484.8 1013.7 484.8 1013.8 484.8 1014.1 484.8 1014.1 484.8 1014.5 484.8 1014.5 484.8 1014.9 484.8 1014.9 484.8 1015.2 484.8 1015.3 484.8 1015.6 484.8 1015.6 484.8 1016 484.8 1016 484.8 1016.4 484.8 1016.4 484.8 1016.8 484.8 1016.8 484.8 1017.1 484.8 1017.1 484.8 1017.5 484.8 1017.5 484.8 1017.9 484.8 1017.9 484.8 1018.2 484.8 1018.3 484.8 1018.6 484.8 1018.6 484.8 1019 484.8 1019 484.8 1019.4 484.8 1019.4 484.8 1019.7 484.8 1019.8 484.8 1020.1 484.8 1020.1 484.8 1020.5 484.8 1020.5 484.8 1020.9 484.8 1020.9 484.8 1021.2 484.8 1021.3 484.8 1021.6 484.8 1021.6 484.8 1022 484.8 1022 484.8 1022.4 484.8 1022.4 484.8 1022.7 484.8 1022.8 484.8 1023.1 484.8 1023.1 484.8 1023.5 484.8 1023.5 484.8 1023.9 484.8 1023.9 484.8 1024.2 484.8 1024.2 484.8 1024.6 484.8 1024.6 484.8 1025 484.8 1025 484.8 1025.4 484.8 1025.4 484.8 1025.7 484.8 1025.8 484.8 1026.1 484.8 1026.1 484.8 1026.5 484.8 1026.5 484.8 1026.9 484.8 1026.9 484.8 1027.2 484.8 1027.2 484.8 1027.6 484.8 1027.6 484.8 1028 484.8 1028 484.8 1028.4 484.8 1028.4 484.8 1028.8 484.8 1028.8 484.8 1029.1 484.8 1029.1 484.8 1029.5 484.8 1029.5 484.8 1029.9 484.8 1029.9 484.8 1030.2 484.8 1030.3 484.8 1030.6 484.8 1030.6 484.8 1031 484.8 1031 484.8 1031.4 484.8 1031.4 484.8 1031.8 484.8 1031.8 484.8 1032.1 484.8 1032.1 484.8 1032.5 484.8 1032.5 484.8 1032.9 484.8 1032.9 484.8 1033.2 484.8 1033.3 484.8 1033.6 484.8 1033.6 484.8 1034 484.8 1034 484.8 1034.4 484.8 1034.4 484.8 1034.7 484.8 1034.8 484.8 1035.1 484.8 1035.1 484.8 1035.5 484.8 1035.5 484.8 1035.9 484.8 1035.9 484.8 1036.2 479.8 1036.2 479.8 1036.2 479.8 1036.6 479.8 1036.6 479.8 1037 479.8 1037 479.8 1037.4 479.8 1037.4 479.8 1037.7 479.8 1037.8 479.8 1038.1 479.8 1038.1 479.8 1038.5 479.8 1038.5 479.8 1038.9 479.8 1038.9 479.8 1039.2 479.8 1039.2 479.8 1039.6 479.8 1039.6 479.8 1040 479.8 1040 479.8 1040.4 479.8 1040.4 479.8 1040.5 484.8 1040.7 484.8 1040.8 484.8 1041.1 484.8 1041.1 484.8 1041.5 484.8 1041.5 484.8 1041.9 484.8 1041.9 484.8 1042.2 484.8 1042.3 484.8 1042.6 484.8 1042.6 484.8 1043 484.8 1043 484.8 1043.4 484.8 1043.4 484.8 1043.8 484.8 1043.8 484.8 1044.1 484.8 1044.1 484.8 1044.5 484.8 1044.5 484.8 1044.9 484.8 1044.9 484.8 1045.2 484.8 1045.3 484.8 1045.6 484.8 1045.6 484.8 1046 484.8 1046 484.8 1046.4 484.8 1046.4 484.8 1046.7 484.8 1046.8 484.8 1047.1 484.8 1047.1 484.8 1047.5 484.8 1047.5 484.8 1047.9 484.8 1047.9 484.8 1048.1 484.2 1048.2 484.2 1048.3 484.2 1048.6 484.2 1048.6 484.2 1049 484.2 1049 484.2 1049.4 484.2 1049.4 484.2 1049.7 484.2 1049.8 484.2 1050.1 484.2 1050.1 484.2 1050.5 484.2 1050.5 484.2 1050.9 484.2 1050.9 484.2 1051.2 484.2 1051.2 484.2 1051.6 484.2 1051.6 484.2 1052 484.2 1052 484.2 1052.4 484.8 1052.4 484.8 1052.4 484.8 1052.7 484.8 1052.8 484.8 1053.1 484.8 1053.1 484.8 1053.5 484.8 1053.5 484.8 1053.9 484.8 1053.9 484.8 1054.2 484.8 1054.3 484.8 1054.6 484.8 1054.6 484.8 1055 484.8 1055 484.8 1055.4 484.8 1055.4 484.8 1055.8 484.8 1055.8 484.8 1056.1 484.8 1056.1 484.8 1056.5 484.8 1056.5 484.8 1056.9 484.8 1056.9 484.8 1057.2 481.5 1057.2 481.5 1057.3 481.5 1057.6 472.9 1057.6 472.9 1057.6 472.9 1058 472.9 1058 472.9 1058.3 468.5 1058.4 468.5 1058.4 468.5 1058.8 468.5 1058.8 468.5 1059.1 468.5 1059.1 468.5 1059.5 468.5 1059.5 468.5 1059.9 468.5 1059.9 468.5 1060.2 466.7 1060.2 466.7 1060.3 466.7 1060.3 462.6 1060.6 462.6 1060.6 462.6 1061 462.6 1061 462.6 1061.4 462.6 1061.4 462.6 1061.5 465.8 1061.7 465.8 1061.8 465.8 1061.9 474.4 1062.1 474.4 1062.1 474.4 1062.5 474.4 1062.5 474.4 1062.5 478.9 1062.9 478.9 1062.9 478.9 1063.2 478.9 1063.2 478.9 1063.5 456.9 1063.6 456.9 1063.6 456.9 1064 456.9 1064 456.9 1064 264.6 1064.4 264.6 1064.4 264.6 1064.7 264.6 1064.8 264.6 1065.1 264.6 1065.1 264.6 1065.5 264.6 1065.5 264.6 1065.9 264.6 1065.9 264.6 1066.2 264.6 1066.2 264.6 1066.6 264.6 1066.6 264.6 1067 264.6 1067 264.6 1067.4 264.6 1067.4 264.6 1067.8 264.6 1067.8 264.6 1068.1 264.6 1068.1 264.6 1068.5 264.6 1068.5 264.6 1068.9 264.6 1068.9 264.6 1069.2 264.6 1069.3 264.6 1069.6 264.6 1069.6 264.6 1070 264.6 1070 264.6 1070.4 264.6 1070.4 264.6 1070.8 264.6 1070.8 264.6 1071.1 264.6 1071.1 264.6 1071.5 264.6 1071.5 264.6 1071.9 264.6 1071.9 264.6 1072.2 264.6 1072.3 264.6 1072.6 264.6 1072.6 264.6 1073 264.6 1073 264.6 1073.4 264.6 1073.4 264.6 1073.7 264.6 1073.8 264.6 1074.1 264.6 1074.1 264.6 1074.5 264.6 1074.5 264.6 1074.9 264.6 1074.9 264.6 1075.2 264.6 1075.3 264.6 1075.6 264.6 1075.6 264.6 1076 264.6 1076 264.6 1076.4 264.6 1076.4 264.6 1076.7 264.6 1076.8 264.6 1077.1 264.6 1077.1 264.6 1077.5 264.6 1077.5 264.6 1077.9 264.6 1077.9 264.6 1078.2 264.6 1078.2 264.6 1078.6 264.6 1078.6 264.6 1079 264.6 1079 264.6 1079.4 264.6 1079.4 264.6 1079.7 264.6 1079.8 264.6 1080.1 264.6 1080.1 264.6 1080.5 264.6 1080.5 264.6 1080.9 264.6 1080.9 264.6 1081.2 264.6 1081.3 264.6 1081.6 264.6 1081.6 264.6 1082 264.6 1082 264.6 1082.3 479.5 1082.4 479.5 1082.4 479.5 1082.8 479.5 1082.8 479.5 1083.1 479.5 1083.1 479.5 1083.5 479.5 1083.5 479.5 1083.9 479.5 1083.9 479.5 1084.2 479.5 1084.3 479.5 1084.4 472 1084.6 472 1084.6 472 1085 472 1085 472 1085.4 472 1085.4 472 1085.5 477.4 1085.8 477.4 1085.8 477.4 1086.1 477.4 1086.1 477.4 1086.5 477.4 1086.5 477.4 1086.9 477.4 1086.9 477.4 1087.2 477.4 1087.3 477.4 1087.6 477.4 1087.6 477.4 1088 477.4 1088 477.4 1088.4 477.4 1088.4 477.4 1088.7 484.8 1088.7 484.8 1088.8 484.8 1089.1 484.8 1089.1 484.8 1089.5 484.8 1089.5 484.8 1089.9 484.8 1089.9 484.8 1090.2 484.8 1090.2 484.8 1090.6 484.8 1090.6 484.8 1091 484.8 1091 484.8 1091.4 484.8 1091.4 484.8 1091.7 484.8 1091.8 484.8 1092.1 484.8 1092.1 484.8 1092.5 484.8 1092.5 484.8 1092.9 484.8 1092.9 484.8 1093.2 484.8 1093.2 484.8 1093.6 484.8 1093.6 484.8 1094 484.8 1094 484.8 1094.4 484.8 1094.4 484.8 1094.8 484.8 1094.8 484.8 1095.1 484.8 1095.1 484.8 1095.5 484.8 1095.5 484.8 1095.9 484.8 1095.9 484.8 1096.2 484.8 1096.3 484.8 1096.6 484.8 1096.6 484.8 1097 484.8 1097 484.8 1097.4 484.8 1097.4 484.8 1097.8 484.8 1097.8 484.8 1098.1 484.8 1098.1 484.8 1098.5 484.8 1098.5 484.8 1098.9 484.8 1098.9 484.8 1099.2 484.8 1099.3 484.8 1099.6 484.8 1099.6 484.8 1100 484.8 1100 484.8 1100.4 484.8 1100.4 484.8 1100.7 484.8 1100.8 484.8 1101.1 484.8 1101.1 484.8 1101.5 484.8 1101.5 484.8 1101.9 484.8 1101.9 484.8 1102.1 479.8 1102.2 479.8 1102.2 479.8 1102.6 479.8 1102.6 479.8 1103 479.8 1103 479.8 1103.4 479.8 1103.4 479.8 1103.7 479.8 1103.8 479.8 1104.1 479.8 1104.1 479.8 1104.2 472.9 1104.5 472.9 1104.5 472.9 1104.9 472.9 1104.9 472.9 1105.2 472.9 1105.2 472.9 1105.6 472.9 1105.6 472.9 1106 472.9 1106 472.9 1106.4 478 1106.4 478 1106.4 478 1106.7 478 1106.8 478 1107.1 478 1107.1 478 1107.5 478 1107.5 478 1107.9 478 1107.9 478 1108.2 478 1108.3 478 1108.4 484.8 1108.6 484.8 1108.6 484.8 1109 484.8 1109 484.8 1109.4 484.8 1109.4 484.8 1109.8 484.8 1109.8 484.8 1110.1 484.8 1110.1 484.8 1110.5 484.8 1110.5 484.8 1110.6 478 1110.9 478 1110.9 478 1111.2 478 1111.3 478 1111.6 478 1111.6 478 1112 478 1112 478 1112.4 478 1112.4 478 1112.7 478 1112.8 478 1113.1 478 1113.1 478 1113.5 478 1113.5 478 1113.9 478 1113.9 478 1114.2 478 1114.3 478 1114.6 478 1114.6 478 1114.8 484.8 1115 484.8 1115 484.8 1115.4 484.8 1115.4 484.8 1115.7 484.8 1115.8 484.8 1116.1 484.8 1116.1 484.8 1116.5 484.8 1116.5 484.8 1116.9 484.8 1116.9 484.8 1117.2 484.8 1117.2 484.8 1117.6 484.8 1117.6 484.8 1118 484.8 1118 484.8 1118.4 484.8 1118.4 484.8 1118.7 484.8 1118.8 484.8 1119.1 484.8 1119.1 484.8 1119.5 484.8 1119.5 484.8 1119.9 484.8 1119.9 484.8 1120 478.3 1120.2 478.3 1120.2 478.3 1120.6 478.3 1120.6 478.3 1121 478.3 1121 478.3 1121.4 478.3 1121.4 478.3 1121.8 478.3 1121.8 478.3 1122.1 478.3 1122.1 478.3 1122.5 478.3 1122.5 478.3 1122.9 478.3 1122.9 478.3 1123.2 478.3 1123.3 478.3 1123.6 478.3 1123.6 478.3 1124 478.3 1124 478.3 1124.2 484.8 1124.4 484.8 1124.4 484.8 1124.8 484.8 1124.8 484.8 1125.1 484.8 1125.1 484.8 1125.5 484.8 1125.5 484.8 1125.9 484.8 1125.9 484.8 1126.2 484.8 1126.3 484.8 1126.6 484.8 1126.6 484.8 1127 484.8 1127 484.8 1127.4 484.8 1127.4 484.8 1127.7 484.8 1127.8 484.8 1128.1 484.8 1128.1 484.8 1128.5 484.8 1128.5 484.8 1128.9 484.8 1128.9 484.8 1129.2 484.8 1129.2 484.8 1129.6 484.8 1129.6 484.8 1130 484.8 1130 484.8 1130.4 484.8 1130.4 484.8 1130.7 484.8 1130.8 484.8 1131.1 484.8 1131.1 484.8 1131.5 484.8 1131.5 484.8 1131.9 484.8 1131.9 484.8 1132.2 484.8 1132.2 484.8 1132.6 484.8 1132.6 484.8 1133 484.8 1133 484.8 1133.4 484.8 1133.4 484.8 1133.7 484.8 1133.8 484.8 1134.1 484.8 1134.1 484.8 1134.5 484.8 1134.5 484.8 1134.9 484.8 1134.9 484.8 1135.2 484.8 1135.3 484.8 1135.6 484.8 1135.6 484.8 1136 484.8 1136 484.8 1136.4 484.8 1136.4 484.8 1136.8 484.8 1136.8 484.8 1137.1 484.8 1137.1 484.8 1137.5 484.8 1137.5 484.8 1137.9 484.8 1137.9 484.8 1138.2 484.8 1138.3 484.8 1138.6 484.8 1138.6 484.8 1139 484.8 1139 484.8 1139.4 484.8 1139.4 484.8 1139.7 484.8 1139.8 484.8 1140.1 484.8 1140.1 484.8 1140.5 484.8 1140.5 484.8 1140.9 484.8 1140.9 484.8 1141.2 484.8 1141.3 484.8 1141.6 484.8 1141.6 484.8 1141.7 480.4 1142 480.4 1142 480.4 1142.4 480.4 1142.4 480.4 1142.7 480.4 1142.8 480.4 1143.1 480.4 1143.1 480.4 1143.5 480.4 1143.5 480.4 1143.9 480.4 1143.9 480.4 1144.2 480.4 1144.2 480.4 1144.6 480.4 1144.6 480.4 1145 480.4 1145 480.4 1145.4 480.4 1145.4 480.4 1145.7 480.4 1145.8 480.4 1146 484.8 1146.1 477.7 1146.1 477.7 1146.1 477.7 1146.2 459.9 1146.5 459.9 1146.5 459.9 1146.9 459.9 1146.9 459.9 1147.2 459.9 1147.3 459.9 1147.6 459.9 1147.6 459.9 1147.8 456.3 1148 456.3 1148 456.3 1148.4 456.3 1148.4 456.3 1148.5 264.6 1148.8 264.6 1148.8 264.6 1149.1 264.6 1149.1 264.6 1149.5 264.6 1149.5 264.6 1149.9 264.6 1149.9 264.6 1150.2 264.6 1150.3 264.6 1150.6 264.6 1150.6 264.6 1151 264.6 1151 264.6 1151.4 264.6 1151.4 264.6 1151.8 264.6 1151.8 264.6 1152.1 264.6 1152.1 264.6 1152.5 264.6 1152.5 264.6 1152.9 264.6 1152.9 264.6 1153.2 264.6 1153.3 264.6 1153.6 264.6 1153.6 264.6 1154 264.6 1154 264.6 1154.4 264.6 1154.4 264.6 1154.7 264.6 1154.8 264.6 1155.1 264.6 1155.1 264.6 1155.5 264.6 1155.5 264.6 1155.9 264.6 1155.9 264.6 1156.2 264.6 1156.2 264.6 1156.6 264.6 1156.6 264.6 1157 264.6 1157 264.6 1157.4 264.6 1157.4 264.6 1157.7 264.6 1157.8 264.6 1158.1 264.6 1158.1 264.6 1158.5 264.6 1158.5 264.6 1158.9 264.6 1158.9 264.6 1159.2 264.6 1159.2 264.6 1159.6 264.6 1159.6 264.6 1160 264.6 1160 264.6 1160.4 264.6 1160.4 264.6 1160.6 459.6 1160.8 459.6 1160.8 459.6 1161.1 484.8 1161.1 484.8 1161.1 484.8 1161.5 484.8 1161.5 484.8 1161.9 484.8 1161.9 484.8 1162.2 484.8 1162.3 484.8 1162.6 484.8 1162.6 484.8 1163 484.8 1163 484.8 1163.4 484.8 1163.4 484.8 1163.8 484.8 1163.8 484.8 1164.1 484.8 1164.1 484.8 1164.5 484.8 1164.5 484.8 1164.9 484.8 1164.9 484.8 1165.2 484.8 1165.3 484.8 1165.6 484.8 1165.6 484.8 1166 484.8 1166 484.8 1166.4 484.8 1166.4 484.8 1166.7 484.8 1166.8 484.8 1167.1 484.8 1167.1 484.8 1167.5 484.8 1167.5 484.8 1167.9 484.8 1167.9 484.8 1168.2 484.8 1168.3 484.8 1168.6 484.8 1168.6 484.8 1169 484.8 1169 484.8 1169.4 484.8 1169.4 484.8 1169.7 484.8 1169.8 484.8 1170 478 1170.1 478 1170.1 478 1170.5 478 1170.5 478 1170.9 478 1170.9 478 1171.2 478 1171.2 478 1171.3 465.2 1171.6 465.2 1171.6 465.2 1172 465.2 1172 465.2 1172 460.8 1172.4 460.8 1172.4 460.8 1172.7 460.8 1172.8 460.8 1172.9 264.6 1173.1 264.6 1173.1 264.6 1173.5 264.6 1173.5 264.6 1173.9 264.6 1173.9 264.6 1174.2 460.2 1174.3 460.5 1174.3 461.7 1174.4 459 1174.6 459 1174.6 459 1175 455.4 1175 455.4 1175 455.4 1175.4 455.4 1175.4 455.4 1175.6 468.2 1175.8 468.2 1175.8 468.2 1176.1 468.2 1176.1 468.2 1176.3 472.6 1176.5 472.6 1176.5 472.6 1176.9 472.6 1176.9 472.6 1177.2 478.6 1177.2 478.6 1177.3 478.6 1177.6 478.6 1177.6 478.6 1178 478.6 1178 478.6 1178.4 478.6 1178.4 478.6 1178.6 477.4 1178.6 480.1 1178.7 480.1 1178.8 480.1 1179.1 480.1 1179.1 480.1 1179.2 483.6 1179.5 483.6 1179.5 483.6 1179.9 483.6 1179.9 483.6 1180.2 483.6 1180.3 483.6 1180.6 483.6 1180.6 483.6 1181 483.6 1181 483.6 1181.4 483.6 1181.4 483.6 1181.7 483.6 1181.8 483.6 1182.1 483.6 1182.1 483.6 1182.5 483.6 1182.5 483.6 1182.9 483.6 1182.9 483.6 1182.9 484.8 1183.2 484.8 1183.2 484.8 1183.6 484.8 1183.6 484.8 1184 484.8 1184 484.8 1184.4 484.8 1184.4 484.8 1184.7 484.8 1184.8 484.8 1185.1 484.8 1185.1 484.8 1185.5 484.8 1185.5 484.8 1185.9 484.8 1185.9 484.8 1186.2 484.8 1186.2 484.8 1186.6 484.8 1186.6 484.8 1187 484.8 1187 484.8 1187.4 484.8 1187.4 484.8 1187.8 484.8 1187.8 484.8 1188.1 484.8 1188.1 484.8 1188.5 484.8 1188.5 484.8 1188.9 484.8 1188.9 484.8 1189.2 484.8 1189.3 484.8 1189.6 484.8 1189.6 484.8 1190 484.8 1190 484.8 1190.4 484.8 1190.4 484.8 1190.8 484.8 1190.8 484.8 1191.1 484.8 1191.1 484.8 1191.5 484.8 1191.5 484.8 1191.9 484.8 1191.9 484.8 1192.2 484.8 1192.3 484.8 1192.6 484.8 1192.6 484.8 1193 484.8 1193 484.8 1193.4 484.8 1193.4 484.8 1193.6 480.9 1193.7 480.9 1193.8 480.9 1194.1 480.9 1194.1 480.9 1194.5 480.9 1194.5 480.9 1194.9 480.9 1194.9 480.9 1195.2 480.9 1195.2 480.9 1195.6 480.9 1195.6 480.9 1196 480.9 1196 480.9 1196.4 480.9 1196.4 480.9 1196.7 480.9 1196.8 480.9 1197.1 480.9 1197.1 480.9 1197.5 480.9 1197.5 480.9 1197.8 484.8 1197.9 484.8 1197.9 484.8 1198.2 484.8 1198.2 484.8 1198.6 484.8 1198.6 484.8 1199 484.8 1199 484.8 1199.4 484.8 1199.4 484.8 1199.7 484.8 1199.8 484.8 1200.1 484.8 1200.1 484.8 1200.5 484.8 1200.5 484.8 1200.9 484.8 1200.9 484.8 1201.2 484.8 1201.3 484.8 1201.5 480.1 1201.6 480.1 1201.6 480.1 1202 480.1 1202 480.1 1202.4 480.1 1202.4 480.1 1202.8 480.1 1202.8 480.1 1203.1 480.1 1203.1 480.1 1203.5 480.1 1203.5 480.1 1203.9 480.1 1203.9 480.1 1204.2 480.1 1204.3 480.1 1204.6 480.1 1204.6 480.1 1205 480.1 1205 480.1 1205.4 480.1 1205.4 480.1 1205.7 480.1 1205.8 480.1 1205.8 484.8 1206.1 484.8 1206.1 484.8 1206.5 484.8 1206.5 484.8 1206.9 484.8 1206.9 484.8 1207.2 484.8 1207.3 484.8 1207.6 484.8 1207.6 484.8 1208 484.8 1208 484.8 1208.4 484.8 1208.4 484.8 1208.7 484.8 1208.8 484.8 1209.1 484.8 1209.1 484.8 1209.5 484.8 1209.5 484.8 1209.7 477.7 1209.9 477.7 1209.9 477.7 1210.2 477.7 1210.2 477.7 1210.4 475.3 1210.6 475.3 1210.6 475.3 1211 475.3 1211 475.3 1211.4 475.3 1211.4 475.3 1211.7 475.3 1211.8 475.3 1212.1 475.3 1212.1 475.3 1212.5 475.3 1212.5 475.3 1212.9 475.3 1212.9 475.3 1213.2 475.3 1213.2 475.3 1213.6 475.3 1213.6 475.3 1214 482.4 1214 482.4 1214 482.4 1214.4 482.4 1214.4 482.4 1214.7 484.8 1214.8 484.8 1214.8 484.8 1215.1 484.8 1215.1 484.8 1215.5 484.8 1215.5 484.8 1215.9 484.8 1215.9 484.8 1216.2 484.8 1216.3 484.8 1216.6 484.8 1216.6 484.8 1217 484.8 1217 484.8 1217.4 484.8 1217.4 484.8 1217.8 484.8 1217.8 484.8 1218.1 484.8 1218.1 484.8 1218.5 484.8 1218.5 484.8 1218.9 484.8 1218.9 484.8 1219.2 484.8 1219.3 484.8 1219.5 480.1 1219.6 480.1 1219.6 480.1 1219.8 473.8 1220 473.8 1220 473.8 1220.4 473.8 1220.4 473.5 1220.4 471.8 1220.7 471.8 1220.8 471.8 1221.1 471.8 1221.1 471.8 1221.5 471.8 1221.5 471.8 1221.9 471.8 1221.9 471.8 1222.2 471.8 1222.2 471.8 1222.5 469.1 1222.6 469.1 1222.6 469.1 1222.9 457.5 1223 457.5 1223 457.5 1223.2 264.6 1223.4 264.6 1223.4 264.6 1223.7 264.6 1223.8 264.6 1224.1 264.6 1224.1 264.6 1224.5 264.6 1224.5 264.6 1224.9 264.6 1224.9 264.6 1225.2 264.6 1225.2 264.6 1225.6 264.6 1225.6 264.6 1226 264.6 1226 264.6 1226.4 264.6 1226.4 264.6 1226.7 264.6 1226.8 264.6 1227.1 264.6 1227.1 264.6 1227.5 264.6 1227.5 264.6 1227.9 264.6 1227.9 264.6 1228.2 264.6 1228.3 264.6 1228.6 264.6 1228.6 264.6 1229 264.6 1229 264.6 1229.4 264.6 1229.4 264.6 1229.8 264.6 1229.8 264.6 1230.1 264.6 1230.1 264.6 1230.5 264.6 1230.5 264.6 1230.9 264.6 1230.9 264.6 1231.2 264.6 1231.3 264.6 1231.6 264.6 1231.6 264.6 1232 264.6 1232 264.6 1232.4 264.6 1232.4 264.6 1232.7 264.6 1232.8 264.6 1233.1 264.6 1233.1 264.6 1233.5 264.6 1233.5 264.6 1233.9 264.6 1233.9 264.6 1234.2 264.6 1234.3 264.6 1234.6 264.6 1234.6 264.6 1235 264.6 1235 264.6 1235.4 264.6 1235.4 264.6 1235.7 264.6 1235.8 264.6 1236.1 264.6 1236.1 264.6 1236.5 264.6 1236.5 264.6 1236.9 264.6 1236.9 264.6 1237.2 264.6 1237.2 264.6 1237.6 264.6 1237.6 264.6 1238 264.6 1238 264.6 1238.4 264.6 1238.4 264.6 1238.7 264.6 1238.8 264.6 1238.9 475 1239.1 475 1239.1 475 1239.5 475 1239.5 475 1239.9 475 1239.9 475 1240.2 475 1240.3 475 1240.3 470 1240.6 470 1240.6 470 1241 470 1241 470 1241.4 470 1241.4 470 1241.5 479.8 1241.8 479.8 1241.8 479.8 1242.1 479.8 1242.1 479.8 1242.5 479.8 1242.5 479.8 1242.9 479.8 1242.9 479.8 1243.2 479.8 1243.3 479.8 1243.6 479.8 1243.6 479.8 1244 479.8 1244 479.8 1244.4 479.8 1244.4 479.8 1244.6 484.8 1244.8 484.8 1244.8 484.8 1245.1 484.8 1245.1 484.8 1245.5 484.8 1245.5 484.8 1245.9 484.8 1245.9 484.8 1246.2 484.8 1246.3 484.8 1246.6 484.8 1246.6 484.8 1247 484.8 1247 484.8 1247.3 480.1 1247.4 480.1 1247.4 480.1 1247.7 480.1 1247.8 480.1 1248.1 480.1 1248.1 480.1 1248.5 480.1 1248.5 480.1 1248.9 480.1 1248.9 480.1 1249.2 480.1 1249.2 480.1 1249.6 480.1 1249.6 480.1 1250 480.1 1250 480.1 1250.4 480.1 1250.4 480.1 1250.7 480.1 1250.8 480.1 1251.1 480.1 1251.1 480.1 1251.5 480.1 1251.5 480.1 1251.6 484.8 1251.6 479.5 1251.9 479.5 1251.9 479.5 1252.2 479.5 1252.2 479.5 1252.6 479.5 1252.6 479.5 1253 479.5 1253 479.5 1253.4 479.5 1253.4 479.5 1253.8 479.5 1253.8 479.5 1254.1 479.5 1254.1 479.5 1254.3 475 1254.5 475 1254.5 475 1254.9 475 1254.9 475 1255.2 475 1255.3 475 1255.6 475 1255.6 475 1255.9 480.4 1256 480.4 1256 480.4 1256.4 480.4 1256.4 480.4 1256.8 480.4 1256.8 480.4 1257.1 480.4 1257.1 480.4 1257.5 480.4 1257.5 480.4 1257.9 480.4 1257.9 480.4 1258.2 480.4 1258.3 480.4 1258.6 484.8 1258.6 484.8 1258.6 484.8 1259 484.8 1259 484.8 1259.4 484.8 1259.4 484.8 1259.7 484.8 1259.8 484.8 1260.1 484.8 1260.1 484.8 1260.5 484.8 1260.5 484.8 1260.7 481.5 1260.9 481.5 1260.9 481.5 1261.2 481.5 1261.3 481.5 1261.6 481.5 1261.6 481.5 1262 481.5 1262 481.5 1262.4 481.5 1262.4 481.5 1262.7 481.5 1262.8 481.5 1263.1 481.5 1263.1 481.5 1263.5 481.5 1263.5 481.5 1263.9 481.5 1263.9 481.5 1264.2 481.5 1264.2 481.5 1264.6 481.5 1264.6 481.5 1265 484.8 1265 484.8 1265 484.8 1265.4 484.8 1265.4 484.8 1265.7 484.8 1265.8 484.8 1266.1 484.8 1266.1 484.8 1266.5 484.8 1266.5 484.8 1266.9 484.8 1266.9 484.8 1267.2 484.8 1267.3 484.8 1267.6 484.8 1267.6 484.8 1268 484.8 1268 484.8 1268.4 484.8 1268.4 484.8 1268.8 484.8 1268.8 484.8 1269.1 484.8 1269.1 484.8 1269.5 484.8 1269.5 484.8 1269.9 484.8 1269.9 484.8 1270.2 484.8 1270.3 484.8 1270.6 484.8 1270.6 484.8 1271 484.8 1271 484.8 1271.4 484.8 1271.4 484.8 1271.8 484.8 1271.8 484.8 1272.1 484.8 1272.1 484.8 1272.5 484.8 1272.5 484.8 1272.9 484.8 1272.9 484.8 1273.2 484.8 1273.3 484.8 1273.6 484.8 1273.6 484.8 1274 484.8 1274 484.8 1274.4 484.8 1274.4 484.8 1274.7 484.8 1274.8 484.8 1275.1 484.8 1275.1 484.8 1275.5 484.8 1275.5 484.8 1275.8 480.4 1275.9 480.4 1275.9 480.4 1276.2 480.4 1276.2 480.4 1276.6 480.4 1276.6 480.4 1277 480.4 1277 480.4 1277.4 480.4 1277.4 480.4 1277.7 480.4 1277.8 480.4 1278.1 480.4 1278.1 480.4 1278.5 480.4 1278.5 480.4 1278.9 480.4 1278.9 480.4 1279.2 480.4 1279.2 480.4 1279.6 480.4 1279.6 480.4 1280 483.3 1280 483.6 1280 484.8 1280.4 484.8 1280.4 484.8 1280.8 484.8 1280.8 484.8 1281.1 484.8 1281.1 484.8 1281.5 484.8 1281.5 484.8 1281.6 481.5 1281.9 481.5 1281.9 481.5 1282.2 481.5 1282.3 481.5 1282.6 481.5 1282.6 481.5 1283 481.5 1283 481.5 1283.4 481.5 1283.4 481.5 1283.8 481.5 1283.8 481.5 1284.1 481.5 1284.1 481.5 1284.5 481.5 1284.5 481.5 1284.9 481.5 1284.9 481.5 1285.2 481.5 1285.3 481.5 1285.6 481.5 1285.6 481.5 1285.9 484.8 1286 484.8 1286 484.8 1286.4 484.8 1286.4 484.8 1286.7 484.8 1286.8 484.8 1287.1 484.8 1287.1 484.8 1287.5 484.8 1287.5 484.8 1287.9 484.8 1287.9 484.8 1288.2 484.8 1288.3 484.8 1288.6 484.8 1288.6 484.8 1289 484.8 1289 484.8 1289.4 484.8 1289.4 484.8 1289.7 484.8 1289.8 484.8 1290.1 484.8 1290.1 484.8 1290.5 484.8 1290.5 484.8 1290.9 484.8 1290.9 484.8 1291.2 484.8 1291.2 484.8 1291.6 484.8 1291.6 484.8 1292 482.7 1292 482.4 1292 481.5 1292.4 481.5 1292.4 481.5 1292.7 481.5 1292.8 481.5 1293.1 481.5 1293.1 481.5 1293.5 481.5 1293.5 481.5 1293.9 481.5 1293.9 481.5 1294.2 481.5 1294.3 481.5 1294.6 481.5 1294.6 481.5 1295 481.5 1295 481.5 1295.4 481.5 1295.4 481.5 1295.8 481.5 1295.8 481.5 1296.1 481.5 1296.1 481.5 1296.3 484.8 1296.5 484.8 1296.5 484.8 1296.9 484.8 1296.9 484.8 1297.2 484.8 1297.3 484.8 1297.6 484.8 1297.6 484.8 1298 484.8 1298 484.8 1298.4 484.8 1298.4 484.8 1298.7 484.8 1298.8 484.8 1299.1 484.8 1299.1 484.8 1299.5 484.8 1299.5 484.8 1299.9 484.8 1299.9 484.8 1300.2 484.8 1300.3 484.8 1300.6 484.8 1300.6 484.8 1301 484.8 1301 484.8 1301.4 484.8 1301.4 484.8 1301.7 484.8 1301.8 484.8 1301.9 482.1 1302.1 482.1 1302.1 482.1 1302.5 482.1 1302.5 482.1 1302.9 482.1 1302.9 482.1 1303 471.5 1303.2 471.5 1303.2 471.5 1303.6 471.5 1303.6 471.5 1304 264.6 1304 264.6 1304 264.6 1304.4 264.6 1304.4 264.6 1304.7 264.6 1304.8 264.6 1305.1 264.6 1305.1 264.6 1305.5 264.6 1305.5 264.6 1305.9 264.6 1305.9 264.6 1306.2 264.6 1306.2 264.6 1306.6 264.6 1306.6 264.6 1307 264.6 1307 264.6 1307.4 264.6 1307.4 264.6 1307.8 264.6 1307.8 264.6 1308.1 264.6 1308.1 264.6 1308.5 264.6 1308.5 264.6 1308.9 264.6 1308.9 264.6 1309.2 264.6 1309.3 264.6 1309.6 264.6 1309.6 264.6 1310 264.6 1310 264.6 1310.4 264.6 1310.4 264.6 1310.8 264.6 1310.8 264.6 1311.1 264.6 1311.1 264.6 1311.5 264.6 1311.5 264.6 1311.8 460.2 1311.9 460.2 1311.9 460.2 1312.2 460.2 1312.3 460.2 1312.3 264.6 1312.6 264.6 1312.6 264.6 1313 264.6 1313 264.6 1313.4 264.6 1313.4 264.6 1313.7 264.6 1313.8 264.6 1314.1 264.6 1314.1 264.6 1314.5 264.6 1314.5 264.6 1314.9 264.6 1314.9 264.6 1315.1 458.1 1315.2 458.1 1315.2 458.1 1315.6 458.1 1315.6 458.1 1316 458.1 1316 458.1 1316.2 264.6 1316.4 264.6 1316.4 264.6 1316.6 467.6 1316.7 467.6 1316.8 467.6 1316.8 478.6 1317.1 478.6 1317.1 478.6 1317.5 478.6 1317.5 478.6 1317.9 478.6 1317.9 478.6 1318.2 478.6 1318.2 478.6 1318.6 478.6 1318.6 478.6 1319 478.6 1319 478.6 1319.4 478.6 1319.4 478.6 1319.7 478.6 1319.8 478.6 1320.1 478.6 1320.1 478.6 1320.5 484.8 1320.5 484.8 1320.5 484.8 1320.9 484.8 1320.9 484.8 1321.2 484.8 1321.3 484.8 1321.6 484.8 1321.6 484.8 1322 484.8 1322 484.8 1322.4 484.8 1322.4 484.8 1322.6 470.9 1322.8 470.9 1322.8 470.9 1323.1 470.9 1323.1 470.9 1323.5 470.9 1323.5 470.9 1323.9 470.9 1323.9 470.9 1324.2 470.9 1324.3 470.9 1324.6 470.9 1324.6 470.9 1325 470.9 1325 470.9 1325.4 470.9 1325.4 470.9 1325.7 470.9 1325.8 470.9 1326.1 470.9 1326.1 470.9 1326.5 470.9 1326.5 470.9 1326.8 478.3 1326.9 478.3 1326.9 478.3 1326.9 484.8 1327.2 484.8 1327.3 484.8 1327.6 484.8 1327.6 484.8 1328 484.8 1328 484.8 1328.4 484.8 1328.4 484.8 1328.7 484.8 1328.8 484.8 1329.1 484.8 1329.1 484.8 1329.5 484.8 1329.5 484.8 1329.6 479.2 1329.9 479.2 1329.9 479.2 1330.2 479.2 1330.2 479.2 1330.6 479.2 1330.6 479.2 1331 479.2 1331 479.2 1331.4 479.2 1331.4 479.2 1331.7 479.2 1331.8 479.2 1332.1 479.2 1332.1 479.2 1332.5 479.2 1332.5 479.2 1332.7 478.3 1332.9 478.3 1332.9 478.3 1333.1 477.7 1333.2 477.7 1333.3 477.7 1333.6 477.7 1333.6 477.7 1333.9 483.3 1334 483.3 1334 483.3 1334.4 483.3 1334.4 483.3 1334.8 483.3 1334.8 483.3 1335.1 483.3 1335.1 483.3 1335.5 483.3 1335.5 483.3 1335.9 483.3 1335.9 483.3 1336 479.5 1336.2 479.5 1336.3 479.5 1336.6 479.5 1336.6 479.5 1337 480.4 1337 480.4 1337 480.4 1337.3 480.9 1337.4 480.9 1337.4 480.9 1337.8 480.9 1337.8 480.9 1338 484.8 1338.1 484.8 1338.1 484.8 1338.5 484.8 1338.5 484.8 1338.9 484.8 1338.9 484.8 1339.2 484.8 1339.3 484.8 1339.6 484.8 1339.6 484.8 1340 484.8 1340 484.8 1340.4 484.8 1340.4 484.8 1340.7 484.8 1340.8 484.8 1341.1 484.8 1341.1 484.8 1341.5 484.8 1341.5 484.8 1341.9 484.8 1341.9 484.8 1342.2 484.8"/>
        <rect class="cls-11" x="1326.2" y="272.4" width="94.8" height="40.2"/>
        <text class="cls-5" transform="translate(1361.5 283.6)"><tspan x="0" y="0">Hand Position</tspan></text>
        <line class="cls-6" x1="1329.2" y1="280" x2="1359.3" y2="280"/>
        <text class="cls-5" transform="translate(1361.5 296.1)"><tspan x="0" y="0">Wrist Position</tspan></text>
        <line class="cls-9" x1="1329.2" y1="292.5" x2="1359.3" y2="292.5"/>
        <text class="cls-5" transform="translate(1361.5 308.6)"><tspan x="0" y="0">Features</tspan></text>
        <line class="cls-7" x1="1329.2" y1="305" x2="1359.3" y2="305"/>
        <rect class="cls-10" x="1326.2" y="272.4" width="94.8" height="40.2"/>
        <path class="cls-8" d="M536.5,734.6h892.8M536.5,734.6v-8.9M664,734.6v-8.9M791.6,734.6v-8.9M919.1,734.6v-8.9M1046.7,734.6v-8.9M1174.2,734.6v-8.9M1301.8,734.6v-8.9M1429.3,734.6v-8.9"/>
        <text class="cls-2" transform="translate(533.5 748.8)"><tspan x="0" y="0">05</tspan></text>
        <text class="cls-1" transform="translate(785.9 748.8)"><tspan x="0" y="0">10</tspan></text>
        <text class="cls-1" transform="translate(913.4 748.8)"><tspan x="0" y="0">15</tspan></text>
        <text class="cls-1" transform="translate(1041 748.8)"><tspan x="0" y="0">20</tspan></text>
        <text class="cls-1" transform="translate(1168.5 748.8)"><tspan x="0" y="0">25</tspan></text>
        <text class="cls-1" transform="translate(1296.1 748.8)"><tspan x="0" y="0">30</tspan></text>
        <text class="cls-1" transform="translate(1423.6 748.8)"><tspan x="0" y="0">35</tspan></text>
        <text class="cls-4" transform="translate(957.4 763.6)"><tspan x="0" y="0">Time [sec]</tspan></text>
        <path class="cls-8" d="M536.5,734.6v-220.2M536.5,734.6h8.9M536.5,514.4h8.9"/>
        <text class="cls-1" transform="translate(453.3 738.5)"><tspan x="0" y="0">Closed/Supinated</tspan></text>
        <text class="cls-1" transform="translate(464.7 518.3)"><tspan x="0" y="0">Open/Pronated</tspan></text>
        <text class="cls-4" transform="translate(527.1 648.8) rotate(-90)"><tspan x="0" y="0">Amplitude</tspan></text>
        <text class="cls-3" transform="translate(864 509.7)"><tspan x="0" y="0" xml:space="preserve"> Feature 2: Kinematics and Neural Feature</tspan></text>
        <path class="cls-6" d="M536.5,734.6h27.3M564.5,734.6l.5-.2h0s.7-1.4.7-1.4h0s.7-3,.7-3h0s.7-4.6.7-4.6h0s.7-8.4.7-8.4h0s.7-7.9.7-7.9h0s.7-9.9.7-9.9h0s.4-2.8.4-2.8l.4,1.1h0s.1.2.1.2l.6-7h0s.7-19.7.7-19.7h0s.7-23.3.7-23.3h0s.7-16.1.7-16.1h0s.7-12.9.7-12.9h0s.7-13.1.7-13.1h0s.7-12.6.7-12.6h0s.7-16.1.7-16.1h0s.8-12.8.8-12.8h0s.7-10.2.7-10.2h0s.7-10.9.7-10.9h0s.7-10.4.7-10.4h0s.7-6.4.7-6.4h0s.7-5.3.7-5.3h0s.7-4.7.7-4.7h0s.7-1.8.7-1.8h0s.2-.2.2-.2M583.1,514.3h.1s.5,0,.5,0h.8s0,0,0,0h.7c0,0,0,0,0,0l.7,1h0s.7,1.7.7,1.7h0s0,0,0,0l.4-.4.3.7h0s.7,5.6.7,5.6h0s.7,13.4.7,13.4h0s.8,12.5.8,12.5h0s.7,10.8.7,10.8h0s.7,10.7.7,10.7h0s.7,14.2.7,14.2h0s.7,15.6.7,15.6h0s.7,12.7.7,12.7h0s.7,13.2.7,13.2h0s.7,13.2.7,13.2h0s.7,17.4.7,17.4h0s.7,12.8.7,12.8h0s.7,11.6.7,11.6h0s.7,10.7.7,10.7h0s.7,11.6.7,11.6h0s.7,10.6.7,10.6h0s.7,6.8.7,6.8h0s.7,5.8.7,5.8h0s.7,5.3.7,5.3h0s.7,2.1.7,2.1h0s.8.5.8.5h.4M603.8,734.6h.2s0,0,0,0h.3s.5,0,.5,0h37.5s0,0,0,0h.3M642.7,734.6h.3s0,0,0,0l.7-.3h0s.7-1.8.7-1.8h0s.7-3.2.7-3.2h0s.7-6.5.7-6.5h0s.7-7.7.7-7.7h0s.7-7.8.7-7.8h0s.7-10.4.7-10.4h0s.7-13.8.7-13.8h0s.7-11.4.7-11.4h0s.7-12.2.7-12.2h0s.7-12.5.7-12.5h0s.7-17.1.7-17.1h0s.7-14.6.7-14.6h0s.7-12.6.7-12.6h0s.7-14.7.7-14.7h0s.7-15.3.7-15.3h0s.7-10.9.7-10.9h0s.8-10.5.8-10.5h0s.7-12.3.7-12.3h0s.7-7.8.7-7.8h0s.7-6.2.7-6.2h0s.7-5.8.7-5.8h0s.7-3.5.7-3.5h0s.7-1.1.7-1.1h0s.7-.1.7-.1M661.9,514.3h.4s.2,0,.2,0h.4s.3,0,.3,0h0s0,0,0,0h.2M663.7,514.3h.3c0,.1,0,.1,0,.1l.7,1.3h0s.7,4.2.7,4.2h0s.7,5.2.7,5.2h0s.7,7,.7,7h0s.5,3.5.5,3.5l.2-.4h0s.3-.6.3-.6l.5,3.6h0s.7,14.7.7,14.7h0s.8,21.2.8,21.2h0s.7,11.6.7,11.6h0s.7,17.1.7,17.1h0s.7,13.5.7,13.5h0s.7,12.8.7,12.8h0s.7,16.2.7,16.2h0s.7,15.1.7,15.1h0s.7,11.9.7,11.9h0s.7,11.5.7,11.5h0s.7,11,.7,11h0s.7,12.7.7,12.7h0s.7,8,.7,8h0s.7,6.6.7,6.6h0s.7,6.5.7,6.5h0s.7,3.9.7,3.9h0s.7,1.6.7,1.6h0s.6.4.6.4M682.3,734.6h.2s.2,0,.2,0h38.2s0,0,0,0h.3s.2,0,.2,0M721.8,734.6l.7-.7h0s.8-2.1.8-2.1h0s.7-4.3.7-4.3h0s.7-7.2.7-7.2h0s.7-7.1.7-7.1h0s.7-8.3.7-8.3h0s.7-13.1.7-13.1h0s.7-11.5.7-11.5h0s.7-11.7.7-11.7h0s.7-12.1.7-12.1h0s.7-14.9.7-14.9h0s.7-16.6.7-16.6h0s.7-12.8.7-12.8h0s.7-13.2.7-13.2h0s.7-16.9.7-16.9h0s.7-12,.7-12h0s.7-10.8.7-10.8h0s.7-12.6.7-12.6h0s.8-10.1.8-10.1h0s.7-7.1.7-7.1h0s.7-5.9.7-5.9h0s.7-4.7.7-4.7h0s.7-3.6.7-3.6h0s.7-.8.7-.8h0s.1,0,.1,0M740.4,514.3h.1s0,0,0,0h.1s.6,0,.6,0h.3M742.1,514.3l.6.4h0s.7,1.6.7,1.6h0s.7,3.9.7,3.9h0s.7,6.5.7,6.5h0s.7,6.7.7,6.7h0s.7,8.1.7,8.1h0s.2.4.2.4l.5-1.1v.2c.1,0,.1,0,.1,0l.7,10.5h0s.7,21.2.7,21.2h0s.8,19.6.8,19.6h0s.7,14.5.7,14.5h0s.7,12.8.7,12.8h0s.7,13.1.7,13.1h0s.7,13.5.7,13.5h0s.7,17.1.7,17.1h0s.7,12.1.7,12.1h0s.7,11.1.7,11.1h0s.7,13.2.7,13.2h0s.7,10.2.7,10.2h0s.7,7.4.7,7.4h0s.7,7,.7,7h0s.7,6.1.7,6.1h0s.7,2.7.7,2.7h0s.7,1.3.7,1.3h0s.3.1.3.1M760.5,734.6h.2s0,0,0,0h0s.3,0,.3,0h.4s0,0,0,0h.2s.6,0,.6,0h37.5s0,0,0,0h0M800.2,734.6h.3c0,0,0,0,0,0l.7-1h0s.7-2.5.7-2.5h0s.8-5.9.8-5.9h0s.7-6.4.7-6.4h0s.7-7.5.7-7.5h0s.7-8.5.7-8.5h0s.7-11.6.7-11.6h0s.7-13.9.7-13.9h0s.7-11.6.7-11.6h0s.7-12.7.7-12.7h0s.7-17.5.7-17.5h0s.7-13.4.7-13.4h0s.7-14.1.7-14.1h0s.4-3.6.4-3.6l.4,1.4h0s.1.3.1.3l.6-9.1h0s.7-21.6.7-21.6h0s.7-19.8.7-19.8h0s.7-9.4.7-9.4h0s.7-11.4.7-11.4h0s.7-6.9.7-6.9h0s.8-5.6.8-5.6h0s.7-5,.7-5h0s.7-2.5.7-2.5h0s.5-.4.5-.4M818.8,514.3h.1s.4,0,.4,0h.2s.5,0,.5,0h.7c0,.1,0,.1,0,.1l.7.4h0s.7,2.1.7,2.1h0s.7,5.3.7,5.3h0s.7,5.8.7,5.8h0s.7,6.8.7,6.8h0s.7,10.6.7,10.6h0s.7,11.6.7,11.6h0s.7,10.5.7,10.5h0s.7,12.7.7,12.7h0s.7,16.5.7,16.5h0s.8,12.8.8,12.8h0s.7,13.2.7,13.2h0s.7,12.9.7,12.9h0s.7,16.7.7,16.7h0s.7,14.1.7,14.1h0s.7,11.4.7,11.4h0s.7,12.5.7,12.5h0s.7,12.8.7,12.8h0s.7,8.4.7,8.4h0s.7,7.3.7,7.3h0s.2.3.2.3l.5-.8h.1c0,.1,0,.1,0,.1l.7,7.2h0s.7,6.8.7,6.8h0s.6,2,.6,2M839,734.6h0s.4,0,.4,0M839.5,734.6h.4s.3,0,.3,0h38.3M879.3,734.6l.7-1.4h0s.7-3.6.7-3.6h0s.6-2.2.6-2.2l.2.2h0s.3.4.3.4l.4-1.9h0s.7-9.5.7-9.5h0s.7-16.9.7-16.9h0s.7-13.8.7-13.8h0s.7-11.5.7-11.5h0s.7-12.1.7-12.1h0s.7-12.3.7-12.3h0s.7-15.8.7-15.8h0s.7-16,.7-16h0s.7-12.6.7-12.6h0s.7-13.6.7-13.6h0s.7-16.4.7-16.4h0s.7-11.3.7-11.3h0s.7-10.4.7-10.4h0s.7-12.3.7-12.3h0s.7-8.9.7-8.9h0s.7-6.5.7-6.5h0s.7-5.2.7-5.2h0s.8-3.9.8-3.9h0s.7-2.5.7-2.5h0s.7-.2.7-.2h.1M897.6,514.3h.4s0,0,0,0h.6s.2,0,.2,0h.1s.2,0,.2,0M899.5,514.3h0s0,0,0,0l.7.9h0s.7,3.5.7,3.5h0s.7,5.2.7,5.2h0s.7,5.9.7,5.9h0s.7,8.1.7,8.1h0s.7,11.8.7,11.8h0s.7,10.1.7,10.1h0s.7,11.1.7,11.1h0s.7,11.6.7,11.6h0s.7,16.2.7,16.2h0s.7,14.7.7,14.7h0s.7,12.7.7,12.7h0s.8,14.9.8,14.9h0s.7,16.6.7,16.6h0s.7,12,.7,12h0s.7,11.7.7,11.7h0s.7,11.3.7,11.3h0s.2,1.2.2,1.2l.5-1.3h0s0,0,0,0l.7,9.9h0s.7,15.1.7,15.1h0s.7,10.4.7,10.4h0s.7,4.3.7,4.3h0s.7,1.9.7,1.9h0s.7.6.7.6M918,734.6h.2s0,0,0,0h424.5"/>
        <path class="cls-9" d="M536.5,734.6h444.7s0,0,0,0h.5s.2,0,.2,0M982.2,734.6l.6-.5h0s.7-1.3.7-1.3h0s0,0,0,0l.5.4.3-.5h0s.7-4.7.7-4.7h0s.7-12.2.7-12.2h0s.7-11.9.7-11.9h0s.7-10.4.7-10.4h0s.7-10.3.7-10.3h0s.8-14.4.8-14.4h0s.7-11.1.7-11.1h0c0,0,0,0,0,0l.4,1.5.3-2.3h0s.7-14.7.7-14.7h0s.7-26.9.7-26.9h0s.7-17.8.7-17.8h0s.7-13,.7-13h0s.7-11.6.7-11.6h0s.7-13.6.7-13.6h0s.7-12.1.7-12.1h0s.7-8.6.7-8.6h0s.7-7.6.7-7.6h0s.7-6.4.7-6.4h0s.7-6.2.7-6.2h0s.7-2.8.7-2.8h0s.7-1.1.7-1.1h0s.4-.1.4-.1M1000.8,514.3h.2s.5,0,.5,0h.2M1002.5,514.3l.5.4h0s.7,2,.7,2h0s.7,3.5.7,3.5h0s.7,5,.7,5h0s.7,6.3.7,6.3h0s.7,10.7.7,10.7h0s.7,10,.7,10h0s.7,10,.7,10h0s.7,13.8.7,13.8h0s.7,15,.7,15h0s.7,12.4.7,12.4h0s.7,13.7.7,13.7h0s.7,17.7.7,17.7h0s.7,13,.7,13h0s.7,12.7.7,12.7h0s.7,11.9.7,11.9h0s.8,14.3.8,14.3h0s.7,12.2.7,12.2h0s.7,8.8.7,8.8h0s.7,8.6.7,8.6h0s.7,8.5.7,8.5h0s.7,4.6.7,4.6h0s.7,3.2.7,3.2h0s.7,1.8.7,1.8h0s.3.2.3.2M1021.1,734.6h.1s.5,0,.5,0h38.2s0,0,0,0h.2M1060.7,734.6h0s0,0,0,0l.7-.7h0s.7-3.4.7-3.4h0s.7-4.6.7-4.6h0s.7-5.6.7-5.6h0s.7-8.7.7-8.7h0s.7-10.9.7-10.9h0s.7-9.8.7-9.8h0s.7-11,.7-11h0s.7-11.7.7-11.7h0s.8-16.8.8-16.8h0s.7-13.5.7-13.5h0s.7-12.7.7-12.7h0s.7-16.2.7-16.2h0s.7-15.5.7-15.5h0s.7-12.1.7-12.1h0s.7-11.8.7-11.8h0s.7-11.3.7-11.3h0s.7-13.3.7-13.3h0s.7-8.6.7-8.6h0s.7-7.1.7-7.1h0s.7-7.2.7-7.2h0s.7-4.7.7-4.7h0s.7-2.3.7-2.3h0s.7-.8.7-.8M1079.2,514.3h.1s.2,0,.2,0h.4s.4,0,.4,0h.8c0,.1,0,.1,0,.1h.4s.3.2.3.2h0s.7,2.8.7,2.8h0s.7,4,.7,4h0s.7,5.2.7,5.2h0s.7,8.4.7,8.4h0s.7,10.2.7,10.2h0s.7,9.4.7,9.4h0s.7,11.2.7,11.2h0s.7,15.7.7,15.7h0s.7,12.4.7,12.4h0s.7,12.6.7,12.6h0s.7,17.1.7,17.1h0s.7,14.7.7,14.7h0s.7,12.7.7,12.7h0s.7,12.4.7,12.4h0s.7,13.1.7,13.1h0s.7,14.6.7,14.6h0s.8,9.8.8,9.8h0s.7,8.9.7,8.9h0s.7,9.9.7,9.9h0s.7,6.3.7,6.3h0s.7,4.3.7,4.3h0s.7,3,.7,3h0s.7,1.2.7,1.2M1099.4,734.6h.1s.3,0,.3,0h0s.6,0,.6,0h37.9M1138.8,734.6l.7-.5h0s.5-.5.5-.5h.2c0,0,0,0,0,0h.3c0,.1.5-.5.5-.5h0s.7-4.2.7-4.2h0s.7-10.7.7-10.7h0s.7-7.5.7-7.5h0s.2-.5.2-.5l.5,1.1h0c0-.1,0-.1,0-.1l.7-9.7h0s.7-20.3.7-20.3h0s.7-19.4.7-19.4h0s.7-14.4.7-14.4h0s.8-12.7.8-12.7h0s.7-13.1.7-13.1h0s.7-13.5.7-13.5h0s.7-17.3.7-17.3h0s.7-12.4.7-12.4h0s.7-11.4.7-11.4h0s.7-13.6.7-13.6h0s.7-10.9.7-10.9h0s.7-7.9.7-7.9h0s.7-7.6.7-7.6h0s.7-6.9.7-6.9h0s.7-3.4.7-3.4h0s.7-2,.7-2h0s.7-.4.7-.4h0s.3,0,.3,0M1158,514.3h.3s0,0,0,0h.2s.6,0,.6,0h.3s.1,0,.1,0M1159.8,514.3l.7,1.1h0s.8,3,.8,3h0s.7,4.2.7,4.2h0s.7,6.1.7,6.1h0s.7,9.9.7,9.9h0s.7,8.8.7,8.8h0s.7,9.7.7,9.7h0s.7,15.4.7,15.4h0s.4,5,.4,5l.3-1h0s.2-.5.2-.5l.6,5.3h0s.7,19,.7,19h0s.7,25,.7,25h0s.7,16.3.7,16.3h0s.7,12.6.7,12.6h0s.7,12.3.7,12.3h0s.7,15.6.7,15.6h0s.7,11.5.7,11.5h0s.7,9.6.7,9.6h0s.7,8.5.7,8.5h0s.8,8.3.8,8.3h0s.7,7.3.7,7.3h0s.7,3.8.7,3.8h0s.7,2.4.7,2.4h0s.7.9.7.9h0s.2,0,.2,0M1178.4,734.6h.1s0,0,0,0h.1s.6,0,.6,0h38.1M1218.1,734.6h.1c0-.1,0-.1,0-.1l.7-2.5h0s.7-3.6.7-3.6h0s.7-5.1.7-5.1h0s.7-7.2.7-7.2h0s.5-2.7.5-2.7l.3.7h0s.2.4.2.4l.6-4.6h0s.7-15.9.7-15.9h0s.7-20.3.7-20.3h0s.7-11.7.7-11.7h0s.7-17.2.7-17.2h0s.7-13.2.7-13.2h0s.7-12.8.7-12.8h0s.8-16.7.8-16.7h0s.7-14.5.7-14.5h0s.7-11.7.7-11.7h0s.7-12.7.7-12.7h0s.7-13.5.7-13.5h0s.7-8.9.7-8.9h0s.7-7.9.7-7.9h0s.2-.4.2-.4l.5.9h0c0,0,0,0,0,0l.7-7.6h0s.7-8,.7-8h0s.7-3,.7-3h.3s.2,0,.2,0M1236.5,514.3h.2s.3,0,.3,0h.5M1238.3,514.3h.2c0,.1,0,.1,0,.1l.7,1.7h0s.7,3.2.7,3.2h0s.8,4.7.8,4.7h0s.7,5.9.7,5.9h0s.7,9.7.7,9.7h0s.7,10.5.7,10.5h0s.7,10.6.7,10.6h0s.7,7.9.7,7.9h0c0,0,0,0,0,0l.4-1.4.3,2.5h0s.7,17.1.7,17.1h0s.7,26.1.7,26.1h0s.7,18.4.7,18.4h0s.7,13.7.7,13.7h0s.7,12.3.7,12.3h0s.7,15.5.7,15.5h0s.6,9.2.6,9.2v-.2c.1,0,.1,0,.1,0l.4-1.3.4,2.7h0s.7,12.9.7,12.9h0s.7,18.3.7,18.3h0s.7,8.9.7,8.9h0s.8,5.2.8,5.2h0s.7,3.6.7,3.6h0s.7,2.1.7,2.1h0s.5.5.5.5M1256.8,734.6h0s.3,0,.3,0h39.2M1297.2,734.6l.6-.4h0s.7-4.7.7-4.7h0s.7-8.1.7-8.1h0s.7-6.6.7-6.6h0s.7-8.4.7-8.4h0s.7-12.9.7-12.9h0s.7-10.8.7-10.8h0s.7-11.2.7-11.2h0s.7-15.8.7-15.8h0s.7-14.7.7-14.7h0s.7-12.6.7-12.6h0s.7-14.8.7-14.8h0s.7-16.8.7-16.8h0s.8-12.3.8-12.3h0s.7-12,.7-12h0s.2-.7.2-.7l.5,1.4v-.2c0,0,0,0,0,0l.7-12.8h0s.7-18.7.7-18.7h0s.7-11.2.7-11.2h0s.7-6.5.7-6.5h0s.7-5.7.7-5.7h0s.7-2.6.7-2.6h0s.7-1.2.7-1.2M1314.9,514.3h.1s0,0,0,0h.6s.2,0,.2,0h0s.7,0,.7,0h.2s.5,0,.5,0h.4c0,0,.4,0,.4,0h0s.7,4.2.7,4.2h0s.7,6.9.7,6.9h0s.7,7,.7,7h0s.8,10.6.8,10.6h0s.7,9.3.7,9.3h0s.7,10.5.7,10.5h0s.7,11.1.7,11.1h0s.7,15.9.7,15.9h0s.7,14.2.7,14.2h0s.7,13.8.7,13.8h0s.6,7.4.6,7.4l.2-.4h0s.3-1.3.3-1.3l.4,4.6h0s.7,20.1.7,20.1h0s.7,25.1.7,25.1h0s.7,15,.7,15h0s.7,10.4.7,10.4h0s.7,9,.7,9h0s.7,9.8.7,9.8h0s.7,7.4.7,7.4h0s.7,4.5.7,4.5h0s.8,3.2.8,3.2h0s.7,1.7.7,1.7h0s.7.3.7.3h.1M1335.6,734.6h.4s0,0,0,0h0s.7,0,.7,0h6"/>
        <path class="cls-7" d="M536.5,734.6h21.8v-220.2M558.7,514.3v220.2h15.3v-220.2M574.5,514.3v220.2h1.7v-220.2M576.5,514.3v220.2h.9v-220.2M578,514.3v220.2h.2v-220.2M578.7,514.3v220.2h1v-220.2M580.1,514.3v220.2h.7v-220.2M581.3,514.3v220.2h.2v-220.2M581.7,514.3v220.2h.5v-220.2M582.7,514.3v167s0-167,0-167M582.9,514.3v220.2h.5v-220.2M583.6,514.3v220.2h.5v-220.2M584.3,514.3v220.2s.2-83.3.2-83.3v-22.7s0-114.2,0-114.2M584.7,514.3v220.2h1.3v-220.2M586.3,514.3v220.2h1.2v-220.2M587.8,514.3v220.2h63.8v-220.2M651.9,514.3v220.2h1.2v-220.2M653.5,514.3v220.2h1.1v-220.2M654.8,514.3v220.2h.6v-220.2M655.8,514.3v220.2s.1-220.2.1-220.2M656.3,514.3v220.2h1.4v-220.2M658,514.3v220.2h1.1v-220.2M659.6,514.3v220.2h.6v-220.2M660.6,514.3v220.2h.4v-220.2M661.4,514.3v220.2h1.1v-220.2M662.7,514.3v220.2s0-220.2,0-220.2M662.9,514.3v220.2h1.1v-220.2M664.5,514.3v220.2h1.4l.4-9.1v-9.6s0-201.5,0-201.5M666.4,514.3v220.2h66.2v-220.2M732.9,514.3v220.2h1.6v-220.2M734.8,514.3v220.2h1.2v-220.2M736.2,514.3v220.2h1.3v-220.2M737.7,514.3v220.2h.6v-220.2M738.5,514.3v220.2h.9v-220.2M739.9,514.3v220.2h1.7v-220.2M742.1,514.3v220.2h1.8v-220.2M744.2,514.3v220.2h3.8v-220.2M748.2,514.3v220.2h60.9v-220.2M809.6,514.3v220.2h1.7v-220.2M811.7,514.3v220.2h1.2v-220.2M813.2,514.3v220.2h1.2v-220.2M814.7,514.3v220.2h.4v-220.2M815.4,514.3v220.2h.1v-220.2M815.9,514.3v220.2h.7v-220.2M817,514.3v220.2h.3v-220.2M817.7,514.3v220.2h.4v-220.2M818.5,514.3v220.2h1.1v-220.2M820.2,514.3v220.2h1.7v-220.2M822.3,514.3v220.2h41.2v-220.2M863.8,514.3v220.2h24.1v-220.2M888.4,514.3v220.2h1.4v-220.2M890.1,514.3v159.6s0,18.6,0,18.6v42.1h.7v-220.2M891.3,514.3v220.2s0-220.2,0-220.2M891.5,514.3v220.2h.5v-220.2M892.5,514.3v220.2h.6v-220.2M893.4,514.3v220.2h1.2v-220.2M895,514.3v220.2s0-220.2,0-220.2M895.3,514.3v220.2h1.6v-220.2M897.4,514.3v220.2h.6v-220.2M898.5,514.3v220.2h.2v-.7s0-219.5,0-219.5M898.9,514.3v220.2h1.7v-220.2M901.1,514.3v220.2h21.3v-220.2M922.6,514.3v220.2h69.9l.4-32.2v-6.1s0-181.9,0-181.9M993.1,514.3v220.2h1.3v-220.2M995,514.3v220.2h.8v-220.2M996.2,514.3v220.2h1.2v-220.2M997.9,514.3v220.2h.2v-220.2M998.4,514.3v220.2h3.1v-220.2M1001.8,514.3v220.2h.8v-220.2M1003.1,514.3v220.2h1.4v-220.2M1005,514.3v220.2h1.4v-220.2M1006.8,514.3v220.2h10.1v-220.2M1017.3,514.3v220.2h44.9v-220.2M1062.5,514.3v220.2h5.4v-220.2M1068.4,514.3v220.2h2.5v-220.2M1071.3,514.3v220.2s0-220.2,0-220.2M1071.9,514.3v220.2h.5v-220.2M1072.8,514.3v220.2h.3v-220.2M1073.4,514.3v132.2s0-132.2,0-132.2M1073.7,514.3v220.2h.5v-220.2M1074.9,514.3v220.2h1.2v-220.2M1076.4,514.3v220.2h.5v-220.2M1077.2,514.3v220.2h.4v-220.2M1078,514.3v213.8s0,1.8,0,1.8v4.7h.4v-220.2M1078.9,514.3v220.2h.6v-220.2M1079.9,514.3v220.2h2.6v-220.2M1083,514.3v220.2h11.9v-220.2M1095.3,514.3v220.2h3.3v-220.2M1098.8,514.3v220.2h51.9v-220.2M1151.1,514.3v202.1s0,3.7,0,3.7v14.4h1.9v-220.2M1153.6,514.3v220.2h2.8v-220.2M1156.8,514.3v220.2h4.4v-220.2M1161.6,514.3v220.2h13.5v-220.2M1175.3,514.3v220.2h52.3v-220.2M1228.1,514.3v220.2h2.5v-220.2M1231.1,514.3v220.2h.6v-220.2M1232.2,514.3v220.2h1v-220.2M1233.8,514.3v220.2h.2v-220.2M1234.4,514.3v220.2h.7v-220.2M1235.6,514.3v220.2h.3v-220.2M1236.2,514.3v220.2h.8v-220.2M1237.7,514.3v220.2h.5v-220.2M1238.7,514.3v220.2h.2v-220.2M1239.5,514.3v220.2h68v-220.2M1307.8,514.3v220.2h.4l.4-48.7v-8.5s0-163,0-163M1308.9,514.3v220.2h0v-220.2M1309.5,514.3v220.2h1.4v-220.2M1311.5,514.3v220.2s.1-220.2.1-220.2M1311.8,514.3v220.2h.2v-220.2M1312.4,514.3v220.2h4.4v-220.2M1317.2,514.3v220.2h25.5"/>
      </g>
    </g>
  </g>
</svg>